<svg width="181" height="40" viewBox="0 0 181 40" fill="none" xmlns="http://www.w3.org/2000/svg">
<path d="M4.69408 9.52382L24.9583 3.85236L23.8851 1.62825C23.183 0.182586 21.4705 -0.41441 20.0606 0.305497L1.91989 9.52382H4.69408Z" fill="#24CCA7"/>
<path d="M31.0166 3.80957C30.7724 3.80957 30.5282 3.84601 30.284 3.91888L25.6552 5.30342L11.5192 9.52386H27.5645H34.5576L33.6917 6.05035C33.3587 4.69617 32.2376 3.80957 31.0166 3.80957Z" fill="#24CCA7"/>
<path d="M35.4497 10.7161H34.9377H34.2414H33.5452H28.2313H8.70522H6.14486H3.98877H3.58899H2.25042C1.54071 10.7161 0.907355 11.0414 0.494104 11.5539C0.305446 11.7901 0.161707 12.0619 0.0808534 12.3605C0.031443 12.5477 0 12.7438 0 12.9443V13.2117V15.7519V37.7716C0 39.0016 1.00618 39.9999 2.24593 39.9999H35.4452C36.685 39.9999 37.6912 39.0016 37.6912 37.7716V31.5548H24.3638C22.2572 31.5548 20.5458 29.8569 20.5458 27.7667V25.7256V25.0349V24.3441V22.8111C20.5458 21.7861 20.959 20.8547 21.6283 20.1728C22.2212 19.5667 23.0163 19.1567 23.9057 19.0542C24.0539 19.0364 24.2066 19.0275 24.3593 19.0275H35.8226H36.5188H37.215H37.6912V12.9443C37.6957 11.7143 36.6895 10.7161 35.4497 10.7161Z" fill="#4A56E2"/>
<path d="M39.2679 21.1578C39.0433 20.9528 38.7783 20.7968 38.4818 20.6943C38.2527 20.6185 38.0102 20.574 37.7541 20.574H37.6957H37.6508H36.9546H34.4436H24.3639C23.1242 20.574 22.118 21.5722 22.118 22.8022V23.9119V24.6027V25.2934V27.7624C22.118 28.9924 23.1242 29.9906 24.3639 29.9906H37.6957H37.7541C38.0102 29.9906 38.2527 29.9461 38.4818 29.8703C38.7783 29.7722 39.0433 29.6118 39.2679 29.4068C39.7171 29.0013 40.0001 28.413 40.0001 27.7624V22.8022C40.0001 22.1516 39.7171 21.5633 39.2679 21.1578ZM29.0534 25.7257C29.0534 26.3407 28.5503 26.8399 27.9304 26.8399H27.1848C26.5649 26.8399 26.0618 26.3407 26.0618 25.7257V24.9859C26.0618 24.6294 26.228 24.313 26.493 24.1125C26.6862 23.9654 26.9243 23.8718 27.1848 23.8718H27.3735H27.9304C28.5503 23.8718 29.0534 24.3709 29.0534 24.9859V25.7257Z" fill="#4A56E2"/>
<path d="M90.8401 9.94L85.3501 31H79.1401L75.7801 17.14L72.3001 31H66.0901L60.7501 9.94H66.2401L69.2701 25.27L73.0201 9.94H78.6601L82.2601 25.27L85.3201 9.94H90.8401ZM92.3928 22.6C92.3928 20.88 92.7128 19.37 93.3528 18.07C94.0128 16.77 94.9028 15.77 96.0228 15.07C97.1428 14.37 98.3928 14.02 99.7728 14.02C100.953 14.02 101.983 14.26 102.863 14.74C103.763 15.22 104.453 15.85 104.933 16.63V14.26H110.063V31H104.933V28.63C104.433 29.41 103.733 30.04 102.833 30.52C101.953 31 100.923 31.24 99.7428 31.24C98.3828 31.24 97.1428 30.89 96.0228 30.19C94.9028 29.47 94.0128 28.46 93.3528 27.16C92.7128 25.84 92.3928 24.32 92.3928 22.6ZM104.933 22.63C104.933 21.35 104.573 20.34 103.853 19.6C103.153 18.86 102.293 18.49 101.273 18.49C100.253 18.49 99.3828 18.86 98.6628 19.6C97.9628 20.32 97.6128 21.32 97.6128 22.6C97.6128 23.88 97.9628 24.9 98.6628 25.66C99.3828 26.4 100.253 26.77 101.273 26.77C102.293 26.77 103.153 26.4 103.853 25.66C104.573 24.92 104.933 23.91 104.933 22.63ZM118.904 8.8V31H113.774V8.8H118.904ZM127.752 8.8V31H122.622V8.8H127.752ZM147.249 22.36C147.249 22.84 147.219 23.34 147.159 23.86H135.549C135.629 24.9 135.959 25.7 136.539 26.26C137.139 26.8 137.869 27.07 138.729 27.07C140.009 27.07 140.899 26.53 141.399 25.45H146.859C146.579 26.55 146.069 27.54 145.329 28.42C144.609 29.3 143.699 29.99 142.599 30.49C141.499 30.99 140.269 31.24 138.909 31.24C137.269 31.24 135.809 30.89 134.529 30.19C133.249 29.49 132.249 28.49 131.529 27.19C130.809 25.89 130.449 24.37 130.449 22.63C130.449 20.89 130.799 19.37 131.499 18.07C132.219 16.77 133.219 15.77 134.499 15.07C135.779 14.37 137.249 14.02 138.909 14.02C140.529 14.02 141.969 14.36 143.229 15.04C144.489 15.72 145.469 16.69 146.169 17.95C146.889 19.21 147.249 20.68 147.249 22.36ZM141.999 21.01C141.999 20.13 141.699 19.43 141.099 18.91C140.499 18.39 139.749 18.13 138.849 18.13C137.989 18.13 137.259 18.38 136.659 18.88C136.079 19.38 135.719 20.09 135.579 21.01H141.999ZM159.286 26.65V31H156.676C154.816 31 153.366 30.55 152.326 29.65C151.286 28.73 150.766 27.24 150.766 25.18V18.52H148.726V14.26H150.766V10.18H155.896V14.26H159.256V18.52H155.896V25.24C155.896 25.74 156.016 26.1 156.256 26.32C156.496 26.54 156.896 26.65 157.456 26.65H159.286Z" fill="black"/>
</svg>
