<svg width="436" height="420" viewBox="0 0 436 420" fill="none" xmlns="http://www.w3.org/2000/svg">
<g clip-path="url(#clip0_3_65)">
<path d="M412.4 7.6L412.6 88.1C412.6 92.6 409 96.3 404.5 96.3L276.8 96.6C272.3 96.6 268.6 93 268.6 88.5L268.4 8C268.4 3.8 271.8 0.4 276 0.4L404.8 0C409 0 412.4 3.4 412.4 7.6Z" fill="#4A56E2"/>
<path d="M391.8 76.8C391.8 80.9 388.5 84.3 384.3 84.3C380.2 84.3 376.8 81 376.8 76.8C376.8 72.7 380.1 69.3 384.3 69.3C388.5 69.3 391.8 72.6 391.8 76.8Z" fill="#A6A6A6"/>
<path d="M401.1 76.8C401.1 80.9 397.8 84.3 393.6 84.3C389.5 84.3 386.1 81 386.1 76.8C386.1 72.7 389.4 69.3 393.6 69.3C397.7 69.3 401.1 72.6 401.1 76.8Z" fill="#FFC727"/>
<path d="M303.4 32.8001H284.8C282.5 32.8001 280.6 30.9001 280.6 28.6001V18.3001C280.6 16.0001 282.5 14.1001 284.8 14.1001H303.4C305.7 14.1001 307.6 16.0001 307.6 18.3001V28.6001C307.6 30.9001 305.7 32.8001 303.4 32.8001Z" fill="#FFC727"/>
<path d="M395.8 24.1H383.6C380.8 24.1 378.5 21.8 378.5 19C378.5 16.2 380.8 13.9 383.6 13.9H395.8C398.6 13.9 400.9 16.2 400.9 19C400.9 21.8 398.6 24.1 395.8 24.1Z" fill="white"/>
<path d="M279.7 49.9001L278.6 50.6001H278.5C278.4 50.6001 278.3 50.5001 278.3 50.5001C278.2 50.4001 278.3 50.2001 278.4 50.1001L279.9 49.2001C280 49.1001 280.2 49.2001 280.3 49.3001C280.3 49.4001 280.3 49.4001 280.3 49.5001V56.7001C280.3 56.8001 280.2 57.0001 280 57.0001C279.9 57.0001 279.7 56.9001 279.7 56.7001V49.9001Z" fill="#F8F8F8"/>
<path d="M282.1 56.4001L285.8 53.1001C286.2 52.7001 286.5 52.2001 286.5 51.6001C286.5 51.1001 286.3 50.6001 286 50.3001C285.6 49.9001 285.1 49.6001 284.5 49.6001C284 49.6001 283.5 49.8001 283.1 50.1001L282.7 50.4001C282.6 50.5001 282.4 50.5001 282.3 50.4001C282.2 50.3001 282.2 50.1001 282.3 50.0001L282.7 49.6001C283.2 49.2001 283.8 48.9001 284.4 48.9001C285.1 48.9001 285.8 49.2001 286.3 49.7001C286.8 50.2001 287 50.8001 287 51.4001C287 52.1001 286.7 52.8001 286.2 53.3001L283.1 56.1001H286.8C286.9 56.1001 287.1 56.2001 287.1 56.4001C287.1 56.5001 287 56.7001 286.8 56.7001H282.4C282.3 56.7001 282.2 56.7001 282.2 56.6001C282 56.7001 282 56.5001 282.1 56.4001Z" fill="#F8F8F8"/>
<path d="M293.5 49.5001L291.5 51.6001C292 51.7001 292.5 51.9001 292.8 52.3001C293.3 52.8001 293.6 53.5001 293.6 54.2001C293.6 54.9001 293.3 55.6001 292.8 56.1001C292.3 56.6001 291.6 56.9001 290.9 56.9001C290.2 56.9001 289.5 56.6001 289 56.1001C288.9 56.0001 288.9 55.8001 289 55.7001C289.1 55.6001 289.3 55.6001 289.4 55.7001C289.8 56.1001 290.3 56.3001 290.9 56.3001C291.4 56.3001 292 56.1001 292.4 55.7001C292.8 55.3001 293 54.7001 293 54.2001C293 53.7001 292.8 53.1001 292.4 52.7001C292 52.3001 291.5 52.1001 290.9 52.1001C290.8 52.1001 290.7 52.1001 290.7 52.0001C290.6 51.9001 290.6 51.7001 290.7 51.6001L292.6 49.6001H289.6C289.4 49.6001 289.3 49.5001 289.3 49.3001C289.3 49.1001 289.4 49.0001 289.6 49.0001H293.3C293.5 49.0001 293.6 49.1001 293.6 49.3001C293.6 49.3001 293.5 49.4001 293.5 49.5001Z" fill="#F8F8F8"/>
<path d="M300.1 55.2H295.9C295.8 55.2 295.8 55.2 295.7 55.1C295.6 55 295.6 54.8 295.7 54.7L300.2 49C300.3 48.9 300.5 48.9 300.6 49L300.7 49.1V54.5H301.2C301.4 54.5 301.5 54.6 301.5 54.8C301.5 54.9 301.4 55.1 301.2 55.1H300.7V56.4001C300.7 56.5001 300.6 56.7 300.4 56.7C300.3 56.7 300.1 56.6 300.1 56.4001V55.2ZM300.1 54.7V50.1L296.4 54.7H300.1Z" fill="#F8F8F8"/>
<path d="M309.9 56C309.8 55.9 309.8 55.7 309.9 55.6C310 55.5 310.2 55.5 310.3 55.6C310.7 56 311.2 56.2001 311.8 56.2001C312.3 56.2001 312.9 56 313.3 55.6C313.7 55.2 313.9 54.7 313.9 54.1C313.9 53.6 313.7 53 313.3 52.6C312.9 52.2 312.4 52 311.8 52C311.3 52 310.7 52.2 310.3 52.6C310.2 52.7 310 52.7 309.9 52.6L309.8 52.5V52.4001C309.8 52.4001 309.8 52.4 309.8 52.3L310.2 49.1C310.2 49 310.2 48.9001 310.3 48.9001C310.3 48.9001 310.4 48.8 310.5 48.8H314.2C314.4 48.8 314.5 48.9 314.5 49.1C314.5 49.3 314.4 49.4001 314.2 49.4001H310.8L310.5 51.7001C310.9 51.5001 311.4 51.3 311.8 51.3C312.5 51.3 313.2 51.5 313.7 52.1C314.2 52.6 314.5 53.3 314.5 54C314.5 54.7 314.3 55.4001 313.7 55.9001C313.2 56.4001 312.5 56.7001 311.8 56.7001C311.1 56.8001 310.4 56.6 309.9 56Z" fill="#F8F8F8"/>
<path d="M317.3 50.7001C317.8 49.7001 318.7 49.0001 320 49.0001C320.1 49.0001 320.3 49.1001 320.3 49.3001C320.3 49.5001 320.2 49.6001 320 49.6001C318.9 49.6001 318.2 50.2001 317.7 51.0001C317.4 51.5001 317.3 52.0001 317.1 52.6001C317.6 52.1001 318.3 51.7001 319 51.7001C320.4 51.7001 321.6 52.9001 321.6 54.3001C321.6 55.7001 320.5 56.9001 319 56.9001C317.6 56.9001 316.5 55.8001 316.4 54.4001C316.4 54.2001 316.4 54.1001 316.4 53.9001C316.6 52.7001 316.8 51.6001 317.3 50.7001ZM317.2 54.3001C317.2 54.4001 317.2 54.4001 317.2 54.4001V54.5001C317.3 55.5001 318.2 56.3001 319.2 56.3001C320.3 56.3001 321.3 55.4001 321.3 54.3001C321.3 53.2001 320.4 52.3001 319.2 52.3001C318.1 52.2001 317.2 53.1001 317.2 54.3001Z" fill="#F8F8F8"/>
<path d="M324.7 56.4001L327.6 49.5001H323.8C323.7 49.5001 323.5 49.4001 323.5 49.2001C323.5 49.1001 323.6 48.9001 323.8 48.9001H327.9C328 48.9001 328 48.9001 328.1 48.9001C328.2 48.9001 328.2 49.0001 328.2 49.1001V49.2001C328.2 49.3001 328.2 49.3001 328.2 49.3001L325.2 56.5001C325.2 56.6001 325.1 56.7001 325 56.7001H324.9C324.7 56.7001 324.6 56.5001 324.7 56.4001Z" fill="#F8F8F8"/>
<path d="M332.4 48.9001C333.3 48.9001 334 49.6001 334 50.5001C334 51.0001 333.7 51.5001 333.3 51.8001C334.2 52.2001 334.9 53.1001 334.9 54.1001C334.9 55.5001 333.8 56.6001 332.4 56.6001C331 56.6001 329.9 55.5001 329.9 54.1001C329.9 53.0001 330.5 52.1001 331.5 51.7001C331.1 51.4001 330.8 50.9001 330.8 50.4001C330.8 49.7001 331.5 48.9001 332.4 48.9001ZM332.4 56.2001C333.5 56.2001 334.4 55.3001 334.4 54.2001C334.4 53.1001 333.5 52.2001 332.4 52.2001C331.3 52.2001 330.4 53.1001 330.4 54.2001C330.4 55.3001 331.3 56.2001 332.4 56.2001ZM332.4 51.7001C333 51.7001 333.5 51.2001 333.5 50.6001C333.5 50.0001 333 49.5001 332.4 49.5001C331.8 49.5001 331.3 50.0001 331.3 50.6001C331.3 51.2001 331.8 51.6001 332.4 51.7001Z" fill="#F8F8F8"/>
<path d="M346.3 48.9001C347.6 48.9001 348.7 49.9001 348.9 51.2001C348.9 51.2001 348.9 51.2001 348.9 51.3001C348.9 51.5001 348.9 51.7001 348.9 52.0001C348.9 53.0001 348.7 54.2001 348.2 55.1001C347.7 56.0001 346.7 56.8001 345.5 56.8001C345.3 56.8001 345.2 56.7001 345.2 56.5001C345.2 56.3001 345.3 56.2001 345.5 56.2001C346.6 56.2001 347.3 55.6001 347.8 54.8001C348.1 54.3001 348.3 53.8001 348.4 53.2001C347.9 53.7001 347.2 54.1001 346.5 54.1001C345.1 54.1001 343.9 53.0001 343.9 51.5001C343.7 50.0001 344.9 48.9001 346.3 48.9001ZM348.4 51.5001C348.4 50.4001 347.5 49.5001 346.3 49.5001C345.2 49.5001 344.3 50.4001 344.3 51.5001C344.3 52.6001 345.2 53.5001 346.3 53.5001C347.5 53.5001 348.4 52.6001 348.4 51.5001Z" fill="#F8F8F8"/>
<path d="M350.9 52.8001C350.9 51.7001 351.2 50.8001 351.6 50.1001C352.1 49.4001 352.8 48.9001 353.6 48.9001C354.4 48.9001 355.1 49.4001 355.6 50.1001C356.1 50.8001 356.4 51.8001 356.4 52.8001C356.4 53.9001 356.1 54.8001 355.6 55.5001C355.1 56.2001 354.4 56.7001 353.6 56.7001C352.8 56.7001 352.1 56.2001 351.6 55.5001C351.2 54.8001 350.9 53.8001 350.9 52.8001ZM351.5 52.8001C351.5 53.8001 351.8 54.6001 352.2 55.2001C352.6 55.8001 353.1 56.1001 353.7 56.1001C354.3 56.1001 354.8 55.8001 355.2 55.2001C355.6 54.6001 355.9 53.7001 355.9 52.8001C355.9 51.8001 355.6 51.0001 355.2 50.4001C354.8 49.8001 354.3 49.5001 353.7 49.5001C353.1 49.5001 352.6 49.8001 352.2 50.4001C351.7 51.0001 351.5 51.8001 351.5 52.8001Z" fill="#F8F8F8"/>
<path d="M360 49.6001L358.9 50.3001H358.8C358.7 50.3001 358.6 50.2001 358.6 50.2001C358.5 50.1001 358.6 49.9001 358.7 49.8001L360.2 48.9001C360.3 48.8001 360.5 48.9001 360.6 49.0001C360.6 49.1001 360.6 49.1001 360.6 49.2001V56.4001C360.6 56.5001 360.5 56.7001 360.3 56.7001C360.2 56.7001 360 56.6001 360 56.4001V49.6001Z" fill="#F8F8F8"/>
<path d="M362.4 56.2001L366.1 52.9001C366.5 52.5001 366.8 52.0001 366.8 51.4001C366.8 50.9001 366.6 50.4001 366.3 50.1001C365.9 49.7001 365.4 49.4001 364.8 49.4001C364.3 49.4001 363.8 49.6001 363.4 49.9001L363 50.2001C362.9 50.3001 362.7 50.3001 362.6 50.2001C362.5 50.1001 362.5 49.9001 362.6 49.8001L363 49.4001C363.5 49.0001 364.1 48.7001 364.7 48.7001C365.4 48.7001 366.1 49.0001 366.6 49.5001C367.1 50.0001 367.3 50.6001 367.3 51.2001C367.3 51.9001 367 52.6001 366.5 53.1001L363.4 55.9001H367.1C367.2 55.9001 367.4 56.0001 367.4 56.2001C367.4 56.3001 367.3 56.5001 367.1 56.5001H362.7C362.6 56.5001 362.5 56.5001 362.5 56.4001C362.3 56.5001 362.3 56.3001 362.4 56.2001Z" fill="#F8F8F8"/>
<path d="M380.5 49.3L378.5 51.4001C379 51.5001 379.5 51.7 379.8 52.1C380.3 52.6 380.6 53.3 380.6 54C380.6 54.7 380.3 55.4001 379.8 55.9001C379.3 56.4001 378.6 56.7001 377.9 56.7001C377.2 56.7001 376.5 56.4001 376 55.9001C375.9 55.8001 375.9 55.6 376 55.5C376.1 55.4 376.3 55.4 376.4 55.5C376.8 55.9 377.3 56.1 377.9 56.1C378.4 56.1 379 55.9 379.4 55.5C379.8 55.1 380 54.5 380 54C380 53.5 379.8 52.9 379.4 52.5C379 52.1 378.5 51.9001 377.9 51.9001C377.8 51.9001 377.7 51.9 377.7 51.8C377.6 51.7 377.6 51.5001 377.7 51.4001L379.6 49.4001H376.6C376.4 49.4001 376.3 49.3 376.3 49.1C376.3 48.9 376.4 48.8 376.6 48.8H380.3C380.5 48.8 380.6 48.9 380.6 49.1C380.6 49.1 380.6 49.2 380.5 49.3C380.5 49.2 380.5 49.3 380.5 49.3Z" fill="#F8F8F8"/>
<path d="M387.1 55.0001H382.9C382.8 55.0001 382.8 55.0001 382.7 54.9001C382.6 54.8001 382.6 54.6001 382.7 54.5001L387.2 48.8001C387.3 48.7001 387.5 48.7001 387.6 48.8001L387.7 48.9001V54.3001H388.2C388.4 54.3001 388.5 54.4001 388.5 54.6001C388.5 54.7001 388.4 54.9001 388.2 54.9001H387.7V56.2001C387.7 56.3001 387.6 56.5001 387.4 56.5001C387.3 56.5001 387.1 56.4001 387.1 56.2001V55.0001ZM387.1 54.5001V49.9001L383.4 54.5001H387.1Z" fill="#F8F8F8"/>
<path d="M390.2 55.8001C390.1 55.7001 390.1 55.5001 390.2 55.4001C390.3 55.3001 390.5 55.3001 390.6 55.4001C391 55.8001 391.5 56.0001 392.1 56.0001C392.6 56.0001 393.2 55.8001 393.6 55.4001C394 55.0001 394.2 54.5001 394.2 53.9001C394.2 53.4001 394 52.8001 393.6 52.4001C393.2 52.0001 392.7 51.8001 392.1 51.8001C391.6 51.8001 391 52.0001 390.6 52.4001C390.5 52.5001 390.3 52.5001 390.2 52.4001L390.1 52.3001V52.2001C390.1 52.2001 390.1 52.2001 390.1 52.1001L390.5 48.9001C390.5 48.8001 390.5 48.7001 390.6 48.7001C390.6 48.7001 390.7 48.6001 390.8 48.6001H394.5C394.7 48.6001 394.8 48.7001 394.8 48.9001C394.8 49.1001 394.7 49.2001 394.5 49.2001H391.1L390.8 51.5001C391.2 51.3001 391.7 51.1001 392.1 51.1001C392.8 51.1001 393.5 51.3001 394 51.9001C394.5 52.4001 394.8 53.1001 394.8 53.8001C394.8 54.5001 394.6 55.2001 394 55.7001C393.5 56.2001 392.8 56.5001 392.1 56.5001C391.4 56.6001 390.7 56.4001 390.2 55.8001Z" fill="#F8F8F8"/>
<path d="M397.6 50.5C398.1 49.5 399 48.8 400.3 48.8C400.4 48.8 400.6 48.9 400.6 49.1C400.6 49.3 400.5 49.4001 400.3 49.4001C399.2 49.4001 398.5 50 398 50.8C397.7 51.3 397.6 51.8001 397.4 52.4001C397.9 51.9001 398.6 51.5 399.3 51.5C400.7 51.5 401.9 52.7 401.9 54.1C401.9 55.5 400.8 56.7001 399.3 56.7001C397.9 56.7001 396.8 55.6001 396.7 54.2001C396.7 54.0001 396.7 53.9001 396.7 53.7001C396.9 52.5001 397.1 51.4 397.6 50.5ZM397.5 54.1C397.5 54.2 397.5 54.2001 397.5 54.2001V54.3C397.6 55.3 398.5 56.1 399.5 56.1C400.6 56.1 401.6 55.2 401.6 54.1C401.6 53 400.7 52.1 399.5 52.1C398.4 52 397.5 52.9 397.5 54.1Z" fill="#F8F8F8"/>
<path d="M349.097 70.2115L280.697 70.389L280.706 73.789L349.106 73.6115L349.097 70.2115Z" fill="#A6A6A6"/>
<path d="M329.097 77.6376L280.697 77.7632L280.705 81.1632L329.105 81.0376L329.097 77.6376Z" fill="#A6A6A6"/>
<path d="M373.697 13.856L339.597 13.9445L339.606 17.3445L373.706 17.256L373.697 13.856Z" fill="#A6A6A6"/>
<path d="M415.2 171.1H381.3C370.254 171.1 361.3 180.054 361.3 191.1V225C361.3 236.046 370.254 245 381.3 245H415.2C426.246 245 435.2 236.046 435.2 225V191.1C435.2 180.054 426.246 171.1 415.2 171.1Z" fill="#24CCA7"/>
<path d="M399.5 183C400.9 183 402 184.1 402 185.5V186.8C405.4 187.2 408.4 188.3 411.1 190C412 190.5 412.9 191.4 412.9 192.8C412.9 194.6 411.4 196 409.6 196C409 196 408.4 195.8 407.8 195.5C405.8 194.3 403.8 193.4 401.8 192.9V204.1C410.7 206.3 414.5 209.9 414.5 216.1C414.5 222.5 409.5 226.8 402.1 227.5V231C402.1 232.4 401 233.5 399.6 233.5C398.2 233.5 397 232.4 397 231V227.4C392.6 226.9 388.6 225.4 385 222.8C384 222.2 383.4 221.2 383.4 220C383.4 218.2 384.8 216.8 386.6 216.8C387.3 216.8 388 217 388.5 217.4C391.2 219.4 393.9 220.7 397.1 221.3V209.8C388.6 207.6 384.6 204.4 384.6 197.8C384.6 191.5 389.6 187.2 396.9 186.6V185.4C396.9 184.1 398.1 183 399.5 183ZM397.1 202.9V192.6C393.4 193 391.5 194.9 391.5 197.5C391.5 199.9 392.7 201.4 397.1 202.9ZM401.8 211V221.6C405.5 221.2 407.6 219.3 407.6 216.5C407.5 214 406.3 212.4 401.8 211Z" fill="white"/>
<path d="M73.3 108.5H39.4C28.3543 108.5 19.4 117.454 19.4 128.5V162.4C19.4 173.446 28.3543 182.4 39.4 182.4H73.3C84.3457 182.4 93.3 173.446 93.3 162.4V128.5C93.3 117.454 84.3457 108.5 73.3 108.5Z" fill="#24CCA7"/>
<path d="M72.7 160.1H38.2L29.7 129.5H78.2L80 122.4H85.5V124.4H81.6L72.7 160.1ZM39.8 158.1H71.2L77.8 131.5H32.5L39.8 158.1Z" fill="white"/>
<path d="M43.1 166.2L41.2 165.4L44.3 158.1H67.8L70.3 165.5L68.4 166.1L66.3 160.1H45.7L43.1 166.2Z" fill="white"/>
<path d="M77.3 136.5H33.3V138.5H77.3V136.5Z" fill="white"/>
<path d="M74.8962 143.914L35.0962 144.089L35.105 146.089L74.905 145.914L74.8962 143.914Z" fill="white"/>
<path d="M73.3 151.7H37.2V153.7H73.3V151.7Z" fill="white"/>
<path d="M56.7 130.7H54.7V159.2H56.7V130.7Z" fill="white"/>
<path d="M48.9535 130.565L46.9599 130.725L49.2458 159.234L51.2394 159.074L48.9535 130.565Z" fill="white"/>
<path d="M40.3622 130.451L38.3952 130.813L43.6413 159.334L45.6083 158.973L40.3622 130.451Z" fill="white"/>
<path d="M62.3656 130.589L60.0742 159.098L62.0678 159.258L64.3592 130.75L62.3656 130.589Z" fill="white"/>
<path d="M70.9814 130.413L65.7411 158.934L67.7081 159.296L72.9484 130.774L70.9814 130.413Z" fill="white"/>
<path d="M42.2 170.1C39.8 170.1 37.9 168.2 37.9 165.8C37.9 163.4 39.8 161.5 42.2 161.5C44.6 161.5 46.5 163.4 46.5 165.8C46.5 168.2 44.5 170.1 42.2 170.1ZM42.2 163.5C40.9 163.5 39.9 164.5 39.9 165.8C39.9 167.1 40.9 168.1 42.2 168.1C43.5 168.1 44.5 167.1 44.5 165.8C44.5 164.5 43.4 163.5 42.2 163.5Z" fill="white"/>
<path d="M69.3 170.1C66.9 170.1 65 168.2 65 165.8C65 163.4 66.9 161.5 69.3 161.5C71.7 161.5 73.6 163.4 73.6 165.8C73.6 168.2 71.7 170.1 69.3 170.1ZM69.3 163.5C68 163.5 67 164.5 67 165.8C67 167.1 68 168.1 69.3 168.1C70.6 168.1 71.6 167.1 71.6 165.8C71.6 164.5 70.5 163.5 69.3 163.5Z" fill="white"/>
<path d="M242.5 419.5C343.789 419.5 425.9 408.621 425.9 395.2C425.9 381.78 343.789 370.9 242.5 370.9C141.211 370.9 59.1 381.78 59.1 395.2C59.1 408.621 141.211 419.5 242.5 419.5Z" fill="#4A56E2"/>
<path d="M54.4 392.7C83.7816 392.7 107.6 388.133 107.6 382.5C107.6 376.867 83.7816 372.3 54.4 372.3C25.0185 372.3 1.20001 376.867 1.20001 382.5C1.20001 388.133 25.0185 392.7 54.4 392.7Z" fill="#4A56E2"/>
<path d="M260 21.3H99.6C90.6 21.3 83.4 28.7 83.4 37.8V368C83.4 377.1 90.7 384.5 99.6 384.5H260C269 384.5 276.2 377.1 276.2 368V37.8C276.2 28.7 269 21.3 260 21.3ZM266.1 357.8C266.1 366.5 259.6 373.5 251.6 373.5H108.1C100.1 373.5 93.5 366.5 93.5 357.8V50.4001C93.5 32.7001 100 31.8 108.1 31.8H136.8C138.5 31.8 139.8 33.7 139.8 36.1V37.1C139.8 42.6 142.8 42.6 146.5 42.6H213C216.7 42.6 219.7 42.6 219.7 37.1V36.1C219.7 33.7 221 31.8 222.7 31.8H251.4C259.4 31.8 265.9 34.1001 265.9 50.4001V357.8H266.1Z" fill="#263238"/>
<path d="M266.1 53.4001V357.8C266.1 366.5 259.6 373.5 251.6 373.5H108.1C100.1 373.5 93.5 366.5 93.5 357.8V53.4001C93.5 35.7001 100 31.8 108.1 31.8H136.8C138.5 31.8 139.8 33.7 139.8 36.1V37.1C139.8 42.6 142.8 42.6 146.5 42.6H213C216.7 42.6 219.7 42.6 219.7 37.1V36.1C219.7 33.7 221 31.8 222.7 31.8H251.4C259.6 31.8 266.1 37.2001 266.1 53.4001Z" fill="white"/>
<path d="M188.9 35.7H170.8C170.2 35.7 169.7 35.2 169.7 34.6C169.7 34 170.2 33.5 170.8 33.5H188.9C189.5 33.5 190 34 190 34.6C190 35.2 189.5 35.7 188.9 35.7Z" fill="white"/>
<path d="M189 202.6H168.1V205.3H189V202.6Z" fill="#C7C7C7"/>
<path d="M140.4 74H112.4C107.982 74 104.4 77.5817 104.4 82V110C104.4 114.418 107.982 118 112.4 118H140.4C144.818 118 148.4 114.418 148.4 110V82C148.4 77.5817 144.818 74 140.4 74Z" fill="#FFD8D0"/>
<path d="M131.1 101.7L125.3 99.8C125.3 99.8 122.3 102.1 120.3 98.2C120.3 98.2 115.8 99.5 114.3 94.8C114.3 94.8 108.8 93.1 110.4 89.9C112 86.8 116.4 90.1 116.4 90.1C116.4 90.1 120.8 89.7 122.3 94.2C122.3 94.2 126.5 94.2 126.5 98.1L131.1 101.7Z" fill="#263238"/>
<path d="M113 91.1001C114.6 91.9001 116.1 92.7001 117.6 93.6001C119.1 94.4001 120.7 95.3001 122.2 96.2001C123.7 97.1001 125.2 98.0001 126.7 98.9001C128.2 99.8001 129.7 100.7 131.1 101.8L130 101L128.9 100.3L126.6 99.0001L122.1 96.4001L117.6 93.8001C116 92.9001 114.5 92.0001 113 91.1001Z" fill="white"/>
<path d="M131.4 101.5L131.5 95.4C131.5 95.4 134.6 93.3 131.6 90.2C131.6 90.2 134.3 86.4 130.3 83.5C130.3 83.5 130.5 77.7 127 78.2C123.5 78.7 125.2 83.9 125.2 83.9C125.2 83.9 123.4 87.9 127.2 90.9C127.2 90.9 125.8 94.9 129.5 96.1L131.4 101.5Z" fill="#263238"/>
<path d="M127.3 80.9C127.7 82.6 128 84.3 128.3 86L129.3 91.2L130.3 96.4L130.8 99L131.1 100.3L131.4 101.6C130.9 99.9 130.5 98.2 130.1 96.5C129.7 94.8 129.4 93.1 129 91.4C128.7 89.7 128.3 88 128 86.2C127.8 84.4 127.6 82.6 127.3 80.9Z" fill="white"/>
<path d="M131.8 102.4L126.1 96.5C126.1 96.5 121.3 97.7 120.9 92C120.9 92 114.7 91.2 115.5 84.7C115.5 84.7 109.7 79.7 113.3 76.7C116.9 73.8 120.5 80.1 120.5 80.1C120.5 80.1 126 82 125.5 88.2C125.5 88.2 130.6 90.4 128.6 95.1L131.8 102.4Z" fill="#455A64"/>
<path d="M117 79.9C118.4 81.6 119.8 83.4 121.1 85.3C121.4 85.8 121.8 86.2 122.1 86.7L123.1 88.1C123.4 88.6 123.7 89 124 89.5C124.3 90 124.6 90.4 124.9 90.9C125.5 91.8 126.1 92.8 126.7 93.7L127.6 95.1L128 95.8L128.4 96.5C129.6 98.4 130.6 100.4 131.7 102.4L131.3 101.7L130.9 101L130.5 100.3L130.1 99.6L129.2 98.2L128.3 96.8C127.1 94.9 125.9 93 124.7 91.1C124.1 90.2 123.5 89.2 122.8 88.3L121.9 86.9L120.9 85.5C120.3 84.6 119.6 83.7 119 82.7C118.3 81.7 117.6 80.8 117 79.9Z" fill="white"/>
<path d="M140.9 102.3C141 102.4 141.1 102.6 141.2 102.7C144 107.1 140.3 110.5 140.2 112.1C140.1 113.7 141.3 114.7 140.6 115.3C139.9 115.8 139.3 114.3 137.7 113.9C136.5 113.6 133.3 115 130.5 113.5C130.3 113.4 130 113.2 129.8 113.1C129.3 112.8 128.9 112.4 128.5 111.8C128.4 111.7 128.3 111.5 128.2 111.4C128.1 111.3 128.1 111.3 128 111.2C126.8 109.4 126.3 107.7 126.4 106.2C126.4 105.9 126.5 105.5 126.5 105.2C126.9 103.2 128.1 101.6 129.8 100.4C132.5 98.5 136.1 98 139 100.5C139.2 100.7 139.4 100.8 139.6 101C140 101.4 140.3 101.8 140.7 102.2C140.8 102.2 140.9 102.2 140.9 102.3Z" fill="white"/>
<path d="M133.8 110.2L134.2 110.8L130.5 113.5C130.3 113.4 130 113.2 129.8 113.1L133.8 110.2Z" fill="#DBDBDB"/>
<path d="M130.7 109.3L131.1 109.9L128.5 111.7C128.4 111.6 128.3 111.4 128.2 111.3C128.1 111.2 128.1 111.2 128 111.1L130.7 109.3Z" fill="#DBDBDB"/>
<path d="M140.9 102.3C141 102.4 141.1 102.6 141.2 102.7L138.6 104.5L138.2 103.9L140.8 102.1C140.8 102.2 140.9 102.2 140.9 102.3Z" fill="#DBDBDB"/>
<path d="M139.7 100.9L137.9 102.2L137.5 101.6L139.2 100.4C139.3 100.5 139.5 100.7 139.7 100.9Z" fill="#DBDBDB"/>
<path d="M128.6 103.6L129 104.2L126.4 106C126.4 105.7 126.5 105.3 126.5 105L128.6 103.6Z" fill="#DBDBDB"/>
<path d="M118.3 121.6C118.4 121.6 118.5 121.7 118.5 121.8V122.1C119.1 122.1 119.5 122.3 119.9 122.7C120 122.8 120 122.8 120 122.9C120 123 119.9 123.1 119.8 123.1C119.8 123.1 119.7 123.1 119.7 123C119.3 122.7 118.9 122.5 118.5 122.5V124.7C119.7 125 120.2 125.4 120.2 126.2C120.2 127 119.5 127.6 118.5 127.7V128.3C118.5 128.4 118.4 128.5 118.3 128.5C118.2 128.5 118.1 128.4 118.1 128.3V127.7C117.4 127.6 116.8 127.4 116.3 126.9C116.2 126.9 116.2 126.8 116.2 126.7C116.2 126.6 116.3 126.5 116.4 126.5C116.5 126.5 116.5 126.5 116.5 126.6C116.9 127 117.4 127.3 118.1 127.3V125C116.9 124.7 116.4 124.3 116.4 123.5C116.4 122.7 117.1 122.1 118.1 122.1V121.8C118.2 121.6 118.2 121.6 118.3 121.6ZM118.2 124.6V122.4C117.4 122.4 116.9 122.9 116.9 123.5C116.9 124 117.1 124.3 118.2 124.6ZM118.5 125.1V127.3C119.3 127.3 119.8 126.8 119.8 126.2C119.8 125.6 119.6 125.3 118.5 125.1Z" fill="#A6A6A6"/>
<path d="M121.3 127.3L123.9 124.9C124.2 124.6 124.4 124.2 124.4 123.8C124.4 123.5 124.3 123.1 124 122.8C123.7 122.5 123.3 122.3 122.9 122.3C122.5 122.3 122.2 122.4 121.9 122.7L121.6 122.9C121.5 123 121.4 123 121.3 122.9C121.2 122.8 121.2 122.7 121.3 122.6L121.6 122.3C122 122 122.4 121.8 122.8 121.8C123.3 121.8 123.8 122 124.1 122.4C124.4 122.8 124.6 123.2 124.6 123.6C124.6 124.1 124.4 124.6 124 125L121.8 127H124.4C124.5 127 124.6 127.1 124.6 127.2C124.6 127.3 124.5 127.4 124.4 127.4H121.3C121.2 127.4 121.2 127.4 121.2 127.3C121.2 127.5 121.2 127.4 121.3 127.3Z" fill="#A6A6A6"/>
<path d="M126.6 126.8C126.8 126.8 127 127 127 127.2C127 127.4 126.8 127.6 126.6 127.6C126.4 127.6 126.2 127.4 126.2 127.2C126.2 127 126.4 126.8 126.6 126.8Z" fill="#A6A6A6"/>
<path d="M128 127.1C127.9 127 127.9 126.9 128 126.8C128.1 126.7 128.2 126.7 128.3 126.8C128.6 127.1 129 127.2 129.4 127.2C129.8 127.2 130.2 127.1 130.5 126.8C130.8 126.5 130.9 126.1 130.9 125.7C130.9 125.3 130.8 124.9 130.5 124.6C130.2 124.3 129.8 124.2 129.4 124.2C129 124.2 128.6 124.3 128.3 124.6C128.2 124.7 128.1 124.7 128 124.6C128 124.6 128 124.6 128 124.5C128 124.5 128 124.5 128 124.4L128.3 122.1C128.3 122 128.3 122 128.4 122H128.5H131.1C131.2 122 131.3 122.1 131.3 122.2C131.3 122.3 131.2 122.4 131.1 122.4H128.7L128.5 124.1C128.8 123.9 129.1 123.8 129.5 123.8C130 123.8 130.5 124 130.8 124.4C131.2 124.8 131.4 125.2 131.4 125.7C131.4 126.2 131.2 126.7 130.8 127C130.4 127.4 129.9 127.6 129.5 127.6C128.8 127.6 128.3 127.5 128 127.1Z" fill="#A6A6A6"/>
<path d="M132.8 124.8C132.8 124 133 123.4 133.3 122.8C133.6 122.3 134.1 122 134.7 122C135.3 122 135.8 122.3 136.1 122.8C136.4 123.3 136.6 124 136.6 124.8C136.6 125.6 136.4 126.2 136.1 126.8C135.8 127.3 135.3 127.6 134.7 127.6C134.1 127.6 133.6 127.3 133.3 126.8C132.9 126.3 132.8 125.6 132.8 124.8ZM133.1 124.8C133.1 125.5 133.3 126.1 133.6 126.5C133.9 126.9 134.3 127.2 134.7 127.2C135.1 127.2 135.5 127 135.8 126.5C136.1 126.1 136.3 125.5 136.3 124.8C136.3 124.1 136.1 123.5 135.8 123.1C135.5 122.7 135.1 122.4 134.7 122.4C134.3 122.4 133.9 122.6 133.6 123.1C133.3 123.5 133.1 124.2 133.1 124.8Z" fill="#A6A6A6"/>
<path d="M192.4 74H164.4C159.982 74 156.4 77.5817 156.4 82V110C156.4 114.418 159.982 118 164.4 118H192.4C196.818 118 200.4 114.418 200.4 110V82C200.4 77.5817 196.818 74 192.4 74Z" fill="#FFD8D0"/>
<path d="M186.1 101.9C191.7 107.6 197.3 113.5 197.3 113.5C197 115 195.3 115.4 195.3 115.4C195.3 115.4 189.5 109.5 184 104C183.8 103.8 183.6 103.6 183.4 103.4C183.3 103.3 183.1 103.1 183 103C182.6 102.6 182.2 102.2 181.8 101.8C181.7 101.7 181.5 101.5 181.4 101.4C180.6 100.6 179.8 99.8 179.1 99C179 98.9 178.8 98.7 178.7 98.6C176.4 96.3 174.7 94.6 174.2 94C171.7 91.4 159.4 86.1 159.4 86.1C159.4 86.1 158.4 85.4 159.7 83.7C159.7 83.7 164.5 86 168.9 88.2L158.5 81.6C158.5 81.6 158.4 80.6 159.4 79.8L165.3 83.7L160 78.6C160 78.6 160.1 77.8 161.6 77.1L170.8 86.6L164.3 78C164.3 78 165 77.1 165.9 76.8C165.9 76.8 169.9 82.9 175.6 90.4L169.7 80.3C169.7 80.3 170.2 79.6 171.3 79.5C171.3 79.5 176 90.6 180.9 96.3C181 96.4 181.1 96.6 181.3 96.7C181.5 96.9 181.7 97.1 181.8 97.3C182.4 97.9 183 98.5 183.6 99.1C183.7 99.2 183.9 99.4 184 99.5C184.4 99.9 184.8 100.3 185.2 100.7C185.3 100.8 185.5 101 185.6 101.1C185.7 101.5 185.9 101.7 186.1 101.9Z" fill="white"/>
<path d="M171.2 79.8C171.2 79.8 175.9 90.9 180.8 96.6L178.7 98.6C176.4 96.3 174.7 94.6 174.2 94C171.7 91.4 159.4 86.1 159.4 86.1C159.4 86.1 158.4 85.4 159.7 83.7C159.7 83.7 164.5 86 168.9 88.2L158.5 81.6C158.5 81.6 158.4 80.6 159.4 79.8L165.3 83.7L160 78.6C160 78.6 160.1 77.8 161.6 77.1L170.8 86.6L164.3 78C164.3 78 165 77.1 165.9 76.8C165.9 76.8 169.9 82.9 175.6 90.4L169.7 80.3C169.6 80.6 170 79.9 171.2 79.8Z" fill="#455A64"/>
<path d="M183.5 99.4L181.4 101.4C180.6 100.6 179.8 99.8 179.1 99L181.2 97C181.4 97.2 181.6 97.4 181.7 97.6C182.3 98.2 182.9 98.8 183.5 99.4Z" fill="#455A64"/>
<path d="M185.1 100.9L183 102.9C182.6 102.5 182.2 102.1 181.8 101.7L183.9 99.7001C184.3 100.2 184.7 100.5 185.1 100.9Z" fill="#455A64"/>
<path d="M186.1 101.9L184 103.9C183.8 103.7 183.6 103.5 183.4 103.3L185.5 101.3C185.7 101.5 185.9 101.7 186.1 101.9Z" fill="#455A64"/>
<path d="M170.8 121.6C170.9 121.6 171 121.7 171 121.8V122.1C171.6 122.1 172 122.3 172.4 122.7C172.5 122.8 172.5 122.8 172.5 122.9C172.5 123 172.4 123.1 172.3 123.1C172.3 123.1 172.2 123.1 172.2 123C171.8 122.7 171.4 122.5 171 122.5V124.7C172.2 125 172.7 125.4 172.7 126.2C172.7 127 172 127.6 171 127.7V128.3C171 128.4 170.9 128.5 170.8 128.5C170.7 128.5 170.6 128.4 170.6 128.3V127.7C169.9 127.6 169.3 127.4 168.8 126.9C168.7 126.9 168.7 126.8 168.7 126.7C168.7 126.6 168.8 126.5 168.9 126.5C169 126.5 169 126.5 169 126.6C169.4 127 169.9 127.3 170.6 127.3V125C169.4 124.7 168.9 124.3 168.9 123.5C168.9 122.7 169.6 122.1 170.6 122.1V121.8C170.6 121.6 170.6 121.6 170.8 121.6ZM170.6 124.6V122.4C169.8 122.4 169.3 122.9 169.3 123.5C169.3 124 169.5 124.3 170.6 124.6ZM170.9 125.1V127.3C171.7 127.3 172.2 126.8 172.2 126.2C172.2 125.6 172 125.3 170.9 125.1Z" fill="#A6A6A6"/>
<path d="M174.6 122.6L173.8 123.1H173.7C173.6 123.1 173.6 123.1 173.5 123C173.4 122.9 173.5 122.8 173.6 122.7L174.7 122C174.8 122 174.9 122 175 122.1V122.2V127.3C175 127.4 174.9 127.5 174.8 127.5C174.7 127.5 174.6 127.4 174.6 127.3V122.6Z" fill="#A6A6A6"/>
<path d="M177 126.8C177.2 126.8 177.4 127 177.4 127.2C177.4 127.4 177.2 127.6 177 127.6C176.8 127.6 176.6 127.4 176.6 127.2C176.6 127 176.8 126.8 177 126.8Z" fill="#A6A6A6"/>
<path d="M178.1 124.8C178.1 124 178.3 123.4 178.6 122.8C178.9 122.3 179.4 122 180 122C180.6 122 181.1 122.3 181.4 122.8C181.7 123.3 181.9 124 181.9 124.8C181.9 125.6 181.7 126.2 181.4 126.8C181.1 127.3 180.6 127.6 180 127.6C179.4 127.6 178.9 127.3 178.6 126.8C178.3 126.3 178.1 125.6 178.1 124.8ZM178.5 124.8C178.5 125.5 178.7 126.1 179 126.5C179.3 126.9 179.7 127.2 180.1 127.2C180.5 127.2 180.9 127 181.2 126.5C181.5 126.1 181.7 125.5 181.7 124.8C181.7 124.1 181.5 123.5 181.2 123.1C180.9 122.7 180.5 122.4 180.1 122.4C179.7 122.4 179.3 122.6 179 123.1C178.7 123.5 178.5 124.2 178.5 124.8Z" fill="#A6A6A6"/>
<path d="M183.8 124.8C183.8 124 184 123.4 184.3 122.8C184.6 122.3 185.1 122 185.7 122C186.3 122 186.8 122.3 187.1 122.8C187.4 123.3 187.6 124 187.6 124.8C187.6 125.6 187.4 126.2 187.1 126.8C186.8 127.3 186.3 127.6 185.7 127.6C185.1 127.6 184.6 127.3 184.3 126.8C184 126.3 183.8 125.6 183.8 124.8ZM184.2 124.8C184.2 125.5 184.4 126.1 184.7 126.5C185 126.9 185.4 127.2 185.8 127.2C186.2 127.2 186.6 127 186.9 126.5C187.2 126.1 187.4 125.5 187.4 124.8C187.4 124.1 187.2 123.5 186.9 123.1C186.6 122.7 186.2 122.4 185.8 122.4C185.4 122.4 185 122.6 184.7 123.1C184.4 123.5 184.2 124.2 184.2 124.8Z" fill="#A6A6A6"/>
<path d="M244.3 74H216.3C211.882 74 208.3 77.5817 208.3 82V110C208.3 114.418 211.882 118 216.3 118H244.3C248.718 118 252.3 114.418 252.3 110V82C252.3 77.5817 248.718 74 244.3 74Z" fill="#FFD8D0"/>
<path d="M217.2 101.3C220.6 112.5 231.2 111.1 234.2 110.2C237.2 109.3 246.7 104.6 243.3 93.3C239.9 82.1 228.6 84.7 226.6 85.3C224.3 86 213.8 90.1 217.2 101.3Z" fill="white"/>
<path d="M227.6 86.9C227.6 86.9 228.1 91.1 235.5 88.6C235.4 88.6 230.4 83.2 227.6 86.9Z" fill="#455A64"/>
<path d="M228.3 88.6C228.3 88.6 231.8 88.8 230.8 82.5C230.8 82.5 225.8 85.8 228.3 88.6Z" fill="#455A64"/>
<path d="M228 87.4999C228 87.4999 226.8 90.7999 221.4 87.2999C221.4 87.2999 226.5 83.9999 228 87.4999Z" fill="#455A64"/>
<path d="M227.8 86.7C227.8 86.7 224.6 89.4 230.8 94.2C230.8 94.1 232.4 87 227.8 86.7Z" fill="#455A64"/>
<path d="M227.4 87.2999C227.4 87.2999 222.7 85.9999 223.3 93.9999C223.4 93.9999 230.5 91.4999 227.4 87.2999Z" fill="#455A64"/>
<path d="M228.2 88.3C228.2 88.3 228.8 84.1 225.3 81.2C225.3 81.2 223.3 81.2 222.8 83.3C222.8 83.3 226.8 85.5 227.1 89.2L228 88.6" fill="#263238"/>
<path d="M222.8 121.6C222.9 121.6 223 121.7 223 121.8V122.1C223.6 122.1 224 122.3 224.4 122.7C224.5 122.8 224.5 122.8 224.5 122.9C224.5 123 224.4 123.1 224.3 123.1C224.3 123.1 224.2 123.1 224.2 123C223.8 122.7 223.4 122.5 223 122.5V124.7C224.2 125 224.7 125.4 224.7 126.2C224.7 127 224 127.6 223 127.7V128.3C223 128.4 222.9 128.5 222.8 128.5C222.7 128.5 222.6 128.4 222.6 128.3V127.7C221.9 127.6 221.3 127.4 220.8 126.9C220.7 126.9 220.7 126.8 220.7 126.7C220.7 126.6 220.8 126.5 220.9 126.5C221 126.5 221 126.5 221 126.6C221.4 127 221.9 127.3 222.6 127.3V125C221.4 124.7 220.9 124.3 220.9 123.5C220.9 122.7 221.6 122.1 222.6 122.1V121.8C222.6 121.6 222.7 121.6 222.8 121.6ZM222.6 124.6V122.4C221.8 122.4 221.3 122.9 221.3 123.5C221.4 124 221.6 124.3 222.6 124.6ZM223 125.1V127.3C223.8 127.3 224.3 126.8 224.3 126.2C224.3 125.6 224 125.3 223 125.1Z" fill="#A6A6A6"/>
<path d="M226.7 122.6L225.9 123.1H225.8C225.7 123.1 225.7 123.1 225.6 123C225.5 122.9 225.6 122.8 225.7 122.7L226.8 122C226.9 122 227 122 227.1 122.1V122.2V127.3C227.1 127.4 227 127.5 226.9 127.5C226.8 127.5 226.7 127.4 226.7 127.3V122.6Z" fill="#A6A6A6"/>
<path d="M229 126.8C229.2 126.8 229.4 127 229.4 127.2C229.4 127.4 229.2 127.6 229 127.6C228.8 127.6 228.6 127.4 228.6 127.2C228.6 127 228.8 126.8 229 126.8Z" fill="#A6A6A6"/>
<path d="M230.4 127.1C230.3 127 230.3 126.9 230.4 126.8C230.5 126.7 230.6 126.7 230.7 126.8C231 127.1 231.4 127.2 231.8 127.2C232.2 127.2 232.6 127.1 232.9 126.8C233.2 126.5 233.3 126.1 233.3 125.7C233.3 125.3 233.2 124.9 232.9 124.6C232.6 124.3 232.2 124.2 231.8 124.2C231.4 124.2 231 124.3 230.7 124.6C230.6 124.7 230.5 124.7 230.4 124.6C230.4 124.6 230.4 124.6 230.4 124.5C230.4 124.5 230.4 124.5 230.4 124.4L230.7 122.1C230.7 122 230.7 122 230.8 122H230.9H233.5C233.6 122 233.7 122.1 233.7 122.2C233.7 122.3 233.6 122.4 233.5 122.4H231L230.8 124.1C231.1 123.9 231.4 123.8 231.8 123.8C232.3 123.8 232.8 124 233.1 124.4C233.5 124.8 233.7 125.2 233.7 125.7C233.7 126.2 233.5 126.7 233.1 127C232.7 127.4 232.2 127.6 231.8 127.6C231.2 127.6 230.8 127.5 230.4 127.1Z" fill="#A6A6A6"/>
<path d="M235.2 124.8C235.2 124 235.4 123.4 235.7 122.8C236 122.3 236.5 122 237.1 122C237.7 122 238.2 122.3 238.5 122.8C238.8 123.3 239 124 239 124.8C239 125.6 238.8 126.2 238.5 126.8C238.2 127.3 237.7 127.6 237.1 127.6C236.5 127.6 236 127.3 235.7 126.8C235.4 126.3 235.2 125.6 235.2 124.8ZM235.6 124.8C235.6 125.5 235.8 126.1 236.1 126.5C236.4 126.9 236.8 127.2 237.2 127.2C237.6 127.2 238 127 238.3 126.5C238.6 126.1 238.8 125.5 238.8 124.8C238.8 124.1 238.6 123.5 238.3 123.1C238 122.7 237.6 122.4 237.2 122.4C236.8 122.4 236.4 122.6 236.1 123.1C235.8 123.5 235.6 124.2 235.6 124.8Z" fill="#A6A6A6"/>
<path d="M140.4 138.2H112.4C107.982 138.2 104.4 141.782 104.4 146.2V174.2C104.4 178.618 107.982 182.2 112.4 182.2H140.4C144.818 182.2 148.4 178.618 148.4 174.2V146.2C148.4 141.782 144.818 138.2 140.4 138.2Z" fill="#FFD8D0"/>
<path d="M138.6 156.4V178.1C138.6 179.4 135.9 180.2 126.8 180.2C117.7 180.2 115.1 179.4 115.1 178.1V156.4C115.1 150.6 121.5 146.9 121.5 145.7C121.5 144.5 121.5 141.3 121.5 141.3H132.2C132.2 141.3 132.2 144.5 132.2 145.7C132.2 146.9 138.6 150.6 138.6 156.4Z" fill="white"/>
<path d="M132.9 139.4H120.9V143.1H132.9V139.4Z" fill="#37474F"/>
<path d="M138.6 162.2H115.1V173.9H138.6V162.2Z" fill="#37474F"/>
<path d="M117.9 186.1C118 186.1 118.1 186.2 118.1 186.3V186.6C118.7 186.6 119.1 186.8 119.5 187.2C119.6 187.3 119.6 187.3 119.6 187.4C119.6 187.5 119.5 187.6 119.4 187.6C119.4 187.6 119.3 187.6 119.3 187.5C118.9 187.2 118.5 187 118.1 187V189.2C119.3 189.5 119.8 189.9 119.8 190.7C119.8 191.5 119.1 192.1 118.1 192.2V192.8C118.1 192.9 118 193 117.9 193C117.8 193 117.7 192.9 117.7 192.8V192.2C117 192.1 116.4 191.9 115.9 191.4C115.8 191.4 115.8 191.3 115.8 191.2C115.8 191.1 115.9 191 116 191C116.1 191 116.1 191 116.1 191.1C116.5 191.5 117 191.8 117.7 191.8V189.5C116.5 189.2 116 188.8 116 188C116 187.2 116.7 186.6 117.7 186.6V186.3C117.7 186.2 117.8 186.1 117.9 186.1ZM117.8 189.1V186.9C117 186.9 116.5 187.4 116.5 188C116.5 188.5 116.7 188.9 117.8 189.1ZM118.1 189.6V191.8C118.9 191.8 119.4 191.3 119.4 190.7C119.4 190.2 119.1 189.8 118.1 189.6Z" fill="#A6A6A6"/>
<path d="M124.2 186.9L122.8 188.4C123.2 188.5 123.5 188.6 123.8 188.9C124.2 189.3 124.4 189.8 124.4 190.2C124.4 190.7 124.2 191.2 123.8 191.5C123.4 191.9 122.9 192.1 122.5 192.1C122 192.1 121.5 191.9 121.2 191.5C121.1 191.4 121.1 191.3 121.2 191.2C121.3 191.1 121.4 191.1 121.5 191.2C121.8 191.5 122.2 191.6 122.6 191.6C123 191.6 123.4 191.5 123.7 191.2C124 190.9 124.1 190.5 124.1 190.1C124.1 189.7 124 189.3 123.7 189C123.4 188.7 123 188.6 122.6 188.6C122.5 188.6 122.5 188.6 122.4 188.5C122.3 188.4 122.3 188.3 122.4 188.2L123.8 186.8H121.7C121.6 186.8 121.5 186.7 121.5 186.6C121.5 186.5 121.6 186.4 121.7 186.4H124.3C124.4 186.4 124.5 186.5 124.5 186.6C124.3 186.8 124.3 186.8 124.2 186.9C124.3 186.9 124.3 186.9 124.2 186.9Z" fill="#A6A6A6"/>
<path d="M126.4 191.4C126.6 191.4 126.8 191.6 126.8 191.8C126.8 192 126.6 192.2 126.4 192.2C126.2 192.2 126 192 126 191.8C126 191.5 126.1 191.4 126.4 191.4Z" fill="#A6A6A6"/>
<path d="M127.5 189.4C127.5 188.6 127.7 188 128 187.4C128.3 186.9 128.8 186.6 129.4 186.6C130 186.6 130.5 186.9 130.8 187.4C131.1 187.9 131.3 188.6 131.3 189.4C131.3 190.2 131.1 190.8 130.8 191.4C130.5 191.9 130 192.2 129.4 192.2C128.8 192.2 128.3 191.9 128 191.4C127.7 190.8 127.5 190.1 127.5 189.4ZM127.9 189.4C127.9 190.1 128.1 190.7 128.4 191.1C128.7 191.5 129.1 191.8 129.5 191.8C129.9 191.8 130.3 191.6 130.6 191.1C130.9 190.7 131.1 190.1 131.1 189.4C131.1 188.7 130.9 188.1 130.6 187.7C130.3 187.3 129.9 187 129.5 187C129.1 187 128.7 187.2 128.4 187.7C128.1 188.1 127.9 188.7 127.9 189.4Z" fill="#A6A6A6"/>
<path d="M133.2 189.4C133.2 188.6 133.4 188 133.7 187.4C134 186.9 134.5 186.6 135.1 186.6C135.7 186.6 136.2 186.9 136.5 187.4C136.8 187.9 137 188.6 137 189.4C137 190.2 136.8 190.8 136.5 191.4C136.2 191.9 135.7 192.2 135.1 192.2C134.5 192.2 134 191.9 133.7 191.4C133.4 190.8 133.2 190.1 133.2 189.4ZM133.6 189.4C133.6 190.1 133.8 190.7 134.1 191.1C134.4 191.5 134.8 191.8 135.2 191.8C135.6 191.8 136 191.6 136.3 191.1C136.6 190.7 136.8 190.1 136.8 189.4C136.8 188.7 136.6 188.1 136.3 187.7C136 187.3 135.6 187 135.2 187C134.8 187 134.4 187.2 134.1 187.7C133.8 188.1 133.6 188.7 133.6 189.4Z" fill="#A6A6A6"/>
<path d="M192.4 138.2H164.4C159.982 138.2 156.4 141.782 156.4 146.2V174.2C156.4 178.618 159.982 182.2 164.4 182.2H192.4C196.818 182.2 200.4 178.618 200.4 174.2V146.2C200.4 141.782 196.818 138.2 192.4 138.2Z" fill="#FFD8D0"/>
<path d="M187.7 147.7H169.4V180.2H187.7V147.7Z" fill="white"/>
<path d="M187.7 147.7H169.4V180.2H187.7V147.7Z" fill="white"/>
<path d="M187.7 159.7H169.4V173.4H187.7V159.7Z" fill="#455A64"/>
<path d="M187.7 147.7H169.4L171.7 143.2H185.5L187.7 147.7Z" fill="white"/>
<path d="M187.7 147.7H169.4L171.7 143.2H185.5L187.7 147.7Z" fill="#DBDBDB"/>
<path d="M185.4 139.4H171.6V143.2H185.4V139.4Z" fill="white"/>
<path d="M170.1 186.1C170.2 186.1 170.3 186.2 170.3 186.3V186.6C170.9 186.6 171.3 186.8 171.7 187.2C171.8 187.3 171.8 187.3 171.8 187.4C171.8 187.5 171.7 187.6 171.6 187.6C171.6 187.6 171.5 187.6 171.5 187.5C171.1 187.2 170.7 187 170.3 187V189.2C171.5 189.5 172 189.9 172 190.7C172 191.5 171.3 192.1 170.3 192.2V192.8C170.3 192.9 170.2 193 170.1 193C170 193 169.9 192.9 169.9 192.8V192.2C169.2 192.1 168.6 191.9 168.1 191.4C168 191.4 168 191.3 168 191.2C168 191.1 168.1 191 168.2 191C168.3 191 168.3 191 168.3 191.1C168.7 191.5 169.2 191.8 169.9 191.8V189.5C168.7 189.2 168.2 188.8 168.2 188C168.2 187.2 168.9 186.6 169.9 186.6V186.3C169.9 186.2 170 186.1 170.1 186.1ZM169.9 189.1V186.9C169.1 186.9 168.6 187.4 168.6 188C168.6 188.5 168.9 188.9 169.9 189.1ZM170.2 189.6V191.8C171 191.8 171.5 191.3 171.5 190.7C171.6 190.2 171.3 189.8 170.2 189.6Z" fill="#A6A6A6"/>
<path d="M173 191.8L175.6 189.4C175.9 189.1 176.1 188.7 176.1 188.3C176.1 188 176 187.6 175.7 187.3C175.4 187 175 186.8 174.6 186.8C174.2 186.8 173.9 186.9 173.6 187.2L173.3 187.4C173.2 187.5 173.1 187.5 173 187.4C172.9 187.3 172.9 187.2 173 187.1L173.3 186.8C173.7 186.5 174.1 186.3 174.5 186.3C175 186.3 175.5 186.5 175.8 186.9C176.1 187.3 176.3 187.7 176.3 188.1C176.3 188.6 176.1 189.1 175.7 189.5L173.5 191.5H176.1C176.2 191.5 176.3 191.6 176.3 191.7C176.3 191.8 176.2 191.9 176.1 191.9H173C172.9 191.9 172.9 191.9 172.9 191.8C172.9 192 172.9 191.9 173 191.8Z" fill="#A6A6A6"/>
<path d="M178.3 191.4C178.5 191.4 178.7 191.6 178.7 191.8C178.7 192 178.5 192.2 178.3 192.2C178.1 192.2 177.9 192 177.9 191.8C177.9 191.5 178.1 191.4 178.3 191.4Z" fill="#A6A6A6"/>
<path d="M179.7 191.6C179.6 191.5 179.6 191.4 179.7 191.3C179.8 191.2 179.9 191.2 180 191.3C180.3 191.6 180.7 191.7 181.1 191.7C181.5 191.7 181.9 191.6 182.2 191.3C182.5 191 182.6 190.6 182.6 190.2C182.6 189.8 182.5 189.4 182.2 189.1C181.9 188.8 181.5 188.7 181.1 188.7C180.7 188.7 180.3 188.8 180 189.1C179.9 189.2 179.8 189.2 179.7 189.1C179.7 189.1 179.7 189.1 179.7 189C179.7 189 179.7 189 179.7 188.9L180 186.6C180 186.5 180 186.5 180.1 186.5H180.2H182.8C182.9 186.5 183 186.6 183 186.7C183 186.8 182.9 186.9 182.8 186.9H180.4L180.2 188.6C180.5 188.4 180.8 188.3 181.2 188.3C181.7 188.3 182.2 188.5 182.5 188.9C182.9 189.3 183.1 189.7 183.1 190.2C183.1 190.7 182.9 191.2 182.5 191.5C182.1 191.9 181.6 192.1 181.2 192.1C180.5 192.2 180 192 179.7 191.6Z" fill="#A6A6A6"/>
<path d="M184.5 189.4C184.5 188.6 184.7 188 185 187.4C185.3 186.9 185.8 186.6 186.4 186.6C187 186.6 187.5 186.9 187.8 187.4C188.1 187.9 188.3 188.6 188.3 189.4C188.3 190.2 188.1 190.8 187.8 191.4C187.5 191.9 187 192.2 186.4 192.2C185.8 192.2 185.3 191.9 185 191.4C184.7 190.8 184.5 190.1 184.5 189.4ZM184.9 189.4C184.9 190.1 185.1 190.7 185.4 191.1C185.7 191.5 186.1 191.8 186.5 191.8C186.9 191.8 187.3 191.6 187.6 191.1C187.9 190.7 188.1 190.1 188.1 189.4C188.1 188.7 187.9 188.1 187.6 187.7C187.3 187.3 186.9 187 186.5 187C186.1 187 185.7 187.2 185.4 187.7C185.1 188.1 184.9 188.7 184.9 189.4Z" fill="#A6A6A6"/>
<path d="M244.3 138.2H216.3C211.882 138.2 208.3 141.782 208.3 146.2V174.2C208.3 178.618 211.882 182.2 216.3 182.2H244.3C248.718 182.2 252.3 178.618 252.3 174.2V146.2C252.3 141.782 248.718 138.2 244.3 138.2Z" fill="#FFD8D0"/>
<path d="M238.8 156.4V178.1C238.8 179.4 236.9 180.2 230.3 180.2C223.8 180.2 221.8 179.4 221.8 178.1V156.4C221.8 150.6 226.4 146.9 226.4 145.7C226.4 144.6 226.4 141.3 226.4 141.3H234.1C234.1 141.3 234.1 144.5 234.1 145.7C234.2 146.9 238.8 150.6 238.8 156.4Z" fill="white"/>
<path d="M234.6 139.4H226V143.1H234.6V139.4Z" fill="#455A64"/>
<path d="M236.3 163.8H224.2V172.2H236.3V163.8Z" fill="#DBDBDB"/>
<path d="M221.5 186.1C221.6 186.1 221.7 186.2 221.7 186.3V186.6C222.3 186.6 222.7 186.8 223.1 187.2C223.2 187.3 223.2 187.3 223.2 187.4C223.2 187.5 223.1 187.6 223 187.6C223 187.6 222.9 187.6 222.9 187.5C222.5 187.2 222.1 187 221.7 187V189.2C222.9 189.5 223.4 189.9 223.4 190.7C223.4 191.5 222.7 192.1 221.7 192.2V192.8C221.7 192.9 221.6 193 221.5 193C221.4 193 221.3 192.9 221.3 192.8V192.2C220.6 192.1 220 191.9 219.5 191.4C219.4 191.4 219.4 191.3 219.4 191.2C219.4 191.1 219.5 191 219.6 191C219.7 191 219.7 191 219.7 191.1C220.1 191.5 220.6 191.8 221.3 191.8V189.5C220.1 189.2 219.6 188.8 219.6 188C219.6 187.2 220.3 186.6 221.3 186.6V186.3C221.3 186.2 221.4 186.1 221.5 186.1ZM221.3 189.1V186.9C220.5 186.9 220 187.4 220 188C220 188.5 220.3 188.9 221.3 189.1ZM221.6 189.6V191.8C222.4 191.8 222.9 191.3 222.9 190.7C223 190.2 222.7 189.8 221.6 189.6Z" fill="#A6A6A6"/>
<path d="M224.4 191.8L227 189.4C227.3 189.1 227.5 188.7 227.5 188.3C227.5 188 227.4 187.6 227.1 187.3C226.8 187 226.4 186.8 226 186.8C225.6 186.8 225.3 186.9 225 187.2L224.7 187.4C224.6 187.5 224.5 187.5 224.4 187.4C224.3 187.3 224.3 187.2 224.4 187.1L224.7 186.8C225.1 186.5 225.5 186.3 225.9 186.3C226.4 186.3 226.9 186.5 227.2 186.9C227.5 187.3 227.7 187.7 227.7 188.1C227.7 188.6 227.5 189.1 227.1 189.5L224.9 191.5H227.5C227.6 191.5 227.7 191.6 227.7 191.7C227.7 191.8 227.6 191.9 227.5 191.9H224.4C224.3 191.9 224.3 191.9 224.3 191.8C224.3 192 224.3 191.9 224.4 191.8Z" fill="#A6A6A6"/>
<path d="M229.7 191.4C229.9 191.4 230.1 191.6 230.1 191.8C230.1 192 229.9 192.2 229.7 192.2C229.5 192.2 229.3 192 229.3 191.8C229.3 191.5 229.5 191.4 229.7 191.4Z" fill="#A6A6A6"/>
<path d="M230.9 189.4C230.9 188.6 231.1 188 231.4 187.4C231.7 186.9 232.2 186.6 232.8 186.6C233.4 186.6 233.9 186.9 234.2 187.4C234.5 187.9 234.7 188.6 234.7 189.4C234.7 190.2 234.5 190.8 234.2 191.4C233.9 191.9 233.4 192.2 232.8 192.2C232.2 192.2 231.7 191.9 231.4 191.4C231.1 190.8 230.9 190.1 230.9 189.4ZM231.3 189.4C231.3 190.1 231.5 190.7 231.8 191.1C232.1 191.5 232.5 191.8 232.9 191.8C233.3 191.8 233.7 191.6 234 191.1C234.3 190.7 234.5 190.1 234.5 189.4C234.5 188.7 234.3 188.1 234 187.7C233.7 187.3 233.3 187 232.9 187C232.5 187 232.1 187.2 231.8 187.7C231.4 188.1 231.3 188.7 231.3 189.4Z" fill="#A6A6A6"/>
<path d="M236.5 189.4C236.5 188.6 236.7 188 237 187.4C237.3 186.9 237.8 186.6 238.4 186.6C239 186.6 239.5 186.9 239.8 187.4C240.1 187.9 240.3 188.6 240.3 189.4C240.3 190.2 240.1 190.8 239.8 191.4C239.5 191.9 239 192.2 238.4 192.2C237.8 192.2 237.3 191.9 237 191.4C236.7 190.8 236.5 190.1 236.5 189.4ZM236.9 189.4C236.9 190.1 237.1 190.7 237.4 191.1C237.7 191.5 238.1 191.8 238.5 191.8C238.9 191.8 239.3 191.6 239.6 191.1C239.9 190.7 240.1 190.1 240.1 189.4C240.1 188.7 239.9 188.1 239.6 187.7C239.3 187.3 238.9 187 238.5 187C238.1 187 237.7 187.2 237.4 187.7C237.1 188.1 236.9 188.7 236.9 189.4Z" fill="#A6A6A6"/>
<path d="M140.4 220.5H112.4C107.982 220.5 104.4 224.082 104.4 228.5V256.5C104.4 260.918 107.982 264.5 112.4 264.5H140.4C144.818 264.5 148.4 260.918 148.4 256.5V228.5C148.4 224.082 144.818 220.5 140.4 220.5Z" fill="#FFD8D0"/>
<path d="M116.2 243.2C116.2 250.9 119.3 263 119.7 263H132.6C133 263 137.4 252.7 137.4 242.3C137.4 231.5 129.9 229.6 129.9 228.9V227C129.9 225.9 129.9 224.6 129.9 224.6H122.3C122.3 224.6 122.3 225.8 122.3 227V228.8C122.3 229.6 116.2 233.6 116.2 243.2ZM130.7 232.4C134.4 232.4 137.4 242.5 134.7 243.5C130.9 244.9 127.3 232.4 130.7 232.4Z" fill="white"/>
<path d="M127.1 232.4C127.3 229.8 121.6 230.4 119.2 238.9C117.4 245.3 119.4 258.6 125.8 258.6C133.4 258.6 133.9 247.4 133.4 246.9C133 246.4 126.2 244 127.1 232.4Z" fill="#EBEBEB"/>
<path d="M120.8 227H131.5L130.8 222.3H121.5L120.8 227Z" fill="#455A64"/>
<path d="M117.9 270C118 270 118.1 270.1 118.1 270.2V270.5C118.7 270.5 119.1 270.7 119.5 271.1C119.6 271.2 119.6 271.2 119.6 271.3C119.6 271.4 119.5 271.5 119.4 271.5C119.4 271.5 119.3 271.5 119.3 271.4C118.9 271.1 118.5 270.9 118.1 270.9V273.1C119.3 273.4 119.8 273.8 119.8 274.6C119.8 275.4 119.1 276 118.1 276.1V276.7C118.1 276.8 118 276.9 117.9 276.9C117.8 276.9 117.7 276.8 117.7 276.7V276.1C117 276 116.4 275.8 115.9 275.3C115.8 275.3 115.8 275.2 115.8 275.1C115.8 275 115.9 274.9 116 274.9C116.1 274.9 116.1 274.9 116.1 275C116.5 275.4 117 275.7 117.7 275.7V273.4C116.5 273.1 116 272.7 116 271.9C116 271.1 116.7 270.5 117.7 270.5V270.2C117.8 270.1 117.8 270 117.9 270ZM117.8 273.1V270.9C117 270.9 116.5 271.4 116.5 272C116.5 272.5 116.7 272.8 117.8 273.1ZM118.1 273.6V275.8C118.9 275.8 119.4 275.3 119.4 274.7C119.4 274.1 119.2 273.8 118.1 273.6Z" fill="#A6A6A6"/>
<path d="M121 275.6C120.9 275.5 120.9 275.4 121 275.3C121.1 275.2 121.2 275.2 121.3 275.3C121.6 275.6 122 275.7 122.4 275.7C122.8 275.7 123.2 275.6 123.5 275.3C123.8 275 123.9 274.6 123.9 274.2C123.9 273.8 123.8 273.4 123.5 273.1C123.2 272.8 122.8 272.7 122.4 272.7C122 272.7 121.6 272.8 121.3 273.1C121.2 273.2 121.1 273.2 121 273.1C121 273.1 121 273.1 121 273C121 273 121 273 121 272.9L121.3 270.6C121.3 270.5 121.3 270.5 121.4 270.5H121.5H124.1C124.2 270.5 124.3 270.6 124.3 270.7C124.3 270.8 124.2 270.9 124.1 270.9H121.7L121.5 272.6C121.8 272.4 122.1 272.3 122.5 272.3C123 272.3 123.5 272.5 123.8 272.9C124.2 273.3 124.4 273.7 124.4 274.2C124.4 274.7 124.2 275.2 123.8 275.5C123.4 275.9 122.9 276.1 122.5 276.1C121.9 276.1 121.4 276 121 275.6Z" fill="#A6A6A6"/>
<path d="M126.3 275.3C126.5 275.3 126.7 275.5 126.7 275.7C126.7 275.9 126.5 276.1 126.3 276.1C126.1 276.1 125.9 275.9 125.9 275.7C125.9 275.5 126.1 275.3 126.3 275.3Z" fill="#A6A6A6"/>
<path d="M127.5 273.3C127.5 272.5 127.7 271.9 128 271.3C128.3 270.8 128.8 270.5 129.4 270.5C130 270.5 130.5 270.8 130.8 271.3C131.1 271.8 131.3 272.5 131.3 273.3C131.3 274.1 131.1 274.7 130.8 275.3C130.5 275.8 130 276.1 129.4 276.1C128.8 276.1 128.3 275.8 128 275.3C127.7 274.8 127.5 274.1 127.5 273.3ZM127.9 273.3C127.9 274 128.1 274.6 128.4 275C128.7 275.4 129.1 275.7 129.5 275.7C129.9 275.7 130.3 275.5 130.6 275C130.9 274.6 131.1 274 131.1 273.3C131.1 272.6 130.9 272 130.6 271.6C130.3 271.2 129.9 270.9 129.5 270.9C129.1 270.9 128.7 271.1 128.4 271.6C128.1 272 127.9 272.7 127.9 273.3Z" fill="#A6A6A6"/>
<path d="M133.2 273.3C133.2 272.5 133.4 271.9 133.7 271.3C134 270.8 134.5 270.5 135.1 270.5C135.7 270.5 136.2 270.8 136.5 271.3C136.8 271.8 137 272.5 137 273.3C137 274.1 136.8 274.7 136.5 275.3C136.2 275.8 135.7 276.1 135.1 276.1C134.5 276.1 134 275.8 133.7 275.3C133.3 274.8 133.2 274.1 133.2 273.3ZM133.5 273.3C133.5 274 133.7 274.6 134 275C134.3 275.4 134.7 275.7 135.1 275.7C135.5 275.7 135.9 275.5 136.2 275C136.5 274.6 136.7 274 136.7 273.3C136.7 272.6 136.5 272 136.2 271.6C135.9 271.2 135.5 270.9 135.1 270.9C134.7 270.9 134.3 271.1 134 271.6C133.7 272 133.5 272.7 133.5 273.3Z" fill="#A6A6A6"/>
<path d="M192.4 220.5H164.4C159.982 220.5 156.4 224.082 156.4 228.5V256.5C156.4 260.918 159.982 264.5 164.4 264.5H192.4C196.818 264.5 200.4 260.918 200.4 256.5V228.5C200.4 224.082 196.818 220.5 192.4 220.5Z" fill="#FFD8D0"/>
<path d="M191.1 256.4H165.8C163.3 256.4 161.2 254.4 161.2 251.8V236.5C161.2 234 163.2 231.9 165.8 231.9H191.1C193.6 231.9 195.7 233.9 195.7 236.5V251.8C195.7 254.3 193.6 256.4 191.1 256.4Z" fill="white"/>
<path d="M191.8 228.9H165.2V232H191.8V228.9Z" fill="#455A64"/>
<path d="M195.8 237.9H161.2V250.5H195.8V237.9Z" fill="#455A64"/>
<path d="M189 244.1C189 247 184.3 249.4 178.5 249.4C172.7 249.4 168 247 168 244.1C168 241.2 172.7 238.8 178.5 238.8C184.3 238.8 189 241.2 189 244.1Z" fill="white"/>
<path d="M169.8 270C169.9 270 170 270.1 170 270.2V270.5C170.6 270.5 171 270.7 171.4 271.1C171.5 271.2 171.5 271.2 171.5 271.3C171.5 271.4 171.4 271.5 171.3 271.5C171.3 271.5 171.2 271.5 171.2 271.4C170.8 271.1 170.4 270.9 170 270.9V273.1C171.2 273.4 171.7 273.8 171.7 274.6C171.7 275.4 171 276 170 276.1V276.7C170 276.8 169.9 276.9 169.8 276.9C169.7 276.9 169.6 276.8 169.6 276.7V276.1C168.9 276 168.3 275.8 167.8 275.3C167.7 275.3 167.7 275.2 167.7 275.1C167.7 275 167.8 274.9 167.9 274.9C168 274.9 168 274.9 168 275C168.4 275.4 168.9 275.7 169.6 275.7V273.4C168.4 273.1 167.9 272.7 167.9 271.9C167.9 271.1 168.6 270.5 169.6 270.5V270.2C169.6 270.1 169.7 270 169.8 270ZM169.6 273.1V270.9C168.8 270.9 168.3 271.4 168.3 272C168.3 272.5 168.6 272.8 169.6 273.1ZM170 273.6V275.8C170.8 275.8 171.3 275.3 171.3 274.7C171.3 274.1 171 273.8 170 273.6Z" fill="#A6A6A6"/>
<path d="M175.9 275H172.9H172.8C172.7 274.9 172.7 274.8 172.8 274.7L176 270.7C176.1 270.6 176.2 270.6 176.3 270.7C176.3 270.7 176.3 270.8 176.4 270.8V274.6H176.8C176.9 274.6 177 274.7 177 274.8C177 274.9 176.9 275 176.8 275H176.4V276C176.4 276.1 176.3 276.2 176.2 276.2C176.1 276.2 176 276.1 176 276V275H175.9ZM175.9 274.6V271.3L173.3 274.6H175.9Z" fill="#A6A6A6"/>
<path d="M178.6 275.3C178.8 275.3 179 275.5 179 275.7C179 275.9 178.8 276.1 178.6 276.1C178.4 276.1 178.2 275.9 178.2 275.7C178.2 275.5 178.4 275.3 178.6 275.3Z" fill="#A6A6A6"/>
<path d="M180 275.6C179.9 275.5 179.9 275.4 180 275.3C180.1 275.2 180.2 275.2 180.3 275.3C180.6 275.6 181 275.7 181.4 275.7C181.8 275.7 182.2 275.6 182.5 275.3C182.8 275 182.9 274.6 182.9 274.2C182.9 273.8 182.8 273.4 182.5 273.1C182.2 272.8 181.8 272.7 181.4 272.7C181 272.7 180.6 272.8 180.3 273.1C180.2 273.2 180.1 273.2 180 273.1C180 273.1 180 273.1 180 273C180 273 180 273 180 272.9L180.3 270.6C180.3 270.5 180.3 270.5 180.4 270.5H180.5H183.1C183.2 270.5 183.3 270.6 183.3 270.7C183.3 270.8 183.2 270.9 183.1 270.9H180.7L180.5 272.6C180.8 272.4 181.1 272.3 181.5 272.3C182 272.3 182.5 272.5 182.8 272.9C183.2 273.3 183.4 273.7 183.4 274.2C183.4 274.7 183.2 275.2 182.8 275.5C182.4 275.9 181.9 276.1 181.5 276.1C180.8 276.1 180.3 276 180 275.6Z" fill="#A6A6A6"/>
<path d="M184.8 273.3C184.8 272.5 185 271.9 185.3 271.3C185.6 270.8 186.1 270.5 186.7 270.5C187.3 270.5 187.8 270.8 188.1 271.3C188.4 271.8 188.6 272.5 188.6 273.3C188.6 274.1 188.4 274.7 188.1 275.3C187.8 275.8 187.3 276.1 186.7 276.1C186.1 276.1 185.6 275.8 185.3 275.3C185 274.8 184.8 274.1 184.8 273.3ZM185.2 273.3C185.2 274 185.4 274.6 185.7 275C186 275.4 186.4 275.7 186.8 275.7C187.2 275.7 187.6 275.5 187.9 275C188.2 274.6 188.4 274 188.4 273.3C188.4 272.6 188.2 272 187.9 271.6C187.6 271.2 187.2 270.9 186.8 270.9C186.4 270.9 186 271.1 185.7 271.6C185.4 272 185.2 272.7 185.2 273.3Z" fill="#A6A6A6"/>
<path d="M244.3 220.5H216.3C211.882 220.5 208.3 224.082 208.3 228.5V256.5C208.3 260.918 211.882 264.5 216.3 264.5H244.3C248.718 264.5 252.3 260.918 252.3 256.5V228.5C252.3 224.082 248.718 220.5 244.3 220.5Z" fill="#FFD8D0"/>
<path d="M240.7 248.3C240.7 252.4 240.7 260 240.7 260H219.8C219.8 260 219.8 252.4 219.8 248.3C219.8 244.2 220.7 233.5 230.2 233.5C239.8 233.5 240.7 244.2 240.7 248.3Z" fill="white"/>
<path d="M241.3 261.6H219.2C218.6 261.6 218.1 261.1 218.1 260.5C218.1 259.9 218.6 259.4 219.2 259.4H241.3C241.9 259.4 242.4 259.9 242.4 260.5C242.4 261.1 241.9 261.6 241.3 261.6Z" fill="white"/>
<path d="M233.6 231.1H227V236.1H233.6V231.1Z" fill="white"/>
<path d="M234.3 228.7H226.2V232H234.3V228.7Z" fill="#455A64"/>
<path d="M231.8 225.5H228.8V229.3H231.8V225.5Z" fill="#455A64"/>
<path d="M227.2 224.1C226.4 224.7 226.1 225.9 227.3 226.6C228.3 227.2 233.6 225.9 234.2 225.9C234.8 226 236.1 226.6 236.3 226.6C236.5 226.6 237.1 226.3 237 226C237 225.7 235.2 224.4 233.8 224.1C232.4 223.8 228.3 223.3 227.2 224.1Z" fill="#455A64"/>
<path d="M221.7 270C221.8 270 221.9 270.1 221.9 270.2V270.5C222.5 270.5 222.9 270.7 223.3 271.1C223.4 271.2 223.4 271.2 223.4 271.3C223.4 271.4 223.3 271.5 223.2 271.5C223.2 271.5 223.1 271.5 223.1 271.4C222.7 271.1 222.3 270.9 221.9 270.9V273.1C223.1 273.4 223.6 273.8 223.6 274.6C223.6 275.4 222.9 276 221.9 276.1V276.7C221.9 276.8 221.8 276.9 221.7 276.9C221.6 276.9 221.5 276.8 221.5 276.7V276.1C220.8 276 220.2 275.8 219.7 275.3C219.6 275.3 219.6 275.2 219.6 275.1C219.6 275 219.7 274.9 219.8 274.9C219.9 274.9 219.9 274.9 219.9 275C220.3 275.4 220.8 275.7 221.5 275.7V273.4C220.3 273.1 219.8 272.7 219.8 271.9C219.8 271.1 220.5 270.5 221.5 270.5V270.2C221.5 270.1 221.6 270 221.7 270ZM221.5 273.1V270.9C220.7 270.9 220.2 271.4 220.2 272C220.3 272.5 220.5 272.8 221.5 273.1ZM221.9 273.6V275.8C222.7 275.8 223.2 275.3 223.2 274.7C223.2 274.1 222.9 273.8 221.9 273.6Z" fill="#A6A6A6"/>
<path d="M228 270.9L226.6 272.4C227 272.5 227.3 272.6 227.6 272.9C228 273.3 228.2 273.8 228.2 274.2C228.2 274.7 228 275.2 227.6 275.5C227.2 275.9 226.7 276.1 226.3 276.1C225.8 276.1 225.3 275.9 225 275.5C224.9 275.4 224.9 275.3 225 275.2C225.1 275.1 225.2 275.1 225.3 275.2C225.6 275.5 226 275.6 226.4 275.6C226.8 275.6 227.2 275.5 227.5 275.2C227.8 274.9 227.9 274.5 227.9 274.1C227.9 273.7 227.8 273.3 227.5 273C227.2 272.7 226.8 272.6 226.4 272.6C226.3 272.6 226.3 272.6 226.2 272.5C226.1 272.4 226.1 272.3 226.2 272.2L227.6 270.8H225.5C225.4 270.8 225.3 270.7 225.3 270.6C225.3 270.5 225.4 270.4 225.5 270.4H228.1C228.2 270.4 228.3 270.5 228.3 270.6C228.1 270.8 228.1 270.8 228 270.9C228.1 270.9 228 270.9 228 270.9Z" fill="#A6A6A6"/>
<path d="M230.1 275.3C230.3 275.3 230.5 275.5 230.5 275.7C230.5 275.9 230.3 276.1 230.1 276.1C229.9 276.1 229.7 275.9 229.7 275.7C229.7 275.5 229.9 275.3 230.1 275.3Z" fill="#A6A6A6"/>
<path d="M231.5 275.6C231.4 275.5 231.4 275.4 231.5 275.3C231.6 275.2 231.7 275.2 231.8 275.3C232.1 275.6 232.5 275.7 232.9 275.7C233.3 275.7 233.7 275.6 234 275.3C234.3 275 234.4 274.6 234.4 274.2C234.4 273.8 234.3 273.4 234 273.1C233.7 272.8 233.3 272.7 232.9 272.7C232.5 272.7 232.1 272.8 231.8 273.1C231.7 273.2 231.6 273.2 231.5 273.1C231.5 273.1 231.5 273.1 231.5 273C231.5 273 231.5 273 231.5 272.9L231.8 270.6C231.8 270.5 231.8 270.5 231.9 270.5H232H234.6C234.7 270.5 234.8 270.6 234.8 270.7C234.8 270.8 234.7 270.9 234.6 270.9H232.2L232 272.6C232.3 272.4 232.6 272.3 233 272.3C233.5 272.3 234 272.5 234.3 272.9C234.7 273.3 234.9 273.7 234.9 274.2C234.9 274.7 234.7 275.2 234.3 275.5C233.9 275.9 233.4 276.1 233 276.1C232.3 276.1 231.9 276 231.5 275.6Z" fill="#A6A6A6"/>
<path d="M236.3 273.3C236.3 272.5 236.5 271.9 236.8 271.3C237.1 270.8 237.6 270.5 238.2 270.5C238.8 270.5 239.3 270.8 239.6 271.3C239.9 271.8 240.1 272.5 240.1 273.3C240.1 274.1 239.9 274.7 239.6 275.3C239.3 275.8 238.8 276.1 238.2 276.1C237.6 276.1 237.1 275.8 236.8 275.3C236.5 274.8 236.3 274.1 236.3 273.3ZM236.7 273.3C236.7 274 236.9 274.6 237.2 275C237.5 275.4 237.9 275.7 238.3 275.7C238.7 275.7 239.1 275.5 239.4 275C239.7 274.6 239.9 274 239.9 273.3C239.9 272.6 239.7 272 239.4 271.6C239.1 271.2 238.7 270.9 238.3 270.9C237.9 270.9 237.5 271.1 237.2 271.6C236.9 272 236.7 272.7 236.7 273.3Z" fill="#A6A6A6"/>
<path d="M216.5 315.9H140.6C135.077 315.9 130.6 320.377 130.6 325.9V331.8C130.6 337.323 135.077 341.8 140.6 341.8H216.5C222.023 341.8 226.5 337.323 226.5 331.8V325.9C226.5 320.377 222.023 315.9 216.5 315.9Z" fill="#263238"/>
<path d="M145.4 330.6H142.6L142 332.1C141.9 332.4 141.7 332.5 141.4 332.5C141.3 332.5 141.3 332.5 141.2 332.5C140.9 332.4 140.7 332 140.8 331.7L143.3 325C143.4 324.7 143.7 324.6 143.9 324.6C144.2 324.6 144.4 324.7 144.5 325L147 331.7C147.1 332 147 332.4 146.6 332.5C146.5 332.5 146.5 332.5 146.4 332.5C146.1 332.5 145.9 332.4 145.8 332.1L145.4 330.6ZM144.9 329.4L144 327L143.1 329.4H144.9Z" fill="white"/>
<path d="M148.7 331.9V325.2C148.7 324.8 149 324.6 149.3 324.6H150.6C152.8 324.6 154.6 326.4 154.6 328.6C154.6 330.8 152.8 332.6 150.6 332.6H149.3C148.9 332.5 148.7 332.2 148.7 331.9ZM149.9 331.2H150.6C152.1 331.2 153.3 330 153.3 328.5C153.3 327 152.1 325.8 150.6 325.8H149.9V331.2Z" fill="white"/>
<path d="M156.5 331.9V325.2C156.5 324.8 156.8 324.6 157.1 324.6H158.4C160.6 324.6 162.4 326.4 162.4 328.6C162.4 330.8 160.6 332.6 158.4 332.6H157.1C156.8 332.5 156.5 332.2 156.5 331.9ZM157.8 331.2H158.5C160 331.2 161.2 330 161.2 328.5C161.2 327 160 325.8 158.5 325.8H157.8V331.2Z" fill="white"/>
<path d="M173 325.8H171.2V331.9C171.2 332.3 170.9 332.5 170.6 332.5C170.3 332.5 170 332.2 170 331.9V325.8H168.2C167.8 325.8 167.6 325.5 167.6 325.2C167.6 324.8 167.9 324.6 168.2 324.6H173.1C173.4 324.6 173.7 324.9 173.7 325.2C173.6 325.5 173.3 325.8 173 325.8Z" fill="white"/>
<path d="M181.2 325.5C181.9 326.3 182.3 327.3 182.3 328.4C182.3 329.5 181.9 330.5 181.2 331.3C180.5 332 179.5 332.5 178.5 332.5C177.4 332.5 176.4 332 175.7 331.3C175 330.6 174.6 329.5 174.6 328.4C174.6 327.3 175 326.3 175.7 325.5C176.4 324.7 177.4 324.3 178.5 324.3C179.5 324.3 180.5 324.8 181.2 325.5ZM181 328.4C181 327.6 180.7 326.9 180.2 326.4C179.7 325.9 179.1 325.6 178.4 325.6C177.7 325.6 177 325.9 176.6 326.4C176.1 326.9 175.8 327.6 175.8 328.4C175.8 329.2 176.1 329.9 176.6 330.4C177.1 330.9 177.7 331.2 178.4 331.2C179.1 331.2 179.7 330.9 180.2 330.4C180.7 329.9 181 329.2 181 328.4Z" fill="white"/>
<path d="M187.6 328.4C187.6 326.1 189.5 324.3 191.8 324.3C192.8 324.3 193.7 324.6 194.4 325.2C194.7 325.4 194.7 325.8 194.5 326.1C194.3 326.4 193.9 326.4 193.6 326.2C193.1 325.8 192.5 325.6 191.8 325.6C191 325.6 190.3 325.9 189.8 326.4C189.3 326.9 189 327.6 189 328.4C189 329.2 189.3 329.9 189.8 330.4C190.3 330.9 191.1 331.2 191.8 331.2C192.5 331.2 193.1 331 193.6 330.6C193.9 330.4 194.3 330.5 194.5 330.7C194.7 331 194.7 331.4 194.4 331.6C193.7 332.2 192.8 332.5 191.8 332.5C189.5 332.5 187.6 330.7 187.6 328.4Z" fill="white"/>
<path d="M200.6 330.6H197.8L197.2 332.1C197.1 332.4 196.9 332.5 196.6 332.5C196.5 332.5 196.5 332.5 196.4 332.5C196.1 332.4 195.9 332 196 331.7L198.5 325C198.6 324.7 198.9 324.6 199.1 324.6C199.4 324.6 199.6 324.7 199.7 325L202.2 331.7C202.3 332 202.2 332.4 201.8 332.5C201.7 332.5 201.7 332.5 201.6 332.5C201.3 332.5 201.1 332.4 201 332.1L200.6 330.6ZM200.2 329.4L199.3 327L198.4 329.4H200.2Z" fill="white"/>
<path d="M209.2 331.5C209.3 331.8 209.1 332.2 208.8 332.3C208.8 332.3 208.7 332.3 208.5 332.3C208.4 332.3 208.2 332.3 208.1 332.2C208 332.1 207.8 332 207.7 331.8C207.5 331.5 207.5 331.1 207.5 330.4C207.5 330.2 207.4 330 207.4 329.9C207.3 329.8 207.2 329.7 207.1 329.6C206.9 329.4 206.6 329.3 206.5 329.3H205V331.8C205 332.1 204.7 332.4 204.4 332.4C204 332.4 203.8 332.1 203.8 331.8V325.1C203.8 324.7 204.1 324.5 204.4 324.5H206.4C207.8 324.5 208.8 325.6 208.8 326.9C208.8 327.7 208.5 328.3 207.9 328.8C208 328.9 208.2 329.1 208.3 329.2C208.5 329.5 208.7 330 208.7 330.4C208.7 330.7 208.7 331 208.7 331.1C209 331.2 209.1 331.4 209.2 331.5ZM207.6 327C207.6 326.3 207.1 325.8 206.4 325.8H205V328.1H206.4C207.1 328.1 207.6 327.6 207.6 327Z" fill="white"/>
<path d="M215.7 325.8H213.9V331.9C213.9 332.3 213.6 332.5 213.3 332.5C213 332.5 212.7 332.2 212.7 331.9V325.8H210.9C210.5 325.8 210.3 325.5 210.3 325.2C210.3 324.8 210.6 324.6 210.9 324.6H215.8C216.1 324.6 216.4 324.9 216.4 325.2C216.3 325.5 216 325.8 215.7 325.8Z" fill="white"/>
<path d="M289 403.2C291.2 403.9 353.2 403.1 355.5 401.6C356.4 401 356.8 392 357 381C357 380.9 357 380.8 357 380.7C357 378.4 357.1 376.1 357.1 373.8C357.1 373.5 357.1 373.2 357.1 372.8C357.2 357 356.9 340.6 356.9 340.6L315.4 341L316.6 372.9V374.2L316.9 380.8V381.5C316.9 381.5 293.3 392.4 290.9 394.4C288.6 396.2 286.8 402.5 289 403.2Z" fill="#F7A9A0"/>
<path d="M289 403.2C291.2 403.9 353.2 403.1 355.5 401.6C356.4 401 356.8 392 357 381C357 380.9 357 380.8 357 380.7C357 378.4 357.1 376.1 357.1 373.8C357.1 373.5 357.1 373.2 357.1 372.8L316.7 372.9V374.2L317 380.8V381.5C317 381.5 293.4 392.4 291 394.4C288.6 396.2 286.8 402.5 289 403.2Z" fill="#EBEBEB"/>
<path d="M289 403.2C290.3 403.6 314.4 403.5 333.2 403C344.9 402.7 354.7 402.2 355.6 401.6C356.5 401 356.9 392.2 357.1 381.5C357.1 381.3 357.1 381.2 357.1 381C357.1 380.9 357.1 380.8 357.1 380.6L317.1 380.7V381.4C317.1 381.4 293.5 392.3 291.1 394.3C288.6 396.2 286.8 402.5 289 403.2Z" fill="#FFC727"/>
<path d="M289.6 400.8C300.1 400.4 342.2 399.8 352.6 400.2C352.7 400.2 352.7 400.3 352.6 400.3C342.2 400.9 300.1 401.2 289.6 401C289.4 400.9 289.4 400.8 289.6 400.8Z" fill="#263238"/>
<path d="M312.5 380.9C316.6 380.1 321.6 380.6 324.8 383.5C324.9 383.6 324.8 383.8 324.6 383.7C320.5 382.5 316.7 381.7 312.5 381.3C312.2 381.4 312.2 380.9 312.5 380.9Z" fill="#263238"/>
<path d="M309.6 382.7C313.7 381.9 318.7 382.4 321.9 385.3C322 385.4 321.9 385.6 321.7 385.5C317.6 384.3 313.8 383.5 309.6 383.1C309.3 383.2 309.3 382.8 309.6 382.7Z" fill="#263238"/>
<path d="M306.6 384.5C310.7 383.7 315.7 384.2 318.9 387.1C319 387.2 318.9 387.4 318.7 387.3C314.6 386.1 310.8 385.3 306.6 384.9C306.4 385 306.3 384.6 306.6 384.5Z" fill="#263238"/>
<path d="M309 377.8C311.9 380 315.7 380.9 319.2 382.1C319.6 382.2 319.8 381.9 319.8 381.6C319.9 381.6 319.9 381.5 319.9 381.5C318.7 378.1 316.3 374.5 313.4 372.2C311.7 370.8 308.6 369.8 307.1 372.1C305.6 374.1 307.3 376.5 309 377.8ZM307.9 374.5C307.1 370 312 372.3 313.2 373.4C314 374.1 314.7 374.9 315.4 375.7C316.8 377.4 318 379.3 319.3 381.1C317.7 380.4 316 379.8 314.3 379.2C312.3 378.5 308.3 377 307.9 374.5Z" fill="#263238"/>
<path d="M333.5 375C332.5 372.4 329.3 372.7 327.3 373.7C324 375.3 320.8 378.2 318.9 381.3C318.9 381.4 318.9 381.4 319 381.5C318.9 381.8 319.1 382.2 319.5 382.2C323.1 381.8 327 381.8 330.4 380.3C332.3 379.4 334.5 377.4 333.5 375ZM324.8 380.4C323 380.6 321.3 380.8 319.5 381.1C321.1 379.6 322.7 378.1 324.5 376.8C325.4 376.2 326.3 375.5 327.2 375C328.7 374.2 333.9 373.1 332.1 377.3C331.1 379.6 326.9 380.1 324.8 380.4Z" fill="#263238"/>
<path d="M294.8 392.5C297.3 392.4 299.7 393.5 301.1 395C302.4 396.4 303.6 398.4 303.5 400.6C303.5 400.7 303.4 400.7 303.4 400.6C302.7 396.5 299 393 294.8 392.7C294.7 392.6 294.7 392.5 294.8 392.5Z" fill="#263238"/>
<path d="M350 390.7C354.7 390.6 354.8 398 350.1 398C345.3 398 345.2 390.7 350 390.7Z" fill="#263238"/>
<path d="M333.1 402.9C344.8 402.6 354.6 402.1 355.5 401.5C356.4 400.9 356.8 392.1 357 381.4C352.2 385.7 340.2 396.4 333.1 402.9Z" fill="#263238"/>
<path d="M369.6 161.9C369.6 161.9 360.3 266.7 358.8 274.7C358.4 276.5 358.2 286.4 358.1 299.2C357.8 327 358 377.1 358 377.1H314.3C314.3 377.1 315.6 290.3 317.5 274.3C319.4 258.3 331.8 161.9 331.8 161.9H369.6Z" fill="#455A64"/>
<path d="M316.2 369.4C323 369.3 321.1 369.2 327.9 369.1C331.2 369.1 353.2 368.9 356.3 369.4C356.4 369.4 356.4 369.5 356.3 369.5C353.2 370 331.2 369.8 327.9 369.8C321.1 369.7 323 369.7 316.2 369.5C316.1 369.6 316.1 369.4 316.2 369.4Z" fill="#263238"/>
<path d="M349.7 319.8C349.7 313.5 349.8 307.1 349.8 300.8C349.8 294.7 349.8 288.5 350.1 282.4C350.7 270 353.2 257.8 355 245.5C356.8 233.2 358.3 220.9 359.6 208.5C361.1 194.6 362.5 180.8 363.9 166.9C363.9 166.8 364.1 166.8 364 166.9C361.9 191.6 359.6 216.4 356.2 241C355.3 247.1 354.4 253.2 353.4 259.3C352.4 265.5 351.4 271.6 350.9 277.9C350.4 284 350.3 290.1 350.3 296.3C350.2 302.6 350.2 309 350.1 315.3C350 329.4 349.8 351 349.7 365.1C349.7 365.4 349.3 365.4 349.3 365.1C349.5 352.5 349.6 332.4 349.7 319.8Z" fill="#263238"/>
<path d="M378.9 161.9C378.9 161.9 360.4 266.7 358.9 274.7C358.5 276.5 358.3 286.4 358.2 299.2L337.4 161.9H378.9Z" fill="#263238"/>
<path d="M339.7 406.9C341.9 407.4 403.7 402.3 406 400.6C406.9 400 406.6 390.9 406 380C406 379.9 406 379.8 406 379.7C405.9 377.4 405.7 375.1 405.6 372.8C405.6 372.5 405.6 372.2 405.5 371.8C404.5 356 403.1 339.7 403.1 339.7L361.7 343.1L365.2 374.8L365.3 376.1L366 382.7L366.1 383.4C366.1 383.4 343.3 396 341.1 398.1C338.9 400 337.5 406.3 339.7 406.9Z" fill="#F7A9A0"/>
<path d="M339.7 406.9C341.9 407.4 403.7 402.3 406 400.6C406.9 400 406.6 390.9 406 380C406 379.9 406 379.8 406 379.7C405.9 377.4 405.7 375.1 405.6 372.8C405.6 372.5 405.6 372.2 405.5 371.8L365.2 374.8L365.3 376.1L366 382.7L366.1 383.4C366.1 383.4 343.3 396 341.1 398.1C338.9 400 337.5 406.3 339.7 406.9Z" fill="#EBEBEB"/>
<path d="M339.7 406.9C341.9 407.4 403.7 402.3 406 400.6C406.9 400 406.6 390.9 406 380C406 379.9 406 379.8 406 379.7L366.1 382.6L366.2 383.3C366.2 383.3 343.4 395.9 341.2 398C338.9 400 337.5 406.3 339.7 406.9Z" fill="#FFC727"/>
<path d="M340.2 404.4C350.6 403.3 392.6 399.7 403 399.4C403.1 399.4 403.1 399.5 403 399.5C392.7 400.8 350.6 404.1 340.2 404.6C340 404.6 340 404.4 340.2 404.4Z" fill="#263238"/>
<path d="M361.7 383C365.7 381.9 370.8 382.1 374.2 384.8C374.3 384.9 374.2 385.1 374 385.1C369.8 384.2 366 383.7 361.7 383.6C361.4 383.5 361.4 383 361.7 383Z" fill="#263238"/>
<path d="M358.8 385C362.8 383.9 367.9 384.1 371.3 386.8C371.4 386.9 371.3 387.1 371.1 387.1C366.9 386.2 363.1 385.7 358.8 385.6C358.6 385.5 358.6 385.1 358.8 385Z" fill="#263238"/>
<path d="M356 387C360 385.9 365.1 386.1 368.5 388.8C368.6 388.9 368.5 389.1 368.3 389.1C364.1 388.2 360.3 387.7 356 387.6C355.8 387.5 355.7 387.1 356 387Z" fill="#263238"/>
<path d="M357.9 380.2C361 382.2 364.8 382.8 368.3 383.8C368.7 383.9 368.9 383.5 368.9 383.2C369 383.2 369 383.1 369 383C367.6 379.7 364.9 376.2 361.9 374.1C360.1 372.8 357 372.1 355.6 374.4C354.2 376.7 356.1 379 357.9 380.2ZM356.6 376.9C355.5 372.5 360.5 374.4 361.8 375.4C362.6 376 363.4 376.8 364.2 377.6C365.8 379.2 367.1 381 368.5 382.7C366.8 382.1 365.1 381.7 363.4 381.2C361.3 380.6 357.2 379.4 356.6 376.9Z" fill="#263238"/>
<path d="M382.2 375.6C381 373.1 377.9 373.6 375.9 374.7C372.8 376.5 369.7 379.7 368 382.9C368 383 368 383 368.1 383.1C368.1 383.4 368.3 383.8 368.6 383.7C372.2 383 376.1 382.8 379.3 381.1C381.2 380.1 383.3 378 382.2 375.6ZM373.8 381.6C372.1 382 370.3 382.2 368.6 382.7C370.1 381.1 371.6 379.5 373.3 378C374.1 377.3 375 376.6 375.9 376.1C377.3 375.2 382.5 373.7 381 378C380.1 380.4 375.9 381.2 373.8 381.6Z" fill="#263238"/>
<path d="M343.8 396.1C346.3 395.7 348.8 396.7 350.3 398C351.7 399.3 353 401.2 353.2 403.3C353.2 403.4 353.1 403.4 353.1 403.3C352.1 399.3 348 396.1 343.9 396.2C343.8 396.3 343.8 396.1 343.8 396.1Z" fill="#263238"/>
<path d="M398.6 389.5C403.3 389 404 396.3 399.3 396.8C394.6 397.3 393.9 390 398.6 389.5Z" fill="#263238"/>
<path d="M364.3 379.4L408 377.5C408 377.5 396.1 281.7 395.9 275.8C395.3 260.5 385.2 161.8 385.2 161.8H331.9C331.9 161.8 335.3 184.6 341 199C341 199 345.4 200.4 352.2 204.1C352.2 204.1 357.2 269.4 357.4 277.5C357.6 293.7 364.3 379.4 364.3 379.4Z" fill="#455A64"/>
<path d="M365.5 371.4C372.3 371 370.3 371 377.2 370.6C380.5 370.4 402.4 369.3 405.6 369.7C405.7 369.7 405.7 369.8 405.6 369.8C402.5 370.4 380.6 371.2 377.2 371.3C370.4 371.5 372.3 371.4 365.5 371.5C365.3 371.6 365.3 371.4 365.5 371.4Z" fill="#263238"/>
<path d="M381.2 167.7C383.2 192.6 385.2 217.4 387.5 242.2C389.8 267.1 392.5 292 395.7 316.8C397.5 330.7 399.5 350.2 401.7 364C401.7 364.1 401.6 364.1 401.6 364C397.2 339.5 394 309 391.2 284.2C388.4 259.4 386.2 234.6 384.2 209.8C383.1 195.8 382 181.7 381 167.6C380.9 167.5 381.2 167.5 381.2 167.7Z" fill="#263238"/>
<path d="M339 198.1C343.5 199.7 347.9 201.9 352.1 204.2C352.3 204.3 352.2 204.5 352 204.5C347.6 202.6 343.1 200.8 338.8 198.7C338.4 198.5 338.6 198 339 198.1Z" fill="#263238"/>
<path d="M337.6 167.9C337.6 167.7 337.9 167.7 337.9 167.9C337.9 173.1 338.2 177.7 338.6 182.6C338.8 184.9 340.6 197.4 344.6 196.5C345.3 196.3 345.6 195.7 345.7 194.7C345.8 193.5 345.4 192 345.2 190.9C344.8 188.3 344.4 185.6 344.2 183C343.8 178.1 343.8 173.1 344.4 168.2C344.4 168 344.7 168.1 344.7 168.2C344.7 175 344.9 181.9 345.9 188.7C346.4 192 348 196.9 344.6 197.4C341.1 197.9 338.9 189.7 338.5 187.4C337.1 181 337.1 174.2 337.6 167.9Z" fill="#263238"/>
<path d="M344.4 196.8C344.8 197.6 345 198.5 345.3 199.4C345.5 200.1 345.7 200.8 345.7 201.5C345.7 201.6 345.5 201.7 345.4 201.6C344.9 201 344.7 200.2 344.5 199.5C344.2 198.7 343.9 197.9 343.6 197.1C343.4 196.6 344.2 196.3 344.4 196.8Z" fill="#263238"/>
<path d="M167.6 381.8L167.4 379.8L272.9 374.4L265.1 327.4L267.1 327.1L275.3 376.3L167.6 381.8Z" fill="#C7C7C7"/>
<path d="M180.284 395.071C185.069 391.328 185.914 384.415 182.171 379.631C178.428 374.846 171.515 374.001 166.73 377.744C161.945 381.487 161.101 388.4 164.844 393.185C168.587 397.969 175.5 398.814 180.284 395.071Z" fill="#37474F"/>
<path d="M168.5 386.4C168.5 389.2 170.7 391.4 173.5 391.4C176.3 391.4 178.5 389.2 178.5 386.4C178.5 383.6 176.3 381.4 173.5 381.4C170.8 381.3 168.5 383.6 168.5 386.4Z" fill="#EBEBEB"/>
<path d="M260.63 397.105C266.541 395.703 270.196 389.775 268.794 383.863C267.392 377.952 261.463 374.297 255.552 375.699C249.641 377.101 245.986 383.03 247.388 388.941C248.79 394.852 254.719 398.507 260.63 397.105Z" fill="#37474F"/>
<path d="M253 386.4C253 389.2 255.2 391.4 258 391.4C260.8 391.4 263 389.2 263 386.4C263 383.6 260.8 381.4 258 381.4C255.3 381.3 253 383.6 253 386.4Z" fill="#EBEBEB"/>
<path d="M186.4 394L186.3 392L291.8 386.6L281.5 324.9L283.5 324.6L294.1 388.4L186.4 394Z" fill="#C7C7C7"/>
<path d="M199.409 406.967C204.084 403.088 204.73 396.154 200.851 391.478C196.972 386.803 190.037 386.157 185.362 390.036C180.686 393.915 180.041 400.85 183.92 405.525C187.799 410.201 194.733 410.846 199.409 406.967Z" fill="#37474F"/>
<path d="M187.4 398.5C187.4 401.3 189.6 403.5 192.4 403.5C195.2 403.5 197.4 401.3 197.4 398.5C197.4 395.7 195.2 393.5 192.4 393.5C189.6 393.5 187.4 395.8 187.4 398.5Z" fill="#EBEBEB"/>
<path d="M287.046 402.796C289.387 397.19 286.74 390.748 281.134 388.407C275.528 386.066 269.086 388.713 266.745 394.319C264.404 399.925 267.051 406.368 272.657 408.708C278.263 411.049 284.706 408.402 287.046 402.796Z" fill="#37474F"/>
<path d="M271.9 398.5C271.9 401.3 274.1 403.5 276.9 403.5C279.7 403.5 281.9 401.3 281.9 398.5C281.9 395.7 279.7 393.5 276.9 393.5C274.2 393.5 271.9 395.8 271.9 398.5Z" fill="#EBEBEB"/>
<path d="M163.8 321.1L148.4 250.9L253.4 233.9L254.5 307.3L253.6 307.4L163.8 321.1ZM150.8 252.5L165.4 318.9L252.5 305.6L251.5 236.3L150.8 252.5Z" fill="#A6A6A6"/>
<path d="M175.189 247.561L173.213 247.87L184.028 317.03L186.004 316.721L175.189 247.561Z" fill="#A6A6A6"/>
<path d="M203.341 243.112L201.353 243.331L209.058 313.209L211.046 312.99L203.341 243.112Z" fill="#A6A6A6"/>
<path d="M230.786 239.097L228.788 239.183L231.83 309.619L233.828 309.533L230.786 239.097Z" fill="#A6A6A6"/>
<path d="M253.328 256.161L154.534 274.053L154.891 276.021L253.684 258.129L253.328 256.161Z" fill="#A6A6A6"/>
<path d="M253.312 282.736L159.545 296.662L159.839 298.64L253.606 284.714L253.312 282.736Z" fill="#A6A6A6"/>
<path d="M297.2 324.4L252.5 307.1V233.8L320.8 253.6L297.2 324.4ZM254.4 305.7L295.9 321.7L318.1 254.9L254.3 236.4V305.7H254.4Z" fill="#DBDBDB"/>
<path d="M253.813 256.195L253.098 258.063L310.813 280.163L311.528 278.295L253.813 256.195Z" fill="#DBDBDB"/>
<path d="M253.772 282.814L253.016 284.666L302.459 304.835L303.215 302.983L253.772 282.814Z" fill="#DBDBDB"/>
<path d="M275.207 241.497L265.895 311.483L267.878 311.746L277.19 241.761L275.207 241.497Z" fill="#DBDBDB"/>
<path d="M297.338 247.89L281.674 317.45L283.625 317.89L299.29 248.329L297.338 247.89Z" fill="#DBDBDB"/>
<path d="M269.508 178.109L252.483 234.912L254.399 235.486L271.424 178.683L269.508 178.109Z" fill="#DBDBDB"/>
<path d="M337.019 191.604L318.357 253.867L320.273 254.442L338.934 192.178L337.019 191.604Z" fill="#DBDBDB"/>
<path d="M266.373 175.302L265.567 179.22L342.164 194.985L342.97 191.067L266.373 175.302Z" fill="#263238"/>
<path d="M221.8 258.3L240.7 267L271.8 260.8L253.2 255.5L221.8 258.3Z" fill="#FFC727"/>
<path opacity="0.1" d="M221.8 258.3L240.7 267L271.8 260.8L253.2 255.5L221.8 258.3Z" fill="black"/>
<path d="M254.6 261C254.8 269 256.7 307.3 249.3 308C246.7 308.3 244.3 302.3 242.5 293.4C242.3 292.5 242.1 291.6 242 290.7C241.4 287.4 240.9 283.7 240.4 279.9C240.3 279 240.2 278.1 240.1 277.2C239.7 273.7 239.4 270 239.2 266.3C239.2 265.4 239.1 264.5 239.1 263.6C239.1 262.8 239 262.1 239 261.3C238.9 258.8 238.9 256.3 238.9 253.9C238.9 253 238.9 252.1 238.9 251.2C239 246.2 239.2 241.5 239.5 237.1C239.6 236.2 239.6 235.4 239.7 234.6C240.8 223.4 242.9 215.3 245.8 214.5C252 212.9 254 241.1 254.6 261Z" fill="#E6A36E"/>
<path d="M249.7 288.7C249.6 288.8 249.5 288.8 249.4 288.9L249.3 289C246.7 289.9 244.4 291.4 242.5 293.6C242.3 292.7 242.1 291.8 242 290.9C244.3 289 247.1 287.9 249.5 288.3H249.6H249.7C249.8 288.3 249.9 288.5 249.7 288.7Z" fill="#CC8A58"/>
<path d="M248.8 277.2C248.7 277.2 248.6 277.3 248.5 277.3L248.4 277.4C245.7 277.5 243 278.3 240.7 279.9C240.6 280 240.5 280 240.4 280.1C240.3 279.2 240.2 278.3 240.1 277.4C242.9 275.9 246.2 275.6 248.7 276.7C248.7 276.7 248.7 276.7 248.8 276.8H248.9C248.9 276.8 249 277.1 248.8 277.2Z" fill="#CC8A58"/>
<path d="M248.2 265.5C248.1 265.5 248 265.5 247.9 265.5C247.9 265.5 247.8 265.5 247.7 265.5C245 265 242.3 265.1 239.7 266.2C239.5 266.3 239.3 266.4 239.1 266.5C239.1 265.6 239 264.7 239 263.8C242.1 262.8 245.7 263.2 248.1 264.9C248.1 264.9 248.2 264.9 248.2 265C248.2 265 248.3 265 248.3 265.1C248.4 265.2 248.5 265.5 248.2 265.5Z" fill="#CC8A58"/>
<path d="M247.8 253.2C247.7 253.2 247.6 253.2 247.5 253.2C247.5 253.2 247.4 253.2 247.3 253.2C244.6 252.7 241.9 252.8 239.3 253.9C239.1 254 239 254 238.9 254.1C238.9 253.2 238.9 252.3 238.9 251.4C241.9 250.5 245.4 250.9 247.7 252.6C247.7 252.6 247.8 252.6 247.8 252.7C247.8 252.7 247.9 252.7 247.9 252.8C248 252.9 248 253.2 247.8 253.2Z" fill="#CC8A58"/>
<path d="M247.8 238.7C247.7 238.7 247.6 238.7 247.5 238.6C247.5 238.6 247.4 238.6 247.3 238.6C244.8 237.5 242.1 237 239.5 237.3C239.6 236.4 239.6 235.6 239.7 234.8C242.7 234.8 245.9 236 247.8 238.1V238.2L247.9 238.3C248 238.5 248 238.8 247.8 238.7Z" fill="#CC8A58"/>
<path d="M266.3 265.8C265.2 273.7 260.6 311.5 253.2 310.5C250.6 310.2 249.2 303.8 248.9 294.7C248.9 293.8 248.8 292.9 248.8 292C248.8 288.6 248.8 284.9 249 281.1C249 280.2 249.1 279.3 249.2 278.4C249.4 274.9 249.8 271.2 250.2 267.6C250.3 266.7 250.4 265.8 250.5 265C250.6 264.3 250.7 263.5 250.8 262.8C251.1 260.4 251.5 257.9 251.9 255.5C252.1 254.6 252.2 253.7 252.4 252.9C253.3 248.1 254.3 243.5 255.4 239.3C255.6 238.5 255.8 237.7 256 236.9C258.9 226.2 262.4 218.8 265.4 218.7C271.9 218.3 269.1 246.3 266.3 265.8Z" fill="#EDAA76"/>
<path d="M257 291.7C256.9 291.8 256.8 291.8 256.7 291.8L256.6 291.9C253.9 292.2 251.4 293.1 249.1 294.8C249.1 293.9 249 293 249 292.1C251.6 290.8 254.5 290.4 256.9 291.3C256.9 291.3 257 291.3 257 291.4H257.1C257.1 291.3 257.2 291.6 257 291.7Z" fill="#CC8A58"/>
<path d="M258 280.2C257.9 280.2 257.8 280.2 257.7 280.2C257.7 280.2 257.6 280.2 257.5 280.2C254.8 279.7 252.1 279.8 249.5 280.8C249.4 280.8 249.3 280.9 249.2 280.9C249.2 280 249.3 279.1 249.4 278.2C252.4 277.4 255.7 277.9 258 279.5C258 279.5 258 279.5 258.1 279.6C258.1 279.6 258.2 279.6 258.2 279.7C258.2 279.9 258.2 280.2 258 280.2Z" fill="#CC8A58"/>
<path d="M259.4 268.7C259.3 268.7 259.2 268.7 259.1 268.6C259.1 268.6 259 268.6 258.9 268.6C256.3 267.5 253.6 267 250.9 267.4C250.7 267.4 250.5 267.5 250.3 267.5C250.4 266.6 250.5 265.7 250.6 264.9C253.8 264.7 257.3 265.9 259.4 268.2V268.3L259.5 268.4C259.6 268.4 259.6 268.7 259.4 268.7Z" fill="#CC8A58"/>
<path d="M261 256.6C260.9 256.6 260.8 256.6 260.7 256.5C260.7 256.5 260.6 256.5 260.5 256.5C257.9 255.4 255.2 254.9 252.5 255.3C252.3 255.3 252.2 255.4 252 255.4C252.2 254.5 252.3 253.6 252.5 252.8C255.6 252.6 259 253.9 261 256.1V256.2L261.1 256.3C261.2 256.4 261.2 256.6 261 256.6Z" fill="#CC8A58"/>
<path d="M263.4 242.5C263.3 242.5 263.2 242.4 263.1 242.3C263 242.3 263 242.3 262.9 242.2C260.6 240.5 258.1 239.4 255.4 239.1C255.6 238.3 255.8 237.5 256 236.7C259 237.4 261.9 239.3 263.4 241.8V241.9C263.4 241.9 263.4 242 263.5 242C263.7 242.3 263.7 242.5 263.4 242.5Z" fill="#CC8A58"/>
<path d="M221.8 258.3C221.8 258.3 223 296.5 222.6 298C222.2 299.5 219.9 317.4 220.1 317.9C220.3 318.4 238.3 328.7 238.9 328.1C239.5 327.5 240.6 301.7 240.6 298.5C240.6 295.3 240.8 266.9 240.8 266.9L221.8 258.3Z" fill="#FFC727"/>
<path d="M240.7 267L238.8 328.1C238.8 328.1 268 319.5 268.2 319C268.5 318.5 269.9 301.2 269.5 298.5C269.1 295.8 271.7 260.8 271.7 260.8L240.7 267Z" fill="#FFC727"/>
<path opacity="0.1" d="M240.7 267L238.8 328.1C238.8 328.1 268 319.5 268.2 319C268.5 318.5 269.9 301.2 269.5 298.5C269.1 295.8 271.7 260.8 271.7 260.8L240.7 267Z" fill="black"/>
<path d="M200.2 336.4L163.8 321.2L163.7 320.7L148.3 250.6L193.5 269.1L200.2 336.4ZM165.5 319.7L197.8 333.2L191.6 270.4L151 253.8L165.5 319.7Z" fill="#DBDBDB"/>
<path d="M163.501 256.936L161.531 257.282L173.319 324.354L175.289 324.007L163.501 256.936Z" fill="#DBDBDB"/>
<path d="M178.374 263.295L176.394 263.577L185.806 329.709L187.786 329.427L178.374 263.295Z" fill="#DBDBDB"/>
<path d="M160.905 302.351L160.245 304.239L196.872 317.043L197.532 315.155L160.905 302.351Z" fill="#DBDBDB"/>
<path d="M155.031 274.473L154.294 276.333L194.267 292.178L195.004 290.319L155.031 274.473Z" fill="#DBDBDB"/>
<path d="M200.1 336.3L191.4 268.9L320.7 253.5L297.1 324.4L296.5 324.5L200.1 336.3ZM193.7 270.6L201.9 334.1L295.7 322.6L317.9 255.9L193.7 270.6Z" fill="#EBEBEB"/>
<path d="M222.353 266.232L220.361 266.406L226.043 331.557L228.035 331.383L222.353 266.232Z" fill="#EBEBEB"/>
<path d="M254.912 262.122L251.086 328.409L253.083 328.524L256.908 262.237L254.912 262.122Z" fill="#EBEBEB"/>
<path d="M287.941 258.116L275.209 325.522L277.174 325.894L289.907 258.487L287.941 258.116Z" fill="#EBEBEB"/>
<path d="M311.527 276.807L194.568 289.965L194.792 291.953L311.75 278.794L311.527 276.807Z" fill="#EBEBEB"/>
<path d="M302.903 302.986L197.077 314.051L197.285 316.041L303.111 304.975L302.903 302.986Z" fill="#EBEBEB"/>
<path d="M345.1 108.4C339.7 116.8 319.9 147.4 307.5 147.4C300 147.4 274.7 134.7 269.2 130.4C262.7 125.4 280.2 109.6 284.7 111.5C290.3 113.8 305.4 122.7 309 122.7C312.2 122.7 321.3 112.5 338.5 101.3C347.3 95.4 349.8 101.1 345.1 108.4Z" fill="#F7A9A0"/>
<path d="M269.8 130.8C267.5 129.7 257.2 123.6 254.7 121.3C252.2 119 245.6 111.7 247.1 109.6C248.6 107.5 250.8 109.5 250.8 109.5C250.8 109.5 248.5 106 250.3 104C252.1 102 255.3 105.2 255.3 105.2C255.3 105.2 253.2 101.4 255.1 99.6C257 97.8 259.7 101.5 259.7 101.5C259.7 101.5 257.6 98.1 259.8 97.3C262.5 96.3 265.7 102.9 268.6 105.3C269.3 105.8 282.9 115.2 282.9 115.2L269.8 130.8Z" fill="#F7A9A0"/>
<path d="M259.5 101.3C261.9 106.2 263.7 107.9 268.3 110.7C268.4 110.8 268.3 110.9 268.2 110.8C263.5 108.4 260.9 106.6 259.3 101.4C259.2 101.1 259.4 101 259.5 101.3Z" fill="#263238"/>
<path d="M255.1 104.9C258 109.7 260 111.6 264.5 114.9C264.6 114.9 264.5 115.1 264.4 115C259.7 112.1 257.1 110.3 254.8 105C254.8 104.8 255 104.7 255.1 104.9Z" fill="#263238"/>
<path d="M251.1 109.7C254.2 114.2 256.4 116.3 261.2 119C261.3 119.1 261.2 119.2 261.1 119.2C255.9 117 253.3 114.3 251 109.8C250.8 109.5 250.9 109.4 251.1 109.7Z" fill="#263238"/>
<path d="M249.7 110.8C253.1 122 263.7 120.6 266.7 119.7C269.7 118.8 279.2 114.1 275.8 102.8C272.4 91.6 261.1 94.2 259.1 94.8C256.8 95.5 246.2 99.6 249.7 110.8Z" fill="#FFC727"/>
<path d="M260 96.3C260 96.3 260.5 100.5 267.9 98C267.9 98 262.9 92.7 260 96.3Z" fill="#455A64"/>
<path d="M260.7 98.1C260.7 98.1 264.2 98.3 263.2 92C263.2 92 258.2 95.2 260.7 98.1Z" fill="#455A64"/>
<path d="M260.5 96.9C260.5 96.9 259.3 100.2 253.9 96.7C253.9 96.7 258.9 93.5 260.5 96.9Z" fill="#455A64"/>
<path d="M260.2 96.1C260.2 96.1 257 98.8 263.2 103.6C263.2 103.6 264.8 96.5 260.2 96.1Z" fill="#455A64"/>
<path d="M259.9 96.7C259.9 96.7 255.2 95.4 255.8 103.4C255.8 103.4 263 100.9 259.9 96.7Z" fill="#455A64"/>
<path d="M260.7 97.7C260.7 97.7 261.3 93.5 257.8 90.6C257.8 90.6 255.8 90.6 255.3 92.7C255.3 92.7 259.3 94.9 259.6 98.6L260.5 98" fill="#455A64"/>
<path d="M287.9 114.8C287.9 114.8 286 108.3 284.5 105.6C283 102.9 273.9 95 272.1 96.9C269.7 99.3 274.1 104.9 276.6 107.4C276.6 107.4 271.1 113 273.4 117.7C275.6 122.5 287.9 114.8 287.9 114.8Z" fill="#F7A9A0"/>
<path d="M271.6 97.8C271 101.6 274.5 104.6 276.8 107.2C277 107.4 276.9 107.6 276.7 107.7C274.6 110.2 272.3 114.3 273.2 117.7C273.2 117.8 273.1 117.8 273.1 117.8C271.7 114.3 273.6 110.1 276.1 107.5C273.7 104.8 270.3 101.6 271.6 97.8Z" fill="#263238"/>
<path d="M317 114.2L333.7 129.1C333.7 129.1 343.2 117.7 347.1 106.7C351 95.7 341.6 97.1 335 101.5C328.3 105.9 317 114.2 317 114.2Z" fill="#FFC727"/>
<path d="M335.6 125.5C328.3 119.7 322.8 113.6 321.5 112.4C321.4 112.3 321.5 112.3 321.6 112.3C322.8 113.5 330.2 119.8 335.7 125.4L335.6 125.5Z" fill="#263238"/>
<path d="M347.1 106.7C343.2 117.6 333.7 129.1 333.7 129.1L326 122.2C331.1 115.1 339.3 103.8 343.4 98.3C347.1 98.1 349.5 100.2 347.1 106.7Z" fill="#263238"/>
<path d="M326 176C327 177 388.5 176.4 388.8 176C389.6 174.9 380.2 135.2 373.1 120.2C364 100.9 359.2 99.3 356.4 98.2C352.7 96.8 343.2 97.4 341.6 98.1C339.8 98.9 335.3 107.9 333.2 115.1C329 129.5 325.1 175.1 326 176Z" fill="#FFC727"/>
<path d="M365.6 116.1C365.3 135 364.5 157.4 359.2 163.7C351.3 173.3 331.4 183.1 323.3 184.9C319.9 185.7 310.4 160.1 314.1 159.3C321.8 157.7 339.5 150.4 341.1 148.8C342.6 147.3 348.8 128.9 353.7 114.7C359.6 97.5999 365.8 105.2 365.6 116.1Z" fill="#F7A9A0"/>
<path d="M318.3 158.3C318.3 158.3 308.1 160.9 301.5 162.9C297.8 164 291.7 166.5 289.4 168.6C285.9 171.7 273.3 186.8 276.9 189.9C280.2 192.7 289.3 178.4 289.3 178.4C289.3 178.4 278.8 192.1 283.3 194.8C287.9 197.5 296 179.9 296 179.9C296 179.9 285.5 194.2 290.6 196.2C294.5 197.7 302.8 182.2 302.8 182.2C302.8 182.2 293.9 194.6 297.8 196.3C302.1 198.2 310.7 184.4 310.7 184.4C321.4 187.2 327.7 184.1 331.8 181.4C332.9 180.7 318.3 158.3 318.3 158.3Z" fill="#F7A9A0"/>
<path d="M292.6 173.5C291.3 175.1 290 176.6 288.8 178.3C287.6 180 286.6 181.7 285.6 183.5C283.2 187.8 282.3 190.9 282.4 190.8C284.1 186.4 288.1 180.4 289.3 178.7C290.5 176.9 291.5 175.2 292.6 173.5C292.7 173.5 292.6 173.4 292.6 173.5Z" fill="#263238"/>
<path d="M298.7 177.5C296.5 179.3 291.8 185.8 290 190.2C289.9 190.4 290 190.4 290.1 190.2C291.6 188.1 297.3 179.6 298.7 177.5C298.8 177.5 298.8 177.5 298.7 177.5Z" fill="#263238"/>
<path d="M304.6 180.1C302 182.6 299.9 186.1 298.2 190.1C298.1 190.3 298.3 190.3 298.4 190.1C300.5 186.7 302.1 184.1 304.8 180.2C304.8 180.1 304.7 180 304.6 180.1Z" fill="#263238"/>
<path d="M345.1 132.5L367.2 135.8C367.2 135.8 368.9 121 366.2 109.7C363.5 98.4 356.4 104.7 353.2 112C350 119.4 345.1 132.5 345.1 132.5Z" fill="#FFC727"/>
<path d="M366.6 131.5C357.3 130.9 349.3 128.9 347.6 128.7C347.5 128.7 347.5 128.6 347.6 128.6C349.3 128.9 358.9 129.9 366.6 131.4C366.7 131.4 366.6 131.5 366.6 131.5Z" fill="#263238"/>
<path d="M348.3 124.9C349.3 122.4 350.8 118.8 351.6 116.3C351.6 116.3 351.6 116.2 351.5 116.3C350.9 117.6 350.3 119 349.7 120.4C349.7 120.3 349.7 120.2 349.8 120.2C349.9 119.4 350.1 118.7 350.1 117.9C349.9 118.7 349.7 119.4 349.5 120.2C349.4 120.7 349.3 121.2 349.2 121.7C348.9 122.4 348.1 124.2 347.9 124.9C347.4 126.1 344.7 132.8 344.8 132.8C345 132.8 347.1 133.1 347.5 133.1C347.6 133.1 347.6 132.9 347.5 132.9C347.1 132.9 345.4 132.6 345.2 132.6C345.7 131.3 346.2 130.1 346.8 128.8C347.3 127.5 347.8 126.2 348.3 124.9Z" fill="#263238"/>
<path d="M368.6 121.2C368.4 121.9 368.3 122.5 368.2 123.2C368.2 123.4 368.1 123.7 368.1 123.9C368 122.2 367.9 120.6 367.7 118.9H367.6C367.8 121.7 367.7 124.5 367.6 127.2C367.6 128.6 367.5 129.9 367.4 131.3C367.4 132 367.3 132.7 367.3 133.4C367.3 134.2 367.2 135.7 367.2 135.7C366.8 135.6 365.5 135.5 365.1 135.4C365 135.4 365 135.5 365.1 135.5C365.5 135.6 367.5 135.9 367.5 135.9C367.5 135.2 367.7 134.3 367.8 133.6C367.9 132.9 367.9 132.3 368 131.6C368.1 130.2 368.2 128.7 368.2 127.3C368.2 126.5 368.2 125.7 368.2 124.9C368.3 124.3 368.5 123.7 368.6 123.1C368.7 122.4 368.8 121.7 368.9 121.1C368.8 121.1 368.6 121.1 368.6 121.2Z" fill="#263238"/>
<path d="M343.4 108C346.8 109 353.1 104.1 355.7 99.9C355.9 99.6 355.6 96.5 355.5 92.7C355.4 90.4 355.4 87.8 355.5 85.4C355.5 84.9 340.5 88.1 340.5 88.1C340.5 88.1 341.7 93.1 341.4 97.2C341.4 97.5 341.3 97.9 341.2 98.2C341.2 98.2 341.2 98.3 341.2 98.4C340.8 100.2 340.1 107 343.4 108Z" fill="#F7A9A0"/>
<path d="M354.6 85.3999C353.7 89.2999 350.6 98.7999 342.7 98.4999C342.1 98.4999 341.6 98.3999 341.2 98.2999C341.2 98.1999 341.2 98.1999 341.2 98.0999C341.3 97.7999 341.3 97.4999 341.4 97.0999C341.7 92.9999 340.5 87.9999 340.5 87.9999C340.5 87.9999 351.3 85.7999 354.6 85.3999Z" fill="#263238"/>
<path d="M356.3 66.5C358.3 71.6 356.7 87 353.3 90.6C348.3 95.9 339.5 97.1 334.8 90.9C330.3 84.9 332.7 65 336.6 61.6C342.4 56.6 353.4 58.9 356.3 66.5Z" fill="#F7A9A0"/>
<path d="M342.6 76.9C342.6 76.8 342.7 76.9 342.6 76.9C342.5 78 342.6 79.2 343.5 79.7V79.8C342.3 79.4 342.3 77.8 342.6 76.9Z" fill="#263238"/>
<path d="M343.6 75.9C345.3 75.9 345.1 79.3 343.5 79.3C342 79.2 342.2 75.9 343.6 75.9Z" fill="#263238"/>
<path d="M336.8 76.6C336.8 76.5 336.7 76.6 336.8 76.6C336.7 77.7 336.5 78.9 335.5 79.2V79.3C336.7 79.1 336.9 77.6 336.8 76.6Z" fill="#263238"/>
<path d="M335.9 75.4C334.2 75.2 333.9 78.5 335.5 78.7C337 79 337.3 75.6 335.9 75.4Z" fill="#263238"/>
<path d="M345 74.3999C344.6 74.2999 344.2 74.0999 343.7 73.8999C343.2 73.6999 342.8 73.5999 342.5 73.0999C342.3 72.8999 342.4 72.3999 342.7 72.1999C343.2 71.7999 343.9 71.8999 344.5 72.0999C345.1 72.2999 345.6 72.6999 345.9 73.2999C346.3 73.9999 345.6 74.5999 345 74.3999Z" fill="#263238"/>
<path d="M334.7 73.7C335.2 73.7 335.6 73.5 336.1 73.4C336.6 73.3 337 73.3 337.4 72.9C337.6 72.7 337.6 72.3 337.4 72C337 71.5 336.3 71.5 335.7 71.6C335 71.7 334.5 72 334.1 72.5C333.6 73 334.1 73.7 334.7 73.7Z" fill="#263238"/>
<path d="M343.8 86.6C343.5 86.8 343.3 87.1 342.9 87.2C342.5 87.2 342.1 87 341.8 86.9C341.8 86.9 341.7 86.9 341.8 87C342 87.4 342.6 87.7 343.1 87.6C343.5 87.5 343.7 87.1 343.8 86.6C343.9 86.6 343.8 86.6 343.8 86.6Z" fill="#263238"/>
<path d="M342.9 83.5C342.3 84.4 341.4 84.8 340.5 84.9C340.1 85 339.6 84.9 339.2 84.9C339.1 84.9 339 84.9 339 84.9C338.9 84.9 338.9 84.9 338.8 84.9C338.7 84.9 338.6 84.8 338.6 84.7V84.6V84.5C338.6 83.7 338.8 82.5 338.8 82.5C338.5 82.6 337 83.2 337 82.8C337.4 79.4 337.9 75.5 339 72.2C339 72.1 339.2 72.1 339.2 72.2C338.9 75.5 338.1 78.8 337.8 82.1C338.3 81.9 339.1 81.7 339.5 81.7C339.6 81.7 339.2 84 339.2 84.4C340.4 84.5 341.4 84.2 342.9 83.5C342.8 83.3 342.9 83.4 342.9 83.5Z" fill="#263238"/>
<path d="M339.6 84.5C339.6 84.5 340.3 85.5 341.2 85.9C341.5 86 341.9 86.1 342.3 86C343.1 85.8 343.2 85.1 343.1 84.4C343 83.9 342.8 83.4 342.8 83.4C342.8 83.4 341.6 84.5 339.6 84.5Z" fill="#263238"/>
<path d="M341.2 85.9C341.5 86 341.9 86.1 342.3 86C343.1 85.8 343.2 85.1 343.1 84.4C342.3 84.5 341.4 85 341.2 85.9Z" fill="#FF6596"/>
<path d="M334.7 67.6C339.8 71.1 346.7 65.8 346.7 65.8C348.3 69.8 352.3 69.3 352.3 69.3C352.3 69.3 353.3 77.9 355.6 77.9C359.1 77.9 360.1 66.1 359 63.8C357.9 61.5 355 60.9 355 60.9C355 60.9 354.8 59.1 352.7 57.5C350.3 55.7 342.2 58.1 342.2 58.1C342.2 58.1 341.6 56.6 340.1 55.3C339.1 54.5 337.8 54.6 337 55.6C337.4 56.2 337.7 56.9 337.8 57.7C338.2 60.2 336.1 60.2 336.2 57.9C336.2 56.9 336.5 56.1 337 55.5C336 54 334.3 53.5 333.3 54.3C331.6 55.9 330.5 64.7 334.7 67.6Z" fill="#263238"/>
<path d="M354.1 79.1C354.1 79.1 357.2 74 359.5 75.1C361.8 76.2 359.6 83.4 357.1 84.6C354.5 85.7 353.5 83.4 353.5 83.4L354.1 79.1Z" fill="#F7A9A0"/>
<path d="M358.8 77.1C358.9 77.1 358.9 77.2 358.8 77.1C357 78 356.2 79.8 355.6 81.6C356.1 80.9 356.8 80.5 357.8 81.1V81.2C357 81.1 356.5 81.2 356 81.9C355.7 82.3 355.5 82.9 355.2 83.4C355.1 83.6 354.8 83.5 354.9 83.3C354.7 80.9 356.3 77.5 358.8 77.1Z" fill="#263238"/>
<path d="M54.2 315.6C54.6 305.9 54.4 296.2 53.8 286.6C52.5 266.7 49.2 246.9 44.7 227.4C42.2 216.5 39 205.7 35.8 194.9C35.7 194.6 35.2 194.7 35.3 195C45.4 232.9 53.6 272 53.1 311.4C52.9 322.4 51.7 333.3 50.6 344.2C50.6 344.5 51.1 344.6 51.1 344.3C53.1 335 53.8 325.2 54.2 315.6Z" fill="#FFC727"/>
<path d="M35.3 195C35.3 195 20.1 233.7 23.5 242.8C26.9 251.9 34 253.8 34 253.8C34 253.8 24.7 267.1 31.2 279.6C37.7 292.1 52.2 291.5 53.2 305.7C53 305.7 53.8 246.5 35.3 195Z" fill="#FFC727"/>
<path d="M51.4 281.3C51.4 281.2 51.4 281.2 51.4 281.1C49.3 254.8 44.6 228.6 36.6 203.3C36.6 203.2 36.5 203.2 36.5 203.3C39.5 214.6 42.2 226 44.5 237.4C42.5 235.4 39.9 234.2 37.2 233.3C37.1 233.3 37.1 233.4 37.2 233.4C40 234.6 42.7 236 44.7 238.4C45.1 240.6 45.6 242.9 46 245.1C42.6 241.3 37.9 239.4 33.1 237.6C33 237.6 33 237.7 33.1 237.7C38 239.7 42.9 242.3 46.3 246.5C47.5 252.9 48.5 259.4 49.4 265.8C46.9 263.2 43.8 261.4 40.3 260.6C40.2 260.6 40.1 260.7 40.2 260.8C43.8 261.8 46.9 263.9 49.4 266.7C49.4 266.7 49.4 266.7 49.5 266.7C49.8 269 50.1 271.3 50.4 273.5C48.5 271.9 46.4 270.6 44 269.7C43.9 269.7 43.9 269.8 44 269.8C46.4 270.8 48.5 272.3 50.4 274H50.5C50.8 276.2 51 278.3 51.2 280.5C47.7 276.3 43.4 273.2 38.3 271.3C38.2 271.3 38.1 271.4 38.2 271.5C43.2 273.7 47.6 277.1 50.9 281.3C51 281.4 51.1 281.4 51.2 281.4C51.5 284.7 51.8 288.1 52.1 291.4C52.1 291.4 52.2 291.5 52.2 291.4C51.9 288.1 51.7 284.7 51.4 281.3Z" fill="#263238"/>
<path d="M39.1 229.5C36.5 227.7 33.1 226.9 29.9 226.6C29.8 226.6 29.8 226.7 29.9 226.7C33.2 227.2 35.9 228.4 39 229.7C39.1 229.8 39.2 229.6 39.1 229.5Z" fill="#263238"/>
<path d="M41 270.5C38.9 269.2 36.5 268.5 34.1 268.1C34 268.1 34 268.2 34.1 268.2C36.5 268.6 38.7 269.5 40.9 270.6C41 270.7 41.1 270.5 41 270.5Z" fill="#263238"/>
<path d="M94.3 243.5C87.9 248 81.8 253.1 76.7 258.9C71.2 265.1 67.1 272.1 64.3 279.9C58.5 295.9 55.4 313.1 55.1 330.1C54.9 339.6 55.8 349 57.8 358.3C57.9 358.6 58.4 358.5 58.3 358.2C55.8 341.9 55.9 325.2 58.6 308.9C61.2 292.9 65.3 275.5 75.5 262.5C81 255.4 87.9 249.8 94.8 244.1C95.1 243.7 94.6 243.2 94.3 243.5Z" fill="#FFC727"/>
<path d="M57.3 318.6C57.3 318.6 62.5 309.8 70.2 302.2C77.8 294.6 84.3 289.2 85.2 284.1C86.2 279.1 77.6 275.3 77.6 275.3C77.6 275.3 88.2 277.2 91 272.8C93.9 268.4 95.3 242.7 95.3 242.7C95.3 242.7 76.1 256.4 67.2 275.6C58.2 294.8 57.3 318.6 57.3 318.6Z" fill="#FFC727"/>
<path d="M88.6 249.2C80.5 257.1 72.4 265.6 67.6 276C66 279.6 64.6 283.3 63.4 287.1C63.2 287.9 62.9 288.6 62.7 289.4V289.5C60.3 297.3 58.7 305.3 57.2 313.2C57.2 313.3 57.3 313.3 57.3 313.2C58.1 309.2 59 305.2 60.1 301.1H60.2C61.8 300.4 63.5 300 65.2 299.8C65.3 299.8 65.3 299.6 65.2 299.6C63.5 299.7 61.8 300 60.2 300.5C61.1 296.9 62.1 293.2 63.3 289.7C67 288.8 70.9 288.3 74.7 288.2V288.1C70.9 287.9 67.2 288.3 63.5 289.1C63.7 288.5 63.9 287.9 64.1 287.3C66.6 286.7 69.1 286.3 71.7 286V285.9C69.2 286 66.7 286.2 64.3 286.8C65.3 283.7 66.5 280.7 67.7 277.7C68.7 275.2 70 272.9 71.3 270.7C73.4 270.2 75.3 269.8 77.4 269.6C77.5 269.6 77.5 269.5 77.4 269.5C75.5 269.4 73.5 269.5 71.7 270.1C72.7 268.5 73.8 266.9 74.9 265.3C79.2 264.3 83.6 263.5 88 264.3C88.1 264.3 88.1 264.2 88 264.2C83.8 263.1 79.6 263.7 75.5 264.6C76 264 76.4 263.4 76.9 262.8C79.5 262 82.2 261.6 84.9 261.5C85 261.5 85 261.4 84.9 261.4C82.4 261.2 79.8 261.4 77.4 262.1C81 257.7 84.9 253.5 88.8 249.4C89 249.1 88.8 249 88.6 249.2Z" fill="#263238"/>
<path d="M88.4 266.7C87.1 266.6 85.9 266.4 84.6 266.6C84.4 266.6 84.5 266.9 84.6 266.9C85.9 266.9 87.1 266.8 88.4 266.9C88.5 266.9 88.5 266.7 88.4 266.7Z" fill="#263238"/>
<path d="M74.6 291.6C72.6 291.6 70.6 292.1 68.7 292.8V292.9C70.7 292.4 72.6 292.2 74.6 291.9C74.8 291.9 74.8 291.6 74.6 291.6Z" fill="#263238"/>
<path d="M70.4 283C69.6 283 68.7 283.1 67.9 283.2C67.8 283.2 67.8 283.3 67.9 283.3C68.7 283.3 69.6 283.3 70.4 283.2C70.6 283.2 70.6 283 70.4 283Z" fill="#263238"/>
<path d="M1 270.7C7.2 272.8 13.3 275.6 18.8 279.1C24.7 282.8 29.6 287.6 33.7 293.2C42.1 304.8 48.6 318 52.8 331.7C55.1 339.4 56.6 347.2 57.1 355.2C57.1 355.5 56.7 355.5 56.7 355.2C54.9 341.4 51 327.9 45.1 315.3C39.3 303 31.9 289.8 20.7 281.6C14.6 277.1 7.7 274.2 0.800004 271.2C0.400004 271.1 0.600004 270.6 1 270.7Z" fill="#FFC727"/>
<path d="M48.3 322.9C48.3 322.9 42 317 34.1 312.6C26.2 308.2 19.7 305.3 17.7 301.4C15.7 297.5 21.9 292.5 21.9 292.5C21.9 292.5 13.8 296.5 10.4 293.6C7.1 290.7 0 270.3 0 270.3C0 270.3 18.7 277 30.4 290.4C42.1 303.9 48.3 322.9 48.3 322.9Z" fill="#FFC727"/>
<path d="M47.3 318.7C37.9 301.1 25.5 285.2 8.39999 274.8C12.9 277.7 17.1 281 20.9 284.6C17.4 284.5 13.9 285.1 10.8 286.7C10.7 286.7 10.8 286.8 10.9 286.8C14.3 285.6 17.6 284.9 21.2 285.1C21.3 285.1 21.3 285.1 21.3 285.1C21.9 285.7 22.5 286.3 23.1 286.9C21.3 287 19.5 287.2 17.7 287.6V287.7C19.6 287.3 21.5 287.2 23.4 287.2C26.5 290.3 29.5 293.7 32.2 297.2C31 297 29.6 297.1 28.4 297.5C28.3 297.5 28.3 297.7 28.4 297.6C29.8 297.4 31.1 297.5 32.4 297.5C32.9 298.2 33.4 298.8 33.9 299.5C30.1 299.3 26.3 299.6 22.5 300.6C22.4 300.6 22.5 300.7 22.5 300.7C26.4 299.9 30.2 299.7 34.2 299.9C34.7 300.5 35.1 301.2 35.6 301.8C33.3 301.7 31.1 302 28.8 302.6C28.7 302.6 28.7 302.8 28.8 302.7C31.1 302.2 33.4 302 35.8 302.2C37.8 305 39.7 307.8 41.6 310.7C40.6 310.5 39.6 310.6 38.6 310.9C38.5 310.9 38.6 311 38.6 311C39.7 310.9 40.7 311 41.8 311.2C43.5 313.8 45.1 316.4 46.6 319C47.1 319.1 47.4 318.9 47.3 318.7Z" fill="#263238"/>
<path d="M32.8 304.1C31 303.9 29.1 304.2 27.4 304.8V304.9C29.2 304.6 31 304.4 32.8 304.3C32.9 304.3 32.9 304.1 32.8 304.1Z" fill="#263238"/>
<path d="M16.4 282.7C15.6 282.6 14.7 282.7 13.9 282.8C13.8 282.8 13.8 283 13.9 282.9C14.7 282.8 15.5 282.8 16.4 282.8C16.6 282.9 16.6 282.7 16.4 282.7Z" fill="#263238"/>
<path d="M72.4 381H30.2L36.2 336.9L37.7 325.6H64.9L66.4 336.9L72.4 381Z" fill="#455A64"/>
<path d="M66.4 336.9H36.2L37.7 325.6H64.9L66.4 336.9Z" fill="#263238"/>
<path d="M68.8 321.6H33.9V331.2H68.8V321.6Z" fill="#455A64"/>
</g>
<defs>
<clipPath id="clip0_3_65">
<rect width="435.2" height="419.5" fill="white"/>
</clipPath>
</defs>
</svg>
