<svg width="436" height="420" viewBox="0 0 436 420" fill="none" xmlns="http://www.w3.org/2000/svg">
<g clip-path="url(#clip0_3_1011)">
<path d="M404.5 0H370.6C359.554 0 350.6 8.95431 350.6 20V53.9C350.6 64.9457 359.554 73.9 370.6 73.9H404.5C415.546 73.9 424.5 64.9457 424.5 53.9V20C424.5 8.95431 415.546 0 404.5 0Z" fill="#24CCA7"/>
<path d="M388.7 11.8999C390.1 11.8999 391.2 12.9999 391.2 14.3999V15.6999C394.6 16.0999 397.6 17.1999 400.3 18.8999C401.2 19.3999 402.1 20.2999 402.1 21.6999C402.1 23.4999 400.6 24.8999 398.8 24.8999C398.2 24.8999 397.6 24.6999 397 24.3999C395 23.1999 393 22.2999 391 21.7999V32.9999C399.9 35.1999 403.7 38.7999 403.7 44.9999C403.7 51.3999 398.7 55.6999 391.3 56.3999V59.8999C391.3 61.2999 390.2 62.3999 388.8 62.3999C387.4 62.3999 386.2 61.2999 386.2 59.8999V56.2999C381.8 55.7999 377.8 54.2999 374.2 51.6999C373.2 51.0999 372.6 50.0999 372.6 48.8999C372.6 47.0999 374 45.6999 375.8 45.6999C376.5 45.6999 377.2 45.8999 377.7 46.2999C380.4 48.2999 383.1 49.5999 386.3 50.1999V38.7999C377.8 36.5999 373.8 33.3999 373.8 26.7999C373.8 20.4999 378.8 16.1999 386.1 15.5999V14.3999C386.2 12.9999 387.3 11.8999 388.7 11.8999ZM386.4 31.7999V21.3999C382.7 21.7999 380.8 23.6999 380.8 26.2999C380.8 28.7999 381.9 30.2999 386.4 31.7999ZM391 39.8999V50.4999C394.7 50.0999 396.8 48.1999 396.8 45.3999C396.8 42.8999 395.5 41.2999 391 39.8999Z" fill="white"/>
<path d="M94 251.5C94.5 239 94.3 226.5 93.5 214C91.8 188.3 87.6 162.7 81.8 137.6C78.5 123.5 74.5 109.6 70.3 95.6999C70.2 95.2999 69.5 95.4 69.6 95.8C82.6 144.7 93.2 195.2 92.5 246C92.3 260.2 90.6 274.2 89.3 288.3C89.3 288.7 89.9 288.8 90 288.4C92.7 276.6 93.5 263.9 94 251.5Z" fill="#FFD8D0"/>
<path d="M69.6 95.8999C69.6 95.8999 49.9 145.9 54.3 157.6C58.7 169.3 67.8 171.8 67.8 171.8C67.8 171.8 55.8 189 64.2 205.1C72.6 221.2 91.3 220.5 92.6 238.7C92.5 238.8 93.6 162.4 69.6 95.8999Z" fill="#FFD8D0"/>
<path d="M90.4 207.3C90.4 207.2 90.4 207.1 90.4 207C87.6 173 81.6 139.2 71.3 106.5C71.3 106.4 71.1 106.4 71.1 106.5C75 121.1 78.5 135.8 81.4 150.6C78.8 148 75.5 146.5 72 145.4C71.9 145.4 71.9 145.5 72 145.5C75.6 147.1 79.1 148.9 81.7 152C82.3 154.9 82.8 157.8 83.4 160.7C79 155.8 72.9 153.3 66.8 151C66.7 151 66.7 151.1 66.8 151.1C73.2 153.7 79.5 157 83.8 162.5C85.3 170.8 86.6 179.1 87.8 187.5C84.6 184.1 80.6 181.9 76.1 180.8C76 180.8 75.9 181 76 181C80.7 182.3 84.7 185 87.9 188.6C87.9 188.6 87.9 188.6 88 188.7C88.4 191.6 88.8 194.6 89.1 197.5C86.6 195.4 83.9 193.8 80.9 192.5C80.8 192.5 80.8 192.6 80.9 192.6C84 193.9 86.7 195.8 89.1 198.1H89.2C89.5 200.9 89.9 203.7 90.1 206.5C85.6 201.1 80 197.1 73.4 194.6C73.3 194.6 73.2 194.7 73.3 194.8C79.7 197.6 85.4 202 89.7 207.5C89.8 207.6 90 207.7 90.1 207.6C90.5 211.9 90.9 216.2 91.2 220.5C91.2 220.6 91.3 220.6 91.3 220.5C91.1 216.1 90.8 211.7 90.4 207.3Z" fill="#263238"/>
<path d="M74.6 140.4C71.2 138.1 66.8 137.1 62.8 136.7C62.7 136.7 62.7 136.8 62.8 136.9C67 137.5 70.6 139.1 74.5 140.7C74.6 140.8 74.7 140.5 74.6 140.4Z" fill="#263238"/>
<path d="M77 193.3C74.3 191.7 71.2 190.8 68.1 190.3C68 190.3 68 190.4 68.1 190.5C71.2 191.1 74 192.2 76.9 193.6C77 193.6 77.1 193.4 77 193.3Z" fill="#263238"/>
<path d="M145.8 158.4C137.6 164.2 129.7 170.8 123 178.3C115.9 186.3 110.7 195.3 107 205.4C99.6 226 95.5 248.3 95.1 270.2C94.9 282.5 96 294.6 98.6 306.6C98.7 307 99.3 306.9 99.3 306.5C96.1 285.4 96.2 263.9 99.7 242.8C103.1 222.1 108.4 199.7 121.5 182.9C128.7 173.8 137.6 166.6 146.4 159.1C146.9 158.7 146.3 158.1 145.8 158.4Z" fill="#FFD8D0"/>
<path d="M98 255.3C98 255.3 104.8 243.9 114.6 234.1C124.4 224.3 132.7 217.3 134 210.8C135.3 204.3 124.1 199.5 124.1 199.5C124.1 199.5 137.7 201.9 141.5 196.2C145.2 190.5 147 157.4 147 157.4C147 157.4 122.2 175.1 110.7 199.9C99.2 224.7 98 255.3 98 255.3Z" fill="#FFD8D0"/>
<path d="M138.5 165.9C128.1 176.1 117.6 187.1 111.4 200.5C109.3 205.1 107.5 209.9 105.9 214.8C105.6 215.8 105.3 216.8 105 217.7C105 217.7 105 217.8 104.9 217.9C101.9 227.9 99.7 238.3 97.9 248.5C97.9 248.6 98 248.6 98 248.5C99.1 243.3 100.2 238.1 101.6 232.9H101.7C103.8 232 105.9 231.5 108.2 231.2C108.3 231.2 108.3 230.9 108.2 230.9C106 231 103.9 231.4 101.8 232.1C103 227.4 104.3 222.7 105.8 218.1C110.6 216.9 115.6 216.3 120.5 216.2C120.6 216.2 120.6 216.1 120.5 216.1C115.5 215.9 110.9 216.3 106 217.3C106.3 216.5 106.5 215.7 106.8 214.9C110 214.2 113.3 213.5 116.6 213.2C116.7 213.2 116.7 213.1 116.6 213.1C113.4 213.2 110.2 213.5 107 214.3C108.3 210.3 109.8 206.4 111.4 202.5C112.7 199.3 114.3 196.3 116.1 193.4C118.7 192.8 121.3 192.2 124 192C124.1 192 124.1 191.9 124 191.9C121.5 191.7 119 191.9 116.6 192.6C117.9 190.5 119.3 188.4 120.7 186.4C126.3 185.2 131.9 184 137.6 185.1C137.7 185.1 137.7 185 137.6 184.9C132.2 183.5 126.8 184.3 121.4 185.4C122 184.6 122.6 183.8 123.2 183.1C126.6 182 130 181.5 133.6 181.5C133.7 181.5 133.7 181.4 133.6 181.4C130.3 181.1 127.1 181.4 123.9 182.3C128.5 176.6 133.6 171.2 138.6 165.9C138.9 165.8 138.7 165.6 138.5 165.9Z" fill="#263238"/>
<path d="M138.2 188.4C136.6 188.2 134.9 188 133.3 188.2C133.1 188.2 133.1 188.5 133.3 188.6C134.9 188.6 136.6 188.5 138.2 188.6C138.3 188.6 138.3 188.4 138.2 188.4Z" fill="#263238"/>
<path d="M120.4 220.6C117.8 220.6 115.2 221.3 112.8 222.1C112.7 222.1 112.8 222.2 112.8 222.2C115.3 221.6 117.9 221.4 120.4 220.9C120.6 220.9 120.6 220.6 120.4 220.6Z" fill="#263238"/>
<path d="M115 209.5C113.9 209.4 112.8 209.6 111.8 209.8C111.7 209.8 111.7 210 111.8 210C112.9 210 114 210 115.1 209.8C115.2 209.8 115.2 209.5 115 209.5Z" fill="#263238"/>
<path d="M25.4 193.6C33.4 196.4 41.3 199.9 48.4 204.4C56 209.2 62.3 215.3 67.6 222.6C78.4 237.5 86.8 254.7 92.2 272.3C95.2 282.2 97.1 292.3 97.8 302.6C97.8 303 97.3 303 97.2 302.7C94.9 284.9 89.8 267.5 82.2 251.2C74.7 235.3 65.2 218.3 50.7 207.7C42.8 202 33.9 198.2 25.1 194.2C24.6 194.1 24.9 193.4 25.4 193.6Z" fill="#FFD8D0"/>
<path d="M86.4 261C86.4 261 78.3 253.4 68.1 247.7C57.9 242 49.5 238.3 47 233.3C44.5 228.3 52.4 221.9 52.4 221.9C52.4 221.9 41.9 227 37.6 223.3C33.3 219.5 24.2 193.2 24.2 193.2C24.2 193.2 48.3 201.8 63.4 219.2C78.4 236.4 86.4 261 86.4 261Z" fill="#FFD8D0"/>
<path d="M85.2 255.5C73.1 232.8 57 212.3 34.9 198.8C40.7 202.5 46.1 206.8 51.1 211.4C46.6 211.3 42.1 212 38.1 214.1C38 214.1 38.1 214.3 38.2 214.2C42.6 212.7 46.9 211.7 51.6 211.9C51.7 211.9 51.7 211.9 51.8 211.8C52.6 212.5 53.4 213.3 54.1 214.1C51.8 214.2 49.4 214.5 47.2 215C47.1 215 47.2 215.1 47.2 215.1C49.7 214.6 52 214.5 54.5 214.5C58.5 218.6 62.3 222.9 65.9 227.4C64.3 227.2 62.6 227.3 61 227.8C60.9 227.8 60.9 228 61 228C62.8 227.8 64.4 227.8 66.2 227.9C66.9 228.7 67.5 229.6 68.2 230.4C63.2 230.1 58.4 230.6 53.5 231.8C53.4 231.8 53.4 231.9 53.5 231.9C58.5 230.9 63.5 230.6 68.6 230.9C69.2 231.7 69.8 232.6 70.4 233.4C67.4 233.3 64.6 233.7 61.7 234.4C61.6 234.4 61.6 234.6 61.7 234.6C64.7 233.9 67.7 233.8 70.7 233.9C73.3 237.5 75.8 241.1 78.2 244.8C76.9 244.5 75.6 244.7 74.4 245C74.3 245 74.4 245.1 74.4 245.1C75.8 244.9 77.1 245.1 78.5 245.3C80.7 248.6 82.7 252 84.7 255.4C84.9 256 85.3 255.8 85.2 255.5Z" fill="#263238"/>
<path d="M66.4 236.7C64 236.5 61.6 236.9 59.4 237.6C59.3 237.6 59.4 237.7 59.4 237.7C61.7 237.3 64 237.1 66.4 237C66.5 237 66.5 236.7 66.4 236.7Z" fill="#263238"/>
<path d="M45.3 209.1C44.2 209 43.1 209.1 42.1 209.3C42 209.3 42 209.5 42.1 209.5C43.2 209.4 44.2 209.4 45.3 209.4C45.5 209.4 45.5 209.1 45.3 209.1Z" fill="#263238"/>
<path d="M117.6 336.3H63.1L70.8 279.4L72.8 264.8H107.8L109.8 279.4L117.6 336.3Z" fill="#455A64"/>
<path d="M109.8 279.4H70.8L72.8 264.8H107.8L109.8 279.4Z" fill="#263238"/>
<path d="M112.8 259.7H67.8V272.1H112.8V259.7Z" fill="#455A64"/>
<path d="M115 50.8H88.5V62H115V50.8Z" fill="#EBEBEB"/>
<path d="M100.2 64.9001H73.7V76.1001H100.2V64.9001Z" fill="#EBEBEB"/>
<path d="M235.7 412.6C345.052 412.6 433.7 399.84 433.7 384.1C433.7 368.36 345.052 355.6 235.7 355.6C126.348 355.6 37.7 368.36 37.7 384.1C37.7 399.84 126.348 412.6 235.7 412.6Z" fill="#4A56E2"/>
<path d="M326.2 22.7V344.7C326.2 354.2 318.6 361.9 309.3 361.9H142.8C133.5 361.9 125.9 354.2 125.9 344.7V22.7C125.9 13.2 133.5 5.5 142.8 5.5H309.4C318.6 5.6 326.2 13.3 326.2 22.7Z" fill="#263238"/>
<path d="M315.7 38.8999V334.2C315.7 343.2 308.9 350.5 300.6 350.5H151.6C143.2 350.5 136.5 343.2 136.5 334.2V38.8999C136.5 20.4999 143.3 16.3999 151.6 16.3999H181.4C183.1 16.3999 184.5 18.3999 184.5 20.7999V21.8999C184.5 27.5999 187.6 27.6999 191.5 27.6999H260.5C264.4 27.6999 267.5 27.6999 267.5 21.8999V20.7999C267.5 18.3999 268.9 16.3999 270.6 16.3999H300.5C308.9 16.4999 315.7 22.0999 315.7 38.8999Z" fill="white"/>
<path d="M235.5 20.5001H216.7C216.1 20.5001 215.5 20.0001 215.5 19.3001C215.5 18.7001 216 18.1001 216.7 18.1001H235.5C236.1 18.1001 236.7 18.6001 236.7 19.3001C236.6 20.0001 236.1 20.5001 235.5 20.5001Z" fill="white"/>
<path d="M297.3 147.8L297.5 227.7C297.5 232.2 293.9 235.8 289.4 235.8L162.7 236.1C158.2 236.1 154.6 232.5 154.6 228L154.4 148.1C154.4 143.9 157.7 140.6 161.9 140.6L289.7 140.3C293.9 140.3 297.3 143.7 297.3 147.8Z" fill="#4A56E2"/>
<path d="M276.827 217.563C277.403 213.517 274.59 209.77 270.544 209.194C266.498 208.618 262.751 211.431 262.175 215.477C261.599 219.524 264.412 223.27 268.458 223.846C272.504 224.422 276.251 221.609 276.827 217.563Z" fill="#37474F"/>
<path d="M286.1 216.5C286.1 220.6 282.8 223.9 278.7 224C274.6 224 271.3 220.7 271.2 216.6C271.2 212.5 274.5 209.2 278.6 209.1C282.7 209.1 286.1 212.4 286.1 216.5Z" fill="#FFC727"/>
<path d="M189.1 172.9H170.7C168.4 172.9 166.5 171 166.5 168.7V158.6C166.5 156.3 168.4 154.4 170.7 154.4H189.1C191.4 154.4 193.3 156.3 193.3 158.6V168.7C193.3 171 191.4 172.8 189.1 172.9Z" fill="#FFC727"/>
<path d="M280.8 164.2H268.7C265.9 164.2 263.6 161.9 263.6 159.1C263.6 156.3 265.9 154 268.7 154H280.8C283.6 154 285.9 156.3 285.9 159.1C285.9 162 283.7 164.2 280.8 164.2Z" fill="white"/>
<path d="M165.6 189.8L164.5 190.4H164.4C164.3 190.4 164.2 190.3 164.2 190.3C164.1 190.2 164.2 190 164.3 189.9L165.8 189C165.9 188.9 166.1 189 166.2 189.1C166.2 189.2 166.2 189.2 166.2 189.3V196.4C166.2 196.5 166.1 196.7 165.9 196.7C165.8 196.7 165.6 196.6 165.6 196.4V189.8Z" fill="#F8F8F8"/>
<path d="M168 196.3L171.6 193C172 192.6 172.3 192.1 172.3 191.5C172.3 191 172.1 190.5 171.8 190.2C171.4 189.8 170.9 189.5 170.3 189.5C169.8 189.5 169.3 189.7 168.9 190L168.5 190.3C168.4 190.4 168.2 190.4 168.1 190.3C168 190.2 168 190 168.1 189.9L168.5 189.5C169 189.1 169.6 188.8 170.2 188.8C170.9 188.8 171.6 189.1 172.1 189.6C172.6 190.1 172.8 190.7 172.8 191.3C172.8 192 172.5 192.7 172 193.2L168.9 196H172.6C172.7 196 172.9 196.1 172.9 196.3C172.9 196.4 172.8 196.6 172.6 196.6H168.3C168.2 196.6 168.1 196.6 168.1 196.5C167.9 196.6 167.9 196.4 168 196.3Z" fill="#F8F8F8"/>
<path d="M179.3 189.5L177.3 191.6C177.8 191.7 178.3 191.9 178.6 192.3C179.1 192.8 179.4 193.5 179.4 194.2C179.4 194.9 179.1 195.6 178.6 196.1C178.1 196.6 177.4 196.9 176.7 196.9C176 196.9 175.4 196.6 174.8 196.1C174.7 196 174.7 195.8 174.8 195.7C174.9 195.6 175.1 195.6 175.2 195.7C175.6 196.1 176.1 196.3 176.7 196.3C177.2 196.3 177.8 196.1 178.2 195.7C178.6 195.3 178.8 194.8 178.8 194.2C178.8 193.7 178.6 193.1 178.2 192.7C177.8 192.3 177.3 192.1 176.7 192.1C176.6 192.1 176.5 192.1 176.5 192C176.4 191.9 176.4 191.7 176.5 191.6L178.4 189.6H175.4C175.2 189.6 175.1 189.5 175.1 189.3C175.1 189.1 175.2 189 175.4 189H179C179.2 189 179.3 189.1 179.3 189.3C179.4 189.3 179.3 189.4 179.3 189.5C179.3 189.4 179.3 189.5 179.3 189.5Z" fill="#F8F8F8"/>
<path d="M185.8 195.2H181.6C181.5 195.2 181.5 195.2 181.4 195.1C181.3 195 181.3 194.8 181.4 194.7L185.9 189.1C186 189 186.2 189 186.3 189.1L186.4 189.2V194.5H186.9C187.1 194.5 187.2 194.6 187.2 194.8C187.2 194.9 187.1 195.1 186.9 195.1H186.4V196.4C186.4 196.5 186.3 196.7 186.1 196.7C186 196.7 185.8 196.6 185.8 196.4V195.2ZM185.8 194.6V190L182.1 194.6H185.8Z" fill="#F8F8F8"/>
<path d="M195.6 196C195.5 195.9 195.5 195.7 195.6 195.6C195.7 195.5 195.9 195.5 196 195.6C196.4 196 196.9 196.2 197.5 196.2C198 196.2 198.6 196 199 195.6C199.4 195.2 199.6 194.7 199.6 194.1C199.6 193.6 199.4 193 199 192.6C198.6 192.2 198.1 192 197.5 192C197 192 196.4 192.2 196 192.6C195.9 192.7 195.7 192.7 195.6 192.6L195.5 192.5V192.4C195.5 192.4 195.5 192.4 195.5 192.3L195.9 189.2C195.9 189.1 195.9 189 196 189C196 189 196.1 188.9 196.2 188.9H199.8C200 188.9 200.1 189 200.1 189.2C200.1 189.4 200 189.5 199.8 189.5H196.4L196.1 191.8C196.5 191.6 197 191.4 197.4 191.4C198.1 191.4 198.7 191.6 199.3 192.2C199.8 192.7 200.1 193.4 200.1 194.1C200.1 194.8 199.9 195.5 199.3 196C198.8 196.5 198.1 196.8 197.4 196.8C196.8 196.7 196.1 196.5 195.6 196Z" fill="#F8F8F8"/>
<path d="M203 190.6C203.5 189.7 204.4 189 205.7 188.9C205.8 188.9 206 189 206 189.2C206 189.4 205.9 189.5 205.7 189.5C204.6 189.5 203.9 190.1 203.4 190.9C203.1 191.4 203 191.9 202.8 192.5C203.3 192 204 191.6 204.7 191.6C206.1 191.6 207.3 192.7 207.3 194.2C207.3 195.6 206.2 196.8 204.7 196.8C203.3 196.8 202.2 195.7 202.1 194.3C202.1 194.1 202.1 194 202.1 193.8C202.2 192.7 202.4 191.6 203 190.6ZM202.8 194.2C202.8 194.3 202.8 194.3 202.8 194.3V194.4C202.9 195.4 203.8 196.2 204.8 196.2C205.9 196.2 206.8 195.3 206.8 194.2C206.8 193.1 205.9 192.2 204.7 192.2C203.7 192.1 202.8 193 202.8 194.2Z" fill="#F8F8F8"/>
<path d="M210.2 196.3L213.1 189.5H209.3C209.2 189.5 209 189.4 209 189.2C209 189.1 209.1 188.9 209.3 188.9H213.4C213.5 188.9 213.5 188.9 213.6 188.9C213.7 188.9 213.7 189 213.7 189.1V189.2C213.7 189.3 213.7 189.3 213.7 189.3L210.7 196.5C210.7 196.6 210.6 196.7 210.5 196.7H210.4C210.2 196.6 210.2 196.4 210.2 196.3Z" fill="#F8F8F8"/>
<path d="M217.9 188.9C218.8 188.9 219.5 189.6 219.5 190.5C219.5 191 219.2 191.5 218.8 191.8C219.7 192.2 220.4 193.1 220.4 194.1C220.4 195.5 219.3 196.6 217.9 196.6C216.5 196.6 215.4 195.5 215.4 194.1C215.4 193.1 216 192.1 217 191.8C216.6 191.5 216.4 191 216.4 190.5C216.3 189.6 217 188.9 217.9 188.9ZM217.9 196.1C219 196.1 219.9 195.2 219.9 194.1C219.9 193 219 192.1 217.9 192.1C216.8 192.1 215.9 193 215.9 194.1C215.9 195.3 216.8 196.1 217.9 196.1ZM217.9 191.6C218.5 191.6 219 191.1 219 190.5C219 189.9 218.5 189.4 217.9 189.4C217.3 189.4 216.8 189.9 216.8 190.5C216.8 191.1 217.3 191.6 217.9 191.6Z" fill="#F8F8F8"/>
<path d="M231.7 188.9C233 188.9 234.1 189.9 234.3 191.2C234.3 191.2 234.3 191.2 234.3 191.3C234.3 191.5 234.3 191.7 234.3 192C234.3 193 234.1 194.2 233.6 195.1C233.1 196 232.2 196.7 230.9 196.8C230.7 196.8 230.6 196.7 230.6 196.5C230.6 196.3 230.7 196.2 230.9 196.2C232 196.2 232.7 195.6 233.2 194.8C233.5 194.3 233.7 193.8 233.8 193.2C233.3 193.7 232.6 194.1 231.9 194.1C230.5 194.1 229.3 193 229.3 191.5C229.2 190 230.3 188.9 231.7 188.9ZM233.8 191.4C233.8 190.3 232.9 189.4 231.8 189.4C230.7 189.4 229.8 190.3 229.8 191.4C229.8 192.5 230.7 193.4 231.8 193.4C232.9 193.4 233.8 192.5 233.8 191.4Z" fill="#F8F8F8"/>
<path d="M236.3 192.7C236.3 191.7 236.6 190.7 237 190C237.5 189.3 238.2 188.8 238.9 188.8C239.7 188.8 240.4 189.3 240.8 190C241.3 190.7 241.6 191.7 241.6 192.7C241.6 193.7 241.3 194.7 240.9 195.4C240.4 196.1 239.7 196.6 239 196.6C238.2 196.6 237.5 196.1 237.1 195.4C236.6 194.7 236.3 193.8 236.3 192.7ZM236.8 192.7C236.8 193.7 237.1 194.5 237.5 195.1C237.9 195.7 238.4 196 239 196C239.6 196 240.1 195.7 240.5 195.1C240.9 194.5 241.2 193.6 241.2 192.7C241.2 191.7 240.9 190.9 240.5 190.3C240.1 189.7 239.6 189.4 239 189.4C238.4 189.4 237.9 189.7 237.5 190.3C237.1 190.9 236.8 191.8 236.8 192.7Z" fill="#F8F8F8"/>
<path d="M245.3 189.6L244.2 190.2H244.1C244 190.2 243.9 190.1 243.9 190.1C243.8 190 243.9 189.8 244 189.7L245.5 188.8C245.6 188.7 245.8 188.8 245.9 188.9C245.9 189 245.9 189 245.9 189.1V196.2C245.9 196.3 245.8 196.5 245.6 196.5C245.5 196.5 245.3 196.4 245.3 196.2V189.6Z" fill="#F8F8F8"/>
<path d="M247.7 196.1L251.3 192.8C251.7 192.4 252 191.9 252 191.3C252 190.8 251.8 190.3 251.5 190C251.1 189.6 250.6 189.3 250 189.3C249.5 189.3 249 189.5 248.6 189.8L248.2 190.1C248.1 190.2 247.9 190.2 247.8 190.1C247.7 190 247.7 189.8 247.8 189.7L248.2 189.3C248.7 188.9 249.3 188.6 249.9 188.6C250.6 188.6 251.3 188.9 251.8 189.4C252.3 189.9 252.5 190.5 252.5 191.1C252.5 191.8 252.2 192.5 251.7 193L248.6 195.8H252.3C252.4 195.8 252.6 195.9 252.6 196.1C252.6 196.2 252.5 196.4 252.3 196.4H248C247.9 196.4 247.8 196.4 247.8 196.3C247.6 196.4 247.6 196.2 247.7 196.1Z" fill="#F8F8F8"/>
<path d="M265.6 189.3L263.6 191.4C264.1 191.5 264.6 191.7 264.9 192.1C265.4 192.6 265.7 193.3 265.7 194C265.7 194.7 265.4 195.4 264.9 195.9C264.4 196.4 263.7 196.7 263 196.7C262.3 196.7 261.7 196.4 261.1 195.9C261 195.8 261 195.6 261.1 195.5C261.2 195.4 261.4 195.4 261.5 195.5C261.9 195.9 262.4 196.1 263 196.1C263.5 196.1 264.1 195.9 264.5 195.5C264.9 195.1 265.1 194.6 265.1 194C265.1 193.5 264.9 192.9 264.5 192.5C264.1 192.1 263.6 191.9 263 191.9C262.9 191.9 262.8 191.9 262.8 191.8C262.7 191.7 262.7 191.5 262.8 191.4L264.7 189.4H261.7C261.5 189.4 261.4 189.3 261.4 189.1C261.4 188.9 261.5 188.8 261.7 188.8H265.3C265.5 188.8 265.6 188.9 265.6 189.1C265.7 189.1 265.7 189.1 265.6 189.3C265.7 189.2 265.7 189.2 265.6 189.3Z" fill="#F8F8F8"/>
<path d="M272.2 194.9H268C267.9 194.9 267.9 194.9 267.8 194.8C267.7 194.7 267.7 194.5 267.8 194.4L272.3 188.8C272.4 188.7 272.6 188.7 272.7 188.8L272.8 188.9V194.2H273.3C273.5 194.2 273.6 194.3 273.6 194.5C273.6 194.6 273.5 194.8 273.3 194.8H272.8V196.1C272.8 196.2 272.7 196.4 272.5 196.4C272.4 196.4 272.2 196.3 272.2 196.1V194.9ZM272.2 194.4V189.8L268.5 194.4H272.2Z" fill="#F8F8F8"/>
<path d="M275.3 195.8C275.2 195.7 275.2 195.5 275.3 195.4C275.4 195.3 275.6 195.3 275.7 195.4C276.1 195.8 276.6 196 277.2 196C277.7 196 278.3 195.8 278.7 195.4C279.1 195 279.3 194.5 279.3 193.9C279.3 193.4 279.1 192.8 278.7 192.4C278.3 192 277.8 191.8 277.2 191.8C276.7 191.8 276.1 192 275.7 192.4C275.6 192.5 275.4 192.5 275.3 192.4L275.2 192.3V192.2C275.2 192.2 275.2 192.2 275.2 192.1L275.6 189C275.6 188.9 275.6 188.8 275.7 188.8C275.7 188.8 275.8 188.7 275.9 188.7H279.5C279.7 188.7 279.8 188.8 279.8 189C279.8 189.2 279.7 189.3 279.5 189.3H276.1L275.8 191.6C276.2 191.4 276.7 191.2 277.1 191.2C277.8 191.2 278.4 191.4 279 192C279.5 192.5 279.8 193.2 279.8 193.9C279.8 194.6 279.6 195.3 279 195.8C278.5 196.3 277.8 196.6 277.1 196.6C276.5 196.5 275.8 196.3 275.3 195.8Z" fill="#F8F8F8"/>
<path d="M282.7 190.4C283.2 189.5 284.1 188.8 285.4 188.7C285.5 188.7 285.7 188.8 285.7 189C285.7 189.2 285.6 189.3 285.4 189.3C284.3 189.3 283.6 189.9 283.1 190.7C282.8 191.2 282.7 191.7 282.5 192.3C283 191.8 283.7 191.4 284.4 191.4C285.8 191.4 287 192.5 287 194C287 195.4 285.9 196.6 284.4 196.6C283 196.6 281.9 195.5 281.8 194.1C281.8 193.9 281.8 193.8 281.8 193.6C281.9 192.5 282.1 191.3 282.7 190.4ZM282.5 194C282.5 194.1 282.5 194.1 282.5 194.1V194.2C282.6 195.2 283.5 196 284.5 196C285.6 196 286.5 195.1 286.5 194C286.5 192.9 285.6 192 284.4 192C283.4 191.9 282.5 192.8 282.5 194Z" fill="#F8F8F8"/>
<path d="M234.496 210.012L166.596 210.189L166.605 213.489L234.505 213.312L234.496 210.012Z" fill="#263238"/>
<path d="M214.596 217.439L166.596 217.563L166.605 220.863L214.605 220.739L214.596 217.439Z" fill="#263238"/>
<path d="M258.897 154.157L225.097 154.244L225.105 157.544L258.905 157.457L258.897 154.157Z" fill="#263238"/>
<path d="M155.5 124.4C155.5 124.3 155.6 124.1 155.8 124.1H157.8C158.9 124.1 159.9 125 159.9 126.2C159.9 127.3 159 128.3 157.8 128.3H156V131.2C156 131.3 155.9 131.5 155.7 131.5C155.6 131.5 155.4 131.4 155.4 131.2V124.4H155.5ZM157.8 127.9C158.7 127.9 159.4 127.2 159.4 126.3C159.4 125.4 158.7 124.7 157.8 124.7H156V127.9H157.8Z" fill="#263238"/>
<path d="M165.8 126.6V131.2C165.8 131.3 165.7 131.5 165.5 131.5C165.4 131.5 165.2 131.4 165.2 131.2V130.4C164.8 131 164.1 131.4 163.3 131.4C162 131.4 160.9 130.2 160.9 128.8C160.9 127.4 162 126.2 163.3 126.2C164.1 126.2 164.8 126.6 165.2 127.2V126.4C165.2 126.3 165.3 126.1 165.5 126.1C165.7 126.4 165.8 126.5 165.8 126.6ZM165.3 128.9C165.3 127.8 164.4 126.8 163.4 126.8C162.4 126.8 161.5 127.7 161.5 128.9C161.5 130 162.4 131 163.4 131C164.4 131 165.3 130.1 165.3 128.9Z" fill="#263238"/>
<path d="M167.9 126.6C167.9 126.5 168 126.4 168.1 126.4C168.2 126.4 168.4 126.5 168.4 126.6V129.4C168.4 130.3 169.1 131 170 131C170.9 131 171.6 130.3 171.6 129.4V126.6V126.5L171.7 126.4C171.7 126.4 171.8 126.4 171.8 126.5L171.9 126.6V126.7V129.5V129.6V131.2C171.9 132.5 170.8 133.6 169.5 133.6C169.1 133.6 168.8 133.5 168.4 133.4C168.3 133.3 168.2 133.2 168.3 133.1C168.4 133 168.5 132.9 168.6 133C168.9 133.1 169.1 133.2 169.4 133.2C170.5 133.2 171.3 132.4 171.3 131.3V131C170.9 131.4 170.4 131.7 169.7 131.7C168.6 131.7 167.6 130.8 167.6 129.6V126.6H167.9Z" fill="#263238"/>
<path d="M181.7 128.5C181.7 127.6 181 126.9 180.1 126.9C179.2 126.9 178.5 127.6 178.5 128.5V131.3C178.5 131.4 178.4 131.4 178.4 131.4H178.3C178.3 131.4 178.3 131.4 178.2 131.4V128.6C178.2 127.7 177.5 127 176.6 127C175.7 127 175 127.7 175 128.6V131.4C175 131.5 175 131.6 174.9 131.6C174.9 131.6 174.9 131.6 174.8 131.6C174.7 131.6 174.6 131.5 174.6 131.4V131.3V128.5V128.4V126.6C174.6 126.5 174.7 126.4 174.8 126.4C174.9 126.4 175.1 126.5 175.1 126.6V127.1C175.5 126.7 176 126.4 176.7 126.4C177.5 126.4 178.2 126.8 178.5 127.5C178.9 126.9 179.6 126.4 180.3 126.4C181.4 126.4 182.4 127.3 182.4 128.5V131.3C182.4 131.4 182.3 131.5 182.1 131.5C182 131.5 181.9 131.4 181.9 131.3V128.5H181.7Z" fill="#263238"/>
<path d="M184 129C184 127.6 185.1 126.4 186.5 126.4C187.8 126.4 188.9 127.4 189 128.8C189 128.9 188.9 129 188.7 129H184.5C184.6 130.1 185.4 131 186.5 131C187.2 131 187.8 130.6 188.1 130.1C188.2 130 188.3 130 188.4 130C188.5 130.1 188.6 130.2 188.5 130.4C188.1 131.1 187.3 131.6 186.4 131.6C185.1 131.5 184 130.4 184 129ZM184.5 128.5H188.4C188.2 127.5 187.4 126.8 186.5 126.8C185.5 126.9 184.7 127.6 184.5 128.5Z" fill="#263238"/>
<path d="M194.4 128.5C194.4 127.6 193.7 126.9 192.8 126.9C191.9 126.9 191.2 127.6 191.2 128.5V131.3C191.2 131.3 191.2 131.4 191.1 131.4C191.1 131.5 191 131.5 190.9 131.5H190.8C190.7 131.5 190.7 131.4 190.6 131.4V131.3V128.5V128.4V126.7C190.6 126.6 190.7 126.4 190.9 126.4C191 126.4 191.1 126.5 191.1 126.7V127.2C191.5 126.8 192 126.5 192.7 126.5C193.8 126.5 194.8 127.4 194.8 128.6V131.4C194.8 131.5 194.7 131.7 194.5 131.7C194.4 131.7 194.2 131.6 194.2 131.4V128.5H194.4Z" fill="#263238"/>
<path d="M198.9 126.6C198.9 126.7 198.8 126.9 198.6 126.9H198V130.6C198 130.9 198.3 131 198.4 131C198.5 131 198.7 131.1 198.7 131.3C198.7 131.4 198.6 131.6 198.4 131.6C197.9 131.6 197.5 131.2 197.5 130.7V127H196.9C196.6 127 196.6 126.9 196.6 126.7C196.6 126.6 196.6 126.4 196.9 126.4H197.5V124.5C197.5 124.4 197.6 124.2 197.8 124.2C197.9 124.2 198.1 124.3 198.1 124.5V126.4H198.8C198.8 126.4 198.9 126.5 198.9 126.6Z" fill="#263238"/>
<path d="M211.7 128.5C211.7 127.6 211 126.9 210.1 126.9C209.2 126.9 208.5 127.6 208.5 128.5V131.3C208.5 131.4 208.4 131.4 208.4 131.4H208.3C208.3 131.4 208.3 131.4 208.2 131.4V128.6C208.2 127.7 207.5 127 206.6 127C205.7 127 205 127.7 205 128.6V131.4C205 131.5 205 131.6 204.9 131.6C204.9 131.6 204.9 131.6 204.8 131.6C204.7 131.6 204.6 131.5 204.6 131.4V131.3V128.5V128.4V126.6C204.6 126.5 204.7 126.4 204.8 126.4C204.9 126.4 205.1 126.5 205.1 126.6V127.1C205.5 126.7 206 126.4 206.7 126.4C207.5 126.4 208.2 126.8 208.5 127.5C208.9 126.9 209.6 126.4 210.3 126.4C211.4 126.4 212.4 127.3 212.4 128.5V131.3C212.4 131.4 212.3 131.5 212.1 131.5C212 131.5 211.9 131.4 211.9 131.3V128.5H211.7Z" fill="#263238"/>
<path d="M214 129C214 127.6 215.1 126.4 216.5 126.4C217.8 126.4 218.9 127.4 219 128.8C219 128.9 218.9 129 218.7 129H214.5C214.6 130.1 215.4 131 216.5 131C217.2 131 217.8 130.6 218.1 130.1C218.2 130 218.3 130 218.4 130C218.5 130.1 218.6 130.2 218.5 130.4C218.1 131.1 217.3 131.6 216.4 131.6C215.1 131.5 214 130.4 214 129ZM214.5 128.5H218.4C218.2 127.5 217.4 126.8 216.5 126.8C215.5 126.9 214.7 127.6 214.5 128.5Z" fill="#263238"/>
<path d="M222.1 126.6C222.1 126.7 222 126.9 221.8 126.9H221.1V130.6C221.1 130.9 221.4 131 221.5 131C221.6 131 221.8 131.1 221.8 131.3C221.8 131.4 221.7 131.6 221.5 131.6C221 131.6 220.6 131.2 220.6 130.7V127H220C219.7 127 219.7 126.9 219.7 126.7C219.7 126.6 219.7 126.4 220 126.4H220.6V124.5C220.6 124.4 220.7 124.2 220.9 124.2C221 124.2 221.2 124.3 221.2 124.5V126.4H221.9C222 126.4 222.1 126.5 222.1 126.6Z" fill="#263238"/>
<path d="M228 128.4C228 127.5 227.3 126.9 226.4 126.9C225.5 126.9 224.8 127.5 224.8 128.4V131.2C224.8 131.3 224.7 131.3 224.6 131.3C224.5 131.3 224.5 131.3 224.4 131.2V131.1V131V128.2V128.1V124.2C224.4 124.1 224.5 123.9 224.7 123.9C224.8 123.9 225 124 225 124.2V126.9C225.4 126.4 226 126.1 226.6 126.1C227.8 126.1 228.7 126.9 228.7 128.1V130.9C228.7 131 228.6 131.2 228.4 131.2C228.3 131.2 228.2 131.1 228.2 130.9V128.4H228Z" fill="#263238"/>
<path d="M232.9 126.4C234.2 126.4 235.3 127.6 235.3 129C235.3 130.4 234.2 131.6 232.9 131.6C231.6 131.6 230.5 130.4 230.5 129C230.4 127.6 231.5 126.4 232.9 126.4ZM232.9 131C233.9 131 234.8 130.1 234.8 128.9C234.8 127.8 233.9 126.8 232.9 126.8C231.9 126.8 231 127.7 231 128.9C230.9 130.1 231.8 131 232.9 131Z" fill="#263238"/>
<path d="M241.3 130.5C240.9 131.1 240.1 131.5 239.3 131.5C237.9 131.5 236.8 130.4 236.8 129C236.8 127.6 237.9 126.4 239.3 126.4C240.1 126.4 240.8 126.8 241.3 127.4V124.5C241.3 124.4 241.4 124.2 241.6 124.2C241.7 124.2 241.8 124.3 241.8 124.5V128.9V129V131.3C241.8 131.4 241.7 131.6 241.6 131.6C241.5 131.6 241.3 131.5 241.3 131.3V130.5ZM241.3 129V128.8C241.3 127.7 240.4 126.8 239.3 126.8C238.2 126.8 237.3 127.7 237.3 128.9C237.3 130 238.2 130.9 239.3 130.9C240.4 131 241.3 130.1 241.3 129Z" fill="#263238"/>
<path d="M157.4 75.4999H155.2C155.1 75.4999 154.9 75.3999 154.9 75.1999C154.9 75.0999 155 74.8999 155.2 74.8999H160.1C160.2 74.8999 160.4 74.9999 160.4 75.1999C160.4 75.2999 160.3 75.4999 160.1 75.4999H157.9V81.9999C157.9 82.0999 157.8 82.2999 157.6 82.2999C157.5 82.2999 157.3 82.1999 157.3 81.9999V75.4999H157.4Z" fill="#263238"/>
<path d="M162.9 77.2C164.2 77.2 165.3 78.4 165.3 79.8C165.3 81.2 164.2 82.4 162.9 82.4C161.6 82.4 160.5 81.2 160.5 79.8C160.5 78.4 161.6 77.2 162.9 77.2ZM162.9 81.8C163.9 81.8 164.8 80.9 164.8 79.7C164.8 78.6 163.9 77.6 162.9 77.6C161.9 77.6 161 78.5 161 79.7C161 80.9 161.9 81.8 162.9 81.8Z" fill="#263238"/>
<path d="M168.9 77.4999C168.9 77.5999 168.8 77.7999 168.6 77.7999H168V81.4999C168 81.7999 168.3 81.8999 168.4 81.8999C168.5 81.8999 168.7 81.9999 168.7 82.1999C168.7 82.2999 168.6 82.4999 168.4 82.4999C167.9 82.4999 167.5 82.0999 167.5 81.5999V77.8999H166.9C166.6 77.8999 166.6 77.7999 166.6 77.5999C166.6 77.4999 166.6 77.2999 166.9 77.2999H167.5V75.3999C167.5 75.2999 167.6 75.0999 167.8 75.0999C167.9 75.0999 168.1 75.1999 168.1 75.3999V77.2999H168.8C168.7 77.1999 168.9 77.3999 168.9 77.4999Z" fill="#263238"/>
<path d="M175.2 77.5V82.1C175.2 82.2 175.1 82.4 174.9 82.4C174.8 82.4 174.6 82.3 174.6 82.1V81.3C174.2 81.9 173.5 82.3 172.7 82.3C171.4 82.3 170.3 81.1 170.3 79.7C170.3 78.3 171.4 77.1 172.7 77.1C173.5 77.1 174.2 77.5 174.6 78.1V77.3C174.6 77.2 174.7 77 174.9 77C175.1 77.2 175.2 77.3 175.2 77.5ZM174.7 79.8C174.7 78.7 173.8 77.7 172.8 77.7C171.8 77.7 170.9 78.6 170.9 79.8C170.9 80.9 171.8 81.9 172.8 81.9C173.9 81.8 174.7 80.9 174.7 79.8Z" fill="#263238"/>
<path d="M177.6 75.3C177.6 75.2 177.7 75 177.9 75C178 75 178.2 75.1 178.2 75.3V82.1C178.2 82.2 178.1 82.4 177.9 82.4C177.8 82.4 177.6 82.3 177.6 82.1V75.3Z" fill="#263238"/>
<path d="M183.3 79.9V79.8V79.7V77.5C183.3 77.4 183.4 77.2 183.6 77.2C183.7 77.2 183.9 77.3 183.9 77.5V78.2C184.3 77.6 185 77.2 185.8 77.2C187.2 77.2 188.3 78.3 188.3 79.7C188.3 81.1 187.2 82.2 185.8 82.2C185 82.2 184.3 81.8 183.9 81.2V84.1C183.9 84.2 183.8 84.4 183.6 84.4C183.5 84.4 183.3 84.3 183.3 84.1V79.9ZM183.8 79.8C183.8 80.9 184.7 81.8 185.7 81.8C186.8 81.8 187.7 80.9 187.7 79.8C187.7 78.7 186.8 77.8 185.7 77.8C184.7 77.7 183.9 78.6 183.8 79.8Z" fill="#263238"/>
<path d="M190.2 77.5C190.2 77.4 190.3 77.2 190.5 77.2C190.6 77.2 190.7 77.3 190.7 77.5V78.6C190.7 78.6 190.7 78.5 190.8 78.5C191.2 77.9 191.9 77.2 192.8 77.2C192.9 77.2 193.1 77.3 193.1 77.5C193.1 77.6 193 77.8 192.8 77.8C192.1 77.8 191.7 78.2 191.3 78.6C191 79.1 190.8 79.6 190.7 79.8V79.9V82.1C190.7 82.2 190.6 82.4 190.5 82.4C190.4 82.4 190.2 82.3 190.2 82.1V77.5Z" fill="#263238"/>
<path d="M194.8 75.8C194.8 75.7 194.9 75.5 195.1 75.5C195.2 75.5 195.4 75.6 195.4 75.8V76C195.4 76.1 195.3 76.3 195.1 76.3C195 76.3 194.8 76.2 194.8 76V75.8ZM194.8 77.5C194.8 77.4 194.9 77.2 195.1 77.2C195.2 77.2 195.4 77.3 195.4 77.5V82.1C195.4 82.2 195.3 82.4 195.1 82.4C195 82.4 194.8 82.3 194.8 82.1V77.5Z" fill="#263238"/>
<path d="M197.3 79.7998C197.3 78.3998 198.5 77.2998 199.9 77.2998C200.5 77.2998 201.1 77.4998 201.5 77.8998C201.6 77.9998 201.6 78.0998 201.5 78.1998C201.4 78.2998 201.3 78.2998 201.2 78.1998C200.8 77.8998 200.4 77.6998 199.9 77.6998C198.7 77.6998 197.8 78.5998 197.8 79.7998C197.8 80.8998 198.7 81.8998 199.9 81.8998C200.4 81.8998 200.9 81.6998 201.2 81.4998C201.3 81.3998 201.5 81.3998 201.5 81.4998C201.6 81.5998 201.6 81.7998 201.4 81.8998C201 82.1998 200.4 82.3998 199.8 82.3998C198.5 82.2998 197.3 81.1998 197.3 79.7998Z" fill="#263238"/>
<path d="M203.2 79.8C203.2 78.4 204.3 77.2 205.7 77.2C207 77.2 208.1 78.2 208.2 79.6C208.2 79.7 208.1 79.8 207.9 79.8H203.7C203.8 80.9 204.6 81.8 205.7 81.8C206.4 81.8 207 81.4 207.3 80.9C207.4 80.8 207.5 80.8 207.6 80.8C207.7 80.9 207.8 81 207.7 81.2C207.3 81.9 206.5 82.4 205.6 82.4C204.3 82.3 203.2 81.2 203.2 79.8ZM203.7 79.4H207.6C207.4 78.4 206.6 77.7 205.7 77.7C204.7 77.7 203.9 78.4 203.7 79.4Z" fill="#263238"/>
<path d="M161.5 89.1001C162 89.1001 162.4 89.5001 162.4 90.0001V90.5001C163.6 90.6001 164.7 91.0001 165.6 91.6001C165.9 91.8001 166.2 92.1001 166.2 92.6001C166.2 93.2001 165.7 93.7001 165 93.7001C164.8 93.7001 164.6 93.6001 164.4 93.5001C163.7 93.1001 163 92.7001 162.2 92.6001V96.6001C165.4 97.4001 166.7 98.7001 166.7 100.9C166.7 103.2 164.9 104.7 162.2 105V106.3C162.2 106.8 161.8 107.2 161.3 107.2C160.8 107.2 160.4 106.8 160.4 106.3V105C158.8 104.8 157.4 104.3 156.1 103.4C155.7 103.2 155.5 102.8 155.5 102.4C155.5 101.8 156 101.3 156.6 101.3C156.9 101.3 157.1 101.4 157.3 101.5C158.3 102.2 159.2 102.7 160.4 102.9V98.8001C157.3 98.0001 155.9 96.9001 155.9 94.5001C155.9 92.3001 157.7 90.7001 160.3 90.5001V90.0001C160.6 89.5001 161 89.1001 161.5 89.1001ZM160.6 96.2001V92.5001C159.3 92.6001 158.6 93.3001 158.6 94.3001C158.6 95.2001 159 95.7001 160.6 96.2001ZM162.3 99.1001V102.9C163.6 102.8 164.4 102.1 164.4 101.1C164.4 100.2 163.9 99.6001 162.3 99.1001Z" fill="#24CCA7"/>
<path d="M178.8 100.1C178.8 102.8 176.6 105.1 173.8 105.1C171 105.1 168.8 102.9 168.8 100.1C168.8 98.4001 169.7 96.8001 171 95.9001C170.6 95.3001 170.3 94.6001 170.3 93.8001C170.3 91.9001 171.8 90.4001 173.8 90.4001C175.7 90.4001 177.2 91.9001 177.2 93.8001C177.2 94.6001 176.9 95.3001 176.5 95.9001C177.9 96.8001 178.8 98.3001 178.8 100.1ZM176.5 100.1C176.5 98.6001 175.3 97.4001 173.8 97.4001C172.3 97.4001 171.1 98.6001 171.1 100.1C171.1 101.6 172.3 102.8 173.8 102.8C175.3 102.8 176.5 101.5 176.5 100.1ZM172.6 93.8001C172.6 94.4001 173.1 95.0001 173.8 95.0001C174.4 95.0001 174.9 94.5001 174.9 93.8001C174.9 93.2001 174.4 92.7001 173.8 92.7001C173.1 92.7001 172.6 93.2001 172.6 93.8001Z" fill="#24CCA7"/>
<path d="M182.1 95.5001C182.1 92.7001 184.4 90.4001 187.2 90.4001C189.8 90.4001 192 92.4001 192.2 94.9001C192.2 95.3001 192.2 95.7001 192.2 96.1001C192.2 97.5001 192 99.0001 191.5 100.4C191 101.8 190.1 103.1 188.8 104C187.9 104.6 186.9 104.9 185.7 105C185.1 105 184.5 104.5 184.5 103.9C184.5 103.3 185 102.8 185.6 102.7C186.4 102.7 187 102.4 187.6 102.1C188.1 101.7 188.6 101.3 188.9 100.6C189 100.4 189.1 100.2 189.2 100.1C188.6 100.4 187.9 100.5 187.2 100.5C184.3 100.5 182.1 98.3001 182.1 95.5001ZM184.4 95.5001C184.4 97.0001 185.6 98.3001 187.2 98.3001C188.7 98.3001 189.9 97.0001 189.9 95.5001C189.9 94.0001 188.7 92.8001 187.2 92.8001C185.6 92.7001 184.4 93.9001 184.4 95.5001Z" fill="#24CCA7"/>
<path d="M195.5 106.9C196.5 106.6 197 105.9 196.9 105C196.3 104.8 195.7 104.3 195.7 103.6V103.4C195.7 102.6 196.3 102 197.1 102C198 102 198.6 102.7 198.6 103.8V104C198.6 105.4 198.2 106.4 197.6 107.1C197 107.6 196.2 108 195.6 108C195.2 108 195 107.7 195 107.4C195 107.2 195.2 107 195.5 106.9Z" fill="#24CCA7"/>
<path d="M200.1 95.5001C200.1 92.7001 202.4 90.4001 205.2 90.4001C207.8 90.4001 210 92.4001 210.2 94.9001C210.2 95.3001 210.2 95.7001 210.2 96.1001C210.2 97.5001 210 99.0001 209.5 100.4C209 101.8 208.1 103.1 206.8 104C205.9 104.6 204.9 104.9 203.7 105C203.1 105 202.5 104.5 202.5 103.9C202.5 103.3 203 102.8 203.6 102.7C204.4 102.7 205 102.4 205.6 102.1C206.1 101.7 206.6 101.3 206.9 100.6C207 100.4 207.1 100.2 207.2 100.1C206.6 100.4 205.9 100.5 205.2 100.5C202.4 100.5 200.1 98.3001 200.1 95.5001ZM202.4 95.5001C202.4 97.0001 203.6 98.3001 205.2 98.3001C206.7 98.3001 207.9 97.0001 207.9 95.5001C207.9 94.0001 206.7 92.8001 205.2 92.8001C203.6 92.7001 202.4 93.9001 202.4 95.5001Z" fill="#24CCA7"/>
<path d="M213.5 95.5001C213.5 92.7001 215.8 90.4001 218.6 90.4001C221.2 90.4001 223.4 92.4001 223.6 94.9001C223.6 95.3001 223.6 95.7001 223.6 96.1001C223.6 97.5001 223.4 99.0001 222.9 100.4C222.4 101.8 221.5 103.1 220.2 104C219.3 104.6 218.3 104.9 217.1 105C216.5 105 215.9 104.5 215.9 103.9C215.9 103.3 216.4 102.8 217 102.7C217.8 102.7 218.4 102.4 219 102.1C219.5 101.7 220 101.3 220.3 100.6C220.4 100.4 220.5 100.2 220.6 100.1C220 100.4 219.3 100.5 218.6 100.5C215.8 100.5 213.5 98.3001 213.5 95.5001ZM215.8 95.5001C215.8 97.0001 217 98.3001 218.6 98.3001C220.1 98.3001 221.3 97.0001 221.3 95.5001C221.3 94.0001 220.1 92.8001 218.6 92.8001C217 92.7001 215.8 93.9001 215.8 95.5001Z" fill="#24CCA7"/>
<path d="M190.9 47.4001C190.9 47.3001 191 47.1001 191.2 47.1001H193.2C194.3 47.1001 195.3 48.0001 195.3 49.2001C195.3 50.3001 194.4 51.3001 193.2 51.3001H191.4V54.2001C191.4 54.3001 191.3 54.5001 191.1 54.5001C191 54.5001 190.8 54.4001 190.8 54.2001V47.4001H190.9ZM193.2 50.9001C194.1 50.9001 194.8 50.2001 194.8 49.3001C194.8 48.4001 194.1 47.7001 193.2 47.7001H191.4V50.9001H193.2Z" fill="#263238"/>
<path d="M201.1 49.6001V54.2001C201.1 54.3001 201 54.5001 200.8 54.5001C200.7 54.5001 200.5 54.4001 200.5 54.2001V53.4001C200.1 54.0001 199.4 54.4001 198.6 54.4001C197.3 54.4001 196.2 53.2001 196.2 51.8001C196.2 50.4001 197.3 49.2001 198.6 49.2001C199.4 49.2001 200.1 49.6001 200.5 50.2001V49.4001C200.5 49.3001 200.6 49.1001 200.8 49.1001C201 49.4001 201.1 49.5001 201.1 49.6001ZM200.6 51.9001C200.6 50.8001 199.7 49.8001 198.7 49.8001C197.7 49.8001 196.8 50.7001 196.8 51.9001C196.8 53.0001 197.7 54.0001 198.7 54.0001C199.8 54.0001 200.6 53.1001 200.6 51.9001Z" fill="#263238"/>
<path d="M203.2 49.6001C203.2 49.5001 203.3 49.4001 203.4 49.4001C203.5 49.4001 203.7 49.5001 203.7 49.6001V52.4001C203.7 53.3001 204.4 54.0001 205.3 54.0001C206.2 54.0001 206.9 53.3001 206.9 52.4001V49.6001V49.5001L207 49.4001C207 49.4001 207.1 49.4001 207.1 49.5001L207.2 49.6001V49.7001V52.5001V52.6001V54.2001C207.2 55.5001 206.1 56.6001 204.8 56.6001C204.4 56.6001 204.1 56.5001 203.7 56.4001C203.6 56.3001 203.5 56.2001 203.6 56.1001C203.7 56.0001 203.8 55.9001 203.9 56.0001C204.2 56.1001 204.4 56.2001 204.7 56.2001C205.8 56.2001 206.6 55.4001 206.6 54.3001V54.0001C206.2 54.4001 205.7 54.7001 205 54.7001C203.9 54.7001 202.9 53.8001 202.9 52.6001V49.6001H203.2Z" fill="#263238"/>
<path d="M217.1 51.5001C217.1 50.6001 216.4 49.9001 215.5 49.9001C214.6 49.9001 213.9 50.6001 213.9 51.5001V54.3001C213.9 54.4001 213.8 54.4001 213.8 54.4001H213.7C213.7 54.4001 213.7 54.4001 213.6 54.4001V51.6001C213.6 50.7001 212.9 50.0001 212 50.0001C211.1 50.0001 210.4 50.7001 210.4 51.6001V54.4001C210.4 54.5001 210.4 54.6001 210.3 54.6001C210.3 54.6001 210.3 54.6001 210.2 54.6001C210.1 54.6001 210 54.5001 210 54.4001V54.3001V51.5001V51.4001V49.6001C210 49.5001 210.1 49.4001 210.2 49.4001C210.3 49.4001 210.5 49.5001 210.5 49.6001V50.1001C210.9 49.7001 211.4 49.4001 212.1 49.4001C212.9 49.4001 213.6 49.8001 213.9 50.5001C214.3 49.9001 215 49.4001 215.7 49.4001C216.8 49.4001 217.8 50.3001 217.8 51.5001V54.3001C217.8 54.4001 217.7 54.5001 217.5 54.5001C217.4 54.5001 217.3 54.4001 217.3 54.3001V51.5001H217.1Z" fill="#263238"/>
<path d="M219.3 51.9001C219.3 50.5001 220.4 49.3 221.8 49.3C223.1 49.3 224.2 50.3001 224.3 51.7001C224.3 51.8001 224.2 51.9001 224 51.9001H219.8C219.9 53.0001 220.7 53.9001 221.8 53.9001C222.5 53.9001 223.1 53.5 223.4 53C223.5 52.9 223.6 52.9001 223.7 52.9001C223.8 53.0001 223.9 53.1 223.8 53.3C223.4 54 222.6 54.5 221.7 54.5C220.4 54.5 219.3 53.3001 219.3 51.9001ZM219.9 51.5H223.8C223.6 50.5 222.8 49.8 221.9 49.8C220.9 49.9 220.1 50.6 219.9 51.5Z" fill="#263238"/>
<path d="M229.7 51.5001C229.7 50.6001 229 49.9001 228.1 49.9001C227.2 49.9001 226.5 50.6001 226.5 51.5001V54.3001C226.5 54.3001 226.5 54.4001 226.4 54.4001C226.4 54.5001 226.3 54.5001 226.2 54.5001H226.1C226 54.5001 226 54.4001 225.9 54.4001V54.3001V51.5001V51.4001V49.7001C225.9 49.6001 226 49.4001 226.2 49.4001C226.3 49.4001 226.4 49.5001 226.4 49.7001V50.2001C226.8 49.8001 227.3 49.5001 228 49.5001C229.1 49.5001 230.1 50.4001 230.1 51.6001V54.4001C230.1 54.5001 230 54.7001 229.8 54.7001C229.7 54.7001 229.6 54.6001 229.6 54.4001V51.5001H229.7Z" fill="#263238"/>
<path d="M234.3 49.6002C234.3 49.7002 234.2 49.9002 234 49.9002H233.3V53.6002C233.3 53.9002 233.6 54.0002 233.7 54.0002C233.8 54.0002 234 54.1002 234 54.3002C234 54.4002 233.9 54.6002 233.7 54.6002C233.2 54.6002 232.8 54.2002 232.8 53.7002V50.0002H232.2C232 50.0002 232 49.9002 232 49.7002C232 49.6002 232 49.4002 232.2 49.4002H232.8V47.5002C232.8 47.4002 232.9 47.2002 233 47.2002C233.1 47.2002 233.3 47.3002 233.3 47.5002V49.4002H234C234.1 49.4002 234.3 49.5002 234.3 49.6002Z" fill="#263238"/>
<path d="M240.2 54.5001C240 54.5001 239.9 54.4001 239.9 54.2001V47.4001C239.9 47.3001 240 47.1001 240.2 47.1001H241.5C243.5 47.1001 245.2 48.7001 245.2 50.8001C245.2 52.8001 243.6 54.4001 241.5 54.4001H240.2V54.5001ZM241.5 54.0001C243.2 54.0001 244.6 52.6001 244.6 50.9001C244.6 49.2001 243.2 47.8001 241.5 47.7001H240.4V54.0001H241.5Z" fill="#263238"/>
<path d="M250.6 49.6001V54.2001C250.6 54.3001 250.5 54.5001 250.4 54.5001C250.3 54.5001 250.1 54.4001 250.1 54.2001V53.4001C249.7 54.0001 249 54.4001 248.2 54.4001C246.9 54.4001 245.8 53.2001 245.8 51.8001C245.8 50.4001 246.9 49.2001 248.2 49.2001C249 49.2001 249.7 49.6001 250.1 50.2001V49.4001C250.1 49.3001 250.2 49.1001 250.4 49.1001C250.5 49.4001 250.6 49.5001 250.6 49.6001ZM250.1 51.9001C250.1 50.8001 249.2 49.8001 248.2 49.8001C247.2 49.8001 246.3 50.7001 246.3 51.9001C246.3 53.0001 247.2 54.0001 248.2 54.0001C249.3 54.0001 250.1 53.1001 250.1 51.9001Z" fill="#263238"/>
<path d="M254.6 49.6002C254.6 49.7002 254.5 49.9002 254.3 49.9002H253.6V53.6002C253.6 53.9002 253.9 54.0002 254 54.0002C254.1 54.0002 254.3 54.1002 254.3 54.3002C254.3 54.4002 254.2 54.6002 254 54.6002C253.5 54.6002 253.1 54.2002 253.1 53.7002V50.0002H252.5C252.3 50.0002 252.3 49.9002 252.3 49.7002C252.3 49.6002 252.3 49.4002 252.5 49.4002H253.1V47.5002C253.1 47.4002 253.2 47.2002 253.3 47.2002C253.4 47.2002 253.6 47.3002 253.6 47.5002V49.4002H254.3C254.5 49.4002 254.6 49.5002 254.6 49.6002Z" fill="#263238"/>
<path d="M261 49.6001V54.2001C261 54.3001 260.9 54.5001 260.7 54.5001C260.6 54.5001 260.5 54.4001 260.5 54.2001V53.4001C260.1 54.0001 259.4 54.4001 258.6 54.4001C257.3 54.4001 256.2 53.2001 256.2 51.8001C256.2 50.4001 257.3 49.2001 258.6 49.2001C259.4 49.2001 260.1 49.6001 260.5 50.2001V49.4001C260.5 49.3001 260.6 49.1001 260.7 49.1001C260.9 49.4001 261 49.5001 261 49.6001ZM260.5 51.9001C260.5 50.8001 259.6 49.8001 258.6 49.8001C257.6 49.8001 256.7 50.7001 256.7 51.9001C256.7 53.0001 257.6 54.0001 258.6 54.0001C259.6 54.0001 260.5 53.1001 260.5 51.9001Z" fill="#263238"/>
<path d="M160.1 53.7999L156.6 50.5999L160.1 47.3999L160.8 48.0999L158.2 50.5999L160.8 53.0999L160.1 53.7999Z" fill="#4A56E2"/>
<path d="M159.5 56.2C156.4 56.2 153.9 53.7 153.9 50.6C153.9 47.5 156.4 45 159.5 45C162.6 45 165.1 47.5 165.1 50.6C165.1 53.7 162.6 56.2 159.5 56.2ZM159.5 46C157 46 154.9 48 154.9 50.6C154.9 53.1 156.9 55.2 159.5 55.2C162 55.2 164.1 53.2 164.1 50.6C164.1 48.1 162 46 159.5 46Z" fill="#4A56E2"/>
<path d="M292.6 246.5C298.841 246.5 303.9 241.441 303.9 235.2C303.9 228.959 298.841 223.9 292.6 223.9C286.359 223.9 281.3 228.959 281.3 235.2C281.3 241.441 286.359 246.5 292.6 246.5Z" fill="#FFC727"/>
<path d="M289.3 242.4L285.1 235.9L286.9 234.7L289.5 238.9L297.8 228.5L299.4 229.8L289.3 242.4Z" fill="white"/>
<path d="M229.3 247C229.3 248.8 227.8 250.3 226 250.3C224.2 250.3 222.7 248.8 222.7 247C222.7 245.2 224.2 243.7 226 243.7C227.8 243.7 229.3 245.2 229.3 247Z" fill="#4A56E2"/>
<path d="M210.7 247C210.7 248.3 209.6 249.4 208.3 249.4C207 249.4 205.9 248.3 205.9 247C205.9 245.7 207 244.6 208.3 244.6C209.6 244.6 210.7 245.7 210.7 247Z" fill="#EBEBEB"/>
<path d="M246.2 247C246.2 248.3 245.1 249.4 243.8 249.4C242.5 249.4 241.4 248.3 241.4 247C241.4 245.7 242.5 244.6 243.8 244.6C245.1 244.6 246.2 245.7 246.2 247Z" fill="#EBEBEB"/>
<path d="M155.2 270.2C155.3 270.1 155.4 270.1 155.5 270.2C156 270.6 157 271.2 157.9 271.1C158.5 271.1 159.1 270.9 159.5 270.6C159.9 270.3 160.1 269.9 160.1 269.5C160.1 269.1 159.9 268.8 159.5 268.5C159.1 268.2 158.5 268 157.8 267.9C157.1 267.8 156.5 267.6 156.1 267.3C155.7 267 155.3 266.6 155.3 266C155.3 265.4 155.6 265 156.1 264.6C156.6 264.3 157.2 264.1 157.9 264.1C158.9 264.1 159.6 264.6 160.2 264.9C160.3 265 160.3 265.1 160.3 265.2C160.2 265.3 160.1 265.3 160 265.3C159.4 264.9 158.8 264.5 158 264.5C157.4 264.5 156.9 264.7 156.5 264.9C156.1 265.2 155.9 265.5 155.9 265.9C155.9 266.3 156.1 266.5 156.4 266.8C156.8 267.1 157.3 267.2 158 267.4C158.7 267.5 159.4 267.7 159.9 268.1C160.4 268.4 160.7 268.9 160.7 269.5C160.7 270.1 160.4 270.6 159.9 271C159.4 271.4 158.8 271.6 158 271.6C156.9 271.6 155.9 271 155.3 270.5C155.1 270.5 155.1 270.3 155.2 270.2Z" fill="#263238"/>
<path d="M166.7 266.8V271.4C166.7 271.5 166.6 271.7 166.4 271.7C166.3 271.7 166.1 271.6 166.1 271.4V270.6C165.7 271.2 165 271.6 164.2 271.6C162.9 271.6 161.8 270.4 161.8 269C161.8 267.6 162.9 266.4 164.2 266.4C165 266.4 165.7 266.8 166.1 267.4V266.6C166.1 266.5 166.2 266.3 166.4 266.3C166.5 266.5 166.7 266.6 166.7 266.8ZM166.2 269.1C166.2 268 165.3 267 164.3 267C163.3 267 162.4 267.9 162.4 269.1C162.4 270.2 163.3 271.2 164.3 271.2C165.3 271.1 166.2 270.2 166.2 269.1Z" fill="#263238"/>
<path d="M170.3 271.6L170.2 271.5L168.3 266.9C168.2 266.8 168.3 266.6 168.4 266.6C168.5 266.5 168.7 266.6 168.7 266.7L170.4 270.7L172.1 266.7C172.1 266.6 172.3 266.5 172.4 266.6C172.5 266.7 172.6 266.8 172.5 266.9L170.6 271.4C170.6 271.4 170.6 271.5 170.5 271.5C170.5 271.6 170.4 271.6 170.3 271.6C170.4 271.6 170.4 271.6 170.3 271.6Z" fill="#263238"/>
<path d="M174 269.1C174 267.7 175.1 266.5 176.5 266.5C177.8 266.5 178.9 267.5 179 268.9C179 269 178.9 269.1 178.7 269.1H174.5C174.6 270.2 175.4 271.1 176.5 271.1C177.2 271.1 177.8 270.7 178.1 270.2C178.2 270.1 178.3 270.1 178.4 270.1C178.5 270.2 178.6 270.3 178.5 270.5C178.1 271.2 177.3 271.7 176.4 271.7C175.1 271.6 174 270.5 174 269.1ZM174.6 268.7H178.5C178.3 267.7 177.5 267 176.6 267C175.5 267 174.7 267.7 174.6 268.7Z" fill="#263238"/>
<path d="M183.5 269C183.5 267.6 184.7 266.5 186.1 266.5C186.7 266.5 187.3 266.7 187.7 267.1C187.8 267.2 187.8 267.3 187.7 267.4C187.6 267.5 187.5 267.5 187.4 267.4C187 267.1 186.6 266.9 186.1 266.9C184.9 266.9 184 267.8 184 269C184 270.1 184.9 271.1 186.1 271.1C186.6 271.1 187.1 270.9 187.4 270.7C187.5 270.6 187.7 270.6 187.7 270.7C187.8 270.8 187.8 271 187.6 271.1C187.2 271.4 186.6 271.6 186 271.6C184.7 271.6 183.5 270.5 183.5 269Z" fill="#263238"/>
<path d="M194.1 266.8V271.4C194.1 271.5 194 271.7 193.8 271.7C193.7 271.7 193.5 271.6 193.5 271.4V270.6C193.1 271.2 192.4 271.6 191.6 271.6C190.3 271.6 189.2 270.4 189.2 269C189.2 267.6 190.3 266.4 191.6 266.4C192.4 266.4 193.1 266.8 193.5 267.4V266.6C193.5 266.5 193.6 266.3 193.8 266.3C194 266.5 194.1 266.6 194.1 266.8ZM193.6 269.1C193.6 268 192.7 267 191.7 267C190.7 267 189.8 267.9 189.8 269.1C189.8 270.2 190.7 271.2 191.7 271.2C192.8 271.1 193.6 270.2 193.6 269.1Z" fill="#263238"/>
<path d="M196.3 266.8C196.3 266.7 196.4 266.5 196.6 266.5C196.7 266.5 196.8 266.6 196.8 266.8V267.9C196.8 267.9 196.8 267.8 196.9 267.8C197.3 267.2 198 266.5 198.9 266.5C199 266.5 199.2 266.6 199.2 266.8C199.2 266.9 199.1 267 198.9 267C198.2 267 197.8 267.4 197.4 267.8C197.1 268.3 196.9 268.8 196.8 269V269.1V271.3C196.8 271.4 196.7 271.6 196.6 271.6C196.5 271.6 196.3 271.5 196.3 271.3V266.8Z" fill="#263238"/>
<path d="M204.7 270.6C204.3 271.2 203.5 271.6 202.7 271.6C201.3 271.6 200.2 270.5 200.2 269.1C200.2 267.7 201.3 266.5 202.7 266.5C203.5 266.5 204.2 266.9 204.7 267.5V264.6C204.7 264.5 204.8 264.4 205 264.4C205.1 264.4 205.3 264.5 205.3 264.6V269V269.1V271.4C205.3 271.5 205.2 271.7 205 271.7C204.9 271.7 204.7 271.6 204.7 271.4V270.6ZM204.7 269.2V269C204.7 267.9 203.8 267 202.7 267C201.6 267 200.7 267.9 200.7 269.1C200.7 270.2 201.6 271.1 202.7 271.1C203.8 271.1 204.7 270.2 204.7 269.2Z" fill="#263238"/>
<path d="M214.3 268.6C214.3 267.7 213.6 267 212.7 267C211.8 267 211.1 267.7 211.1 268.6V271.4C211.1 271.4 211.1 271.5 211 271.5C211 271.6 210.9 271.6 210.8 271.6H210.7C210.6 271.6 210.6 271.5 210.5 271.5V271.4V268.6V268.5V266.8C210.5 266.7 210.6 266.5 210.8 266.5C210.9 266.5 211 266.6 211 266.8V267.3C211.4 266.9 211.9 266.6 212.6 266.6C213.7 266.6 214.7 267.5 214.7 268.7V271.5C214.7 271.6 214.6 271.8 214.4 271.8C214.3 271.8 214.1 271.7 214.1 271.5V268.6H214.3Z" fill="#263238"/>
<path d="M217 266.7C217 266.6 217.1 266.5 217.3 266.5C217.4 266.5 217.6 266.6 217.6 266.7V269.5C217.6 270.4 218.3 271.1 219.2 271.1C220.1 271.1 220.8 270.4 220.8 269.5V266.7C220.8 266.6 220.9 266.5 221.1 266.5C221.2 266.5 221.4 266.6 221.4 266.7V269.5C221.4 270.6 220.5 271.6 219.3 271.6C218.2 271.6 217.2 270.7 217.2 269.5V266.7H217Z" fill="#263238"/>
<path d="M230.8 268.6C230.8 267.7 230.1 267 229.2 267C228.3 267 227.6 267.7 227.6 268.6V271.4C227.6 271.5 227.5 271.5 227.5 271.5H227.4C227.4 271.5 227.4 271.5 227.3 271.5V268.7C227.3 267.8 226.6 267.1 225.7 267.1C224.8 267.1 224.1 267.8 224.1 268.7V271.5C224.1 271.6 224.1 271.7 224 271.7C224 271.7 224 271.7 223.9 271.7C223.8 271.7 223.7 271.6 223.7 271.5V271.4V268.6V268.5V266.7C223.7 266.6 223.8 266.5 223.9 266.5C224 266.5 224.2 266.6 224.2 266.7V267.2C224.6 266.8 225.1 266.5 225.8 266.5C226.6 266.5 227.3 266.9 227.6 267.6C228 267 228.7 266.5 229.4 266.5C230.5 266.5 231.5 267.4 231.5 268.6V271.4C231.5 271.5 231.4 271.6 231.2 271.6C231.1 271.6 231 271.5 231 271.4V268.6H230.8Z" fill="#263238"/>
<path d="M233.4 269.2V269.1V269V264.6C233.4 264.5 233.5 264.4 233.6 264.4C233.7 264.4 233.9 264.5 233.9 264.6V267.5C234.3 266.9 235.1 266.5 235.9 266.5C237.3 266.5 238.4 267.6 238.4 269.1C238.4 270.5 237.3 271.6 235.9 271.6C235.1 271.6 234.4 271.2 233.9 270.6V271.3C233.9 271.4 233.8 271.6 233.6 271.6C233.5 271.6 233.4 271.5 233.4 271.3V269.2ZM233.9 269.1C233.9 270.2 234.8 271.1 235.9 271.1C237 271.1 237.9 270.2 237.9 269.1C237.9 268 237 267 235.9 267C234.8 267 234 267.9 233.9 269.1Z" fill="#263238"/>
<path d="M239.9 269.1C239.9 267.7 241 266.5 242.4 266.5C243.7 266.5 244.8 267.5 244.9 268.9C244.9 269 244.8 269.1 244.6 269.1H240.4C240.5 270.2 241.3 271.1 242.4 271.1C243.1 271.1 243.7 270.7 244 270.2C244.1 270.1 244.2 270.1 244.3 270.1C244.4 270.2 244.5 270.3 244.4 270.5C244 271.2 243.2 271.7 242.3 271.7C241 271.6 239.9 270.5 239.9 269.1ZM240.5 268.7H244.4C244.2 267.7 243.4 267 242.5 267C241.5 267 240.7 267.7 240.5 268.7Z" fill="#263238"/>
<path d="M246.4 266.8C246.4 266.7 246.5 266.5 246.7 266.5C246.8 266.5 246.9 266.6 246.9 266.8V267.9C246.9 267.9 246.9 267.8 247 267.8C247.4 267.2 248.1 266.5 249 266.5C249.1 266.5 249.2 266.6 249.2 266.8C249.2 266.9 249.1 267 249 267C248.3 267 247.9 267.4 247.5 267.8C247.2 268.3 247 268.8 246.9 269V269.1V271.3C246.9 271.4 246.8 271.6 246.7 271.6C246.6 271.6 246.4 271.5 246.4 271.3V266.8Z" fill="#263238"/>
<path opacity="0.5" d="M290.4 273.5H276.4C273.6 273.5 271.2 271.2 271.2 268.3V267.8C271.2 265 273.5 262.6 276.4 262.6H290.4C293.2 262.6 295.6 264.9 295.6 267.8V268.3C295.5 271.2 293.2 273.5 290.4 273.5Z" fill="#4A56E2"/>
<path d="M294.6 268.1C294.6 270.6 292.6 272.7 290 272.7C287.5 272.7 285.4 270.7 285.4 268.1C285.4 265.6 287.4 263.5 290 263.5C292.6 263.5 294.6 265.6 294.6 268.1Z" fill="#4A56E2"/>
<path d="M278.6 298.7H173.4C170.086 298.7 167.4 301.386 167.4 304.7V315.2C167.4 318.514 170.086 321.2 173.4 321.2H278.6C281.914 321.2 284.6 318.514 284.6 315.2V304.7C284.6 301.386 281.914 298.7 278.6 298.7Z" fill="#24CCA7"/>
<path d="M177.5 305.7C177.5 305.6 177.6 305.4 177.8 305.4H179.8C180.9 305.4 181.9 306.3 181.9 307.5C181.9 308.7 181 309.6 179.8 309.6H178V312.5C178 312.6 177.9 312.7 177.7 312.7C177.6 312.7 177.4 312.6 177.4 312.5V305.7H177.5ZM179.8 309.1C180.7 309.1 181.4 308.4 181.4 307.5C181.4 306.6 180.7 305.9 179.8 305.9H178V309.1H179.8Z" fill="white"/>
<path d="M183.5 307.9C183.5 307.8 183.6 307.7 183.8 307.7C183.9 307.7 184 307.8 184 307.9V309C184 309 184 308.9 184.1 308.9C184.5 308.3 185.2 307.6 186.1 307.6C186.2 307.6 186.4 307.7 186.4 307.8C186.4 307.9 186.3 308.1 186.1 308.1C185.4 308.1 185 308.5 184.6 308.9C184.3 309.4 184.1 309.9 184 310.1V310.2V312.4C184 312.5 183.9 312.6 183.8 312.6C183.7 312.6 183.5 312.5 183.5 312.4V307.9Z" fill="white"/>
<path d="M190 307.6C191.3 307.6 192.4 308.8 192.4 310.2C192.4 311.6 191.3 312.8 190 312.8C188.7 312.8 187.6 311.6 187.6 310.2C187.5 308.8 188.6 307.6 190 307.6ZM190 312.2C191 312.2 191.9 311.3 191.9 310.1C191.9 309 191 308 190 308C189 308 188.1 308.9 188.1 310.1C188.1 311.3 188.9 312.2 190 312.2Z" fill="white"/>
<path d="M194 310.2C194 308.8 195.2 307.7 196.6 307.7C197.2 307.7 197.8 307.9 198.2 308.3C198.3 308.4 198.3 308.5 198.2 308.6C198.1 308.7 198 308.7 197.9 308.6C197.5 308.3 197.1 308.1 196.6 308.1C195.4 308.1 194.5 309 194.5 310.2C194.5 311.3 195.4 312.3 196.6 312.3C197.1 312.3 197.6 312.1 197.9 311.9C198 311.8 198.2 311.8 198.2 311.9C198.3 312 198.3 312.2 198.1 312.3C197.7 312.6 197.1 312.8 196.5 312.8C195.1 312.7 194 311.6 194 310.2Z" fill="white"/>
<path d="M199.8 310.2C199.8 308.8 200.9 307.6 202.3 307.6C203.6 307.6 204.7 308.6 204.8 310C204.8 310.1 204.7 310.2 204.5 310.2H200.3C200.4 311.3 201.2 312.2 202.3 312.2C203 312.2 203.6 311.8 203.9 311.3C204 311.2 204.1 311.2 204.2 311.2C204.3 311.3 204.4 311.4 204.3 311.6C203.9 312.3 203.1 312.8 202.2 312.8C200.9 312.7 199.8 311.6 199.8 310.2ZM200.3 309.8H204.2C204 308.8 203.2 308.1 202.3 308.1C201.3 308.1 200.5 308.8 200.3 309.8Z" fill="white"/>
<path d="M206.1 310.2C206.1 308.8 207.2 307.6 208.6 307.6C209.9 307.6 211 308.6 211.1 310C211.1 310.1 211 310.2 210.8 310.2H206.6C206.7 311.3 207.5 312.2 208.6 312.2C209.3 312.2 209.9 311.8 210.2 311.3C210.3 311.2 210.4 311.2 210.5 311.2C210.6 311.3 210.7 311.4 210.6 311.6C210.2 312.3 209.4 312.8 208.5 312.8C207.2 312.7 206.1 311.6 206.1 310.2ZM206.7 309.8H210.6C210.4 308.8 209.6 308.1 208.7 308.1C207.6 308.1 206.8 308.8 206.7 309.8Z" fill="white"/>
<path d="M216.9 311.7C216.5 312.3 215.7 312.7 214.9 312.7C213.5 312.7 212.4 311.6 212.4 310.2C212.4 308.8 213.5 307.6 214.9 307.6C215.7 307.6 216.4 308 216.9 308.6V305.7C216.9 305.6 217 305.4 217.2 305.4C217.3 305.4 217.5 305.5 217.5 305.7V310.1V310.2V312.5C217.5 312.6 217.4 312.7 217.2 312.7C217.1 312.7 216.9 312.6 216.9 312.5V311.7ZM216.9 310.3V310.1C216.9 309 216 308.1 214.9 308.1C213.8 308.1 212.9 309 212.9 310.2C212.9 311.3 213.8 312.2 214.9 312.2C216 312.2 216.9 311.3 216.9 310.3Z" fill="white"/>
<path d="M224.7 307.9C224.7 308 224.6 308.2 224.4 308.2H223.7V311.9C223.7 312.2 224 312.3 224.1 312.3C224.2 312.3 224.4 312.4 224.4 312.6C224.4 312.7 224.3 312.8 224.1 312.8C223.6 312.8 223.2 312.4 223.2 311.9V308.2H222.6C222.3 308.2 222.3 308.1 222.3 307.9C222.3 307.8 222.3 307.6 222.6 307.6H223.2V305.7C223.2 305.6 223.3 305.4 223.5 305.4C223.6 305.4 223.8 305.5 223.8 305.7V307.6H224.5C224.5 307.6 224.7 307.7 224.7 307.9Z" fill="white"/>
<path d="M229.1 307.6C230.4 307.6 231.5 308.8 231.5 310.2C231.5 311.6 230.4 312.8 229.1 312.8C227.8 312.8 226.7 311.6 226.7 310.2C226.7 308.8 227.7 307.6 229.1 307.6ZM229.1 312.2C230.1 312.2 231 311.3 231 310.1C231 309 230.1 308 229.1 308C228.1 308 227.2 308.9 227.2 310.1C227.2 311.3 228 312.2 229.1 312.2Z" fill="white"/>
<path d="M236.2 310.2C236.2 308.8 237.4 307.7 238.8 307.7C239.4 307.7 240 307.9 240.4 308.3C240.5 308.4 240.5 308.5 240.4 308.6C240.3 308.7 240.2 308.7 240.1 308.6C239.7 308.3 239.3 308.1 238.8 308.1C237.6 308.1 236.7 309 236.7 310.2C236.7 311.3 237.6 312.3 238.8 312.3C239.3 312.3 239.8 312.1 240.1 311.9C240.2 311.8 240.4 311.8 240.4 311.9C240.5 312 240.5 312.2 240.3 312.3C239.9 312.6 239.3 312.8 238.7 312.8C237.4 312.7 236.2 311.6 236.2 310.2Z" fill="white"/>
<path d="M244.5 307.6C245.8 307.6 246.9 308.8 246.9 310.2C246.9 311.6 245.8 312.8 244.5 312.8C243.2 312.8 242.1 311.6 242.1 310.2C242.1 308.8 243.2 307.6 244.5 307.6ZM244.5 312.2C245.5 312.2 246.4 311.3 246.4 310.1C246.4 309 245.5 308 244.5 308C243.5 308 242.6 308.9 242.6 310.1C242.6 311.3 243.5 312.2 244.5 312.2Z" fill="white"/>
<path d="M252.5 309.7C252.5 308.8 251.8 308.1 250.9 308.1C250 308.1 249.3 308.8 249.3 309.7V312.5C249.3 312.5 249.3 312.6 249.2 312.6C249.2 312.7 249.1 312.7 249 312.7H248.9C248.8 312.7 248.8 312.6 248.7 312.6V312.5V309.7V309.6V307.9C248.7 307.8 248.8 307.7 248.9 307.7C249 307.7 249.1 307.8 249.1 307.9V308.4C249.5 308 250 307.7 250.7 307.7C251.8 307.7 252.8 308.6 252.8 309.8V312.6C252.8 312.7 252.7 312.8 252.5 312.8C252.4 312.8 252.3 312.7 252.3 312.6V309.7H252.5Z" fill="white"/>
<path d="M257.5 305.7C257.5 305.8 257.4 306 257.3 306C256.9 306 256.8 306.1 256.7 306.2C256.6 306.3 256.5 306.6 256.5 307V307.5H257.2C257.3 307.5 257.5 307.6 257.5 307.7C257.5 307.8 257.4 308 257.2 308H256.5V312.4C256.5 312.5 256.4 312.6 256.2 312.6C256.1 312.6 255.9 312.5 255.9 312.4V308H255.2C255.1 308 254.9 307.9 254.9 307.7C254.9 307.6 255 307.5 255.2 307.5H255.9V307C255.9 306.5 256 306.1 256.2 305.8C256.4 305.5 256.8 305.4 257.2 305.4C257.4 305.4 257.5 305.5 257.5 305.7Z" fill="white"/>
<path d="M259.1 306.2C259.1 306.1 259.2 305.9 259.4 305.9C259.5 305.9 259.7 306 259.7 306.2V306.4C259.7 306.5 259.6 306.7 259.4 306.7C259.3 306.7 259.1 306.6 259.1 306.4V306.2ZM259.1 307.9C259.1 307.8 259.2 307.6 259.4 307.6C259.5 307.6 259.7 307.7 259.7 307.9V312.5C259.7 312.6 259.6 312.7 259.4 312.7C259.3 312.7 259.1 312.6 259.1 312.5V307.9Z" fill="white"/>
<path d="M262 307.9C262 307.8 262.1 307.7 262.3 307.7C262.4 307.7 262.5 307.8 262.5 307.9V309C262.5 309 262.5 308.9 262.6 308.9C263 308.3 263.7 307.6 264.6 307.6C264.7 307.6 264.8 307.7 264.8 307.8C264.8 307.9 264.7 308.1 264.6 308.1C263.9 308.1 263.5 308.5 263.1 308.9C262.8 309.4 262.6 309.9 262.5 310.1V310.2V312.4C262.5 312.5 262.4 312.6 262.3 312.6C262.2 312.6 262 312.5 262 312.4V307.9Z" fill="white"/>
<path d="M273.9 309.7C273.9 308.8 273.2 308.1 272.3 308.1C271.4 308.1 270.7 308.8 270.7 309.7V312.5C270.7 312.6 270.6 312.6 270.6 312.6H270.5C270.5 312.6 270.5 312.6 270.4 312.6V309.8C270.4 308.9 269.7 308.2 268.8 308.2C267.9 308.2 267.2 308.9 267.2 309.8V312.6C267.2 312.7 267.2 312.8 267.1 312.8C267.1 312.8 267.1 312.8 267 312.8C266.9 312.8 266.8 312.7 266.8 312.6V312.5V309.7V309.6V307.8C266.8 307.7 266.9 307.6 267 307.6C267.1 307.6 267.3 307.7 267.3 307.8V308.3C267.7 307.9 268.2 307.6 268.9 307.6C269.7 307.6 270.4 308 270.7 308.7C271.1 308.1 271.8 307.6 272.5 307.6C273.6 307.6 274.6 308.5 274.6 309.7V312.5C274.6 312.6 274.5 312.7 274.3 312.7C274.2 312.7 274.1 312.6 274.1 312.5V309.7H273.9Z" fill="white"/>
<path d="M288.6 381.1C291 381.5 355.7 372.2 357.9 370.3C358.8 369.6 358 360.1 356.6 348.6C356.6 348.5 356.6 348.4 356.6 348.2C356.3 345.8 348.1 306.7 348.1 306.7L304.8 312.8L314.8 353.7L314.9 354.4C314.9 354.4 291.7 369 289.5 371.4C287.3 373.9 286.2 380.7 288.6 381.1Z" fill="#F7A9A0"/>
<path d="M357.9 370.3C355.7 372.2 291 381.6 288.6 381.1C286.2 380.7 287.3 373.9 289.5 371.5C291.7 369.1 314.9 354.5 314.9 354.5L314.8 353.8L313.7 349.1L355.6 342.8C355.9 344.5 356.6 347.9 356.6 348.3C356.6 348.4 356.6 348.5 356.6 348.7C358 360.1 358.8 369.6 357.9 370.3Z" fill="#FFC727"/>
<path d="M288.6 381.1C289.8 381.3 307.4 379 324.6 376.4C328.1 375.9 331.5 375.3 334.8 374.8C347 372.9 357.1 371 358 370.3C358.9 369.6 358.1 360.3 356.8 349.1C356.8 348.9 356.8 348.8 356.7 348.6C356.7 348.5 356.7 348.4 356.7 348.2L314.9 353.7L315 354.4C315 354.4 291.8 369 289.6 371.4C287.3 373.9 286.2 380.7 288.6 381.1Z" fill="#A6A6A6"/>
<path d="M289 378.5C299.9 376.7 343.9 370.3 354.8 369.3C354.9 369.3 354.9 369.4 354.8 369.4C344.1 371.5 300 377.5 289.1 378.7C288.8 378.7 288.7 378.6 289 378.5Z" fill="#263238"/>
<path d="M310.2 354.6C314.4 353.2 319.7 353.1 323.4 355.7C323.5 355.8 323.4 356 323.3 356C318.9 355.3 314.8 355 310.3 355.2C309.9 355.2 309.9 354.7 310.2 354.6Z" fill="#263238"/>
<path d="M307.3 356.9C311.5 355.5 316.8 355.4 320.5 358C320.6 358.1 320.5 358.3 320.4 358.3C316 357.6 311.9 357.3 307.4 357.5C307.1 357.5 307 357 307.3 356.9Z" fill="#263238"/>
<path d="M304.5 359.3C308.7 357.9 314 357.8 317.7 360.4C317.8 360.5 317.7 360.7 317.6 360.7C313.2 360 309.1 359.7 304.6 359.9C304.3 359.8 304.2 359.4 304.5 359.3Z" fill="#263238"/>
<path d="M308.6 346.6L357.3 339.9C357.3 339.9 345.2 256.9 345.6 255C346.1 252.5 374.6 136.1 374.6 136.1H334.7C334.7 136.1 301.9 244.1 300.6 254.5C298.4 271.3 308.6 346.6 308.6 346.6Z" fill="#37474F"/>
<path d="M310.8 336.7C319.1 335 349.4 331.4 352.7 331.5C352.8 331.5 352.8 331.6 352.7 331.6C349.5 332.5 323.5 336.1 310.8 336.9C310.7 336.9 310.7 336.7 310.8 336.7Z" fill="#263238"/>
<path d="M365.4 145C364.4 147.9 363.6 150.8 362.7 153.6C361.8 156.5 361 159.4 360.2 162.3C358.5 168 356.9 173.8 355.3 179.5C352 191.1 348.9 202.7 345.8 214.4C344.3 220.2 342.8 225.9 341.3 231.7C339.8 237.5 338.2 243.3 336.9 249.1C336.3 251.9 335.9 254.6 336 257.5C336.2 260.4 336.7 263.2 337.2 266.1C338.2 272 339.1 278 340.1 283.9C342 295.9 344.1 307.9 346.1 319.9C346.4 321.4 346.6 322.8 346.9 324.3C346.9 324.4 347.1 324.4 347.1 324.3C345.5 312.4 343.5 300.5 341.6 288.6C340.7 282.7 339.7 276.9 338.8 271C338.3 267.9 337.8 264.9 337.3 261.8C336.9 258.9 336.6 255.9 337 253C337.4 250.1 338.2 247.3 338.9 244.5C339.6 241.6 340.3 238.8 341.1 235.9C342.6 230.1 344.1 224.3 345.6 218.6C348.6 207 351.8 195.4 354.9 183.9C358.1 172.4 361.3 160.9 364.5 149.4C364.9 148 365.3 146.6 365.7 145.1C365.5 145 365.4 144.9 365.4 145Z" fill="#263238"/>
<path d="M330.3 392C332.6 392.7 398 391.5 400.4 389.9C401.3 389.3 401.7 379.8 401.9 368.2C401.9 368.1 401.9 368 401.9 367.8C401.9 365.4 400.6 325.6 400.6 325.6L357.9 326.3L359.8 368.2V368.9C359.8 368.9 335 380.6 332.5 382.6C329.9 384.7 328 391.3 330.3 392Z" fill="#F7A9A0"/>
<path d="M402 363.3C402 364.8 402 366.4 402 367.9V368.3C401.9 379.8 401.5 389.4 400.5 390C398.1 391.6 332.7 392.8 330.4 392.1C328.1 391.4 330 384.8 332.5 382.7C335 380.6 359.8 369 359.8 369V368.3L359.6 363.8C367.1 363.6 388.7 363.4 402 363.3Z" fill="#FFC727"/>
<path d="M330.3 392C332.6 392.7 398 391.5 400.4 389.9C401.3 389.3 401.7 379.8 401.9 368.2C401.9 368.1 401.9 368 401.9 367.8L359.7 368.1V368.8C359.7 368.8 334.9 380.5 332.4 382.5C329.9 384.7 328 391.3 330.3 392Z" fill="#A6A6A6"/>
<path d="M331 389.4C342 388.9 386.5 388.1 397.4 388.4C397.5 388.4 397.5 388.5 397.4 388.5C386.5 389.2 342 389.7 331 389.6C330.8 389.6 330.8 389.4 331 389.4Z" fill="#263238"/>
<path d="M355 368.4C359.3 367.5 364.6 368.1 368 371.1C368.1 371.2 368 371.4 367.8 371.4C363.5 370.1 359.5 369.3 355 369C354.8 368.9 354.7 368.4 355 368.4Z" fill="#263238"/>
<path d="M352 370.3C356.3 369.4 361.6 370 365 373C365.1 373.1 365 373.3 364.8 373.3C360.5 372 356.5 371.2 352 370.9C351.7 370.8 351.6 370.4 352 370.3Z" fill="#263238"/>
<path d="M348.9 372.2C353.2 371.3 358.5 371.9 361.9 374.9C362 375 361.9 375.2 361.7 375.2C357.4 373.9 353.4 373.1 348.9 372.8C348.6 372.8 348.5 372.3 348.9 372.2Z" fill="#263238"/>
<path d="M335.8 136.1C335.8 136.1 336.7 155.2 341.1 170.3C341.4 171.6 341.8 172.8 342.2 174C342.2 174 343.9 174 350.9 178.2L356.7 361.1L403.8 360.6C403.8 360.6 396.3 263.7 396.3 257.5C396.4 247.5 390.9 179.9 391.5 178.2C397.3 160.7 387.7 136.1 387.7 136.1H335.8Z" fill="#37474F"/>
<path d="M358.3 352.3C371.6 351.5 397.3 351.3 400.5 351.8C400.6 351.8 400.6 351.9 400.5 351.9C397.2 352.5 366 353.1 358.3 352.5C358.2 352.5 358.2 352.4 358.3 352.3Z" fill="#263238"/>
<path d="M355.4 275.9C354.8 254.9 354.1 234 353.3 213C352.8 201.2 352.3 189.4 351.6 177.5C351.6 177.1 350.9 177.1 351 177.5C351.5 198.6 352.3 219.6 353 240.7C353.7 261.7 354.4 282.6 355.1 303.6C355.5 315.4 355.9 327.2 356.4 339.1C356.4 339.3 356.7 339.3 356.7 339.1C356.5 318 356 297 355.4 275.9Z" fill="#263238"/>
<path d="M392.2 305.2C391.2 291.5 390.2 277.7 389.1 264C388.1 250.3 387.1 236.5 386 222.8C385.5 215.9 385 209.1 384.5 202.2C384.2 198.8 384 195.3 383.7 191.9C383.4 188.5 383 185.1 383.1 181.7C383.2 178 384.8 174.7 385.7 171.1C386.5 167.7 386.8 164.2 386.8 160.8C386.7 153.6 385.1 146.6 383.6 139.6C383.5 139.2 382.9 139.4 383 139.8C384.5 146.2 385.9 152.7 386.2 159.3C386.3 162.6 386.2 165.9 385.5 169.1C384.9 172.2 383.6 175.1 382.9 178.2C382.1 181.4 382.6 184.6 382.8 187.9C383.1 191.3 383.3 194.8 383.5 198.2C384 204.9 384.5 211.7 385 218.4C387 245.8 389 273.1 391.2 300.5C392.4 315.9 393.4 331.3 394.9 346.7C394.9 346.8 395.1 346.8 395.1 346.7C394.3 332.7 393.2 318.9 392.2 305.2Z" fill="#263238"/>
<path d="M382.6 156.8C381.8 156.5 380.9 156.4 380.1 156.2C379.2 156 378.4 155.7 377.6 155.3C376.1 154.6 374.5 153.7 373.2 152.7C371.8 151.6 371 150.2 370.4 148.6C370 147.8 369.7 146.9 369.4 146C369.2 145.6 369.1 145.2 368.9 144.7C368.8 144.5 368.4 143.6 368.3 143.4H368.4V143.3C368.3 143.2 368.3 143.2 368.2 143.2C368.2 143.2 368.1 143.2 368.1 143.3C367.9 143.6 368.1 143.9 368.2 144.2C368.3 144.8 368.5 145.3 368.6 145.9C368.9 146.9 369.1 147.9 369.4 148.8C370 150.6 370.8 152.3 372.2 153.5C373.6 154.7 375.3 155.7 377.1 156.3C378 156.6 378.9 156.9 379.9 157.1C380.8 157.2 381.7 157.4 382.6 157.3C382.7 157.1 382.7 156.9 382.6 156.8Z" fill="#263238"/>
<path d="M344.7 167.4C344.6 165.8 344.5 164.1 344.3 162.5C344 158.8 343.6 155 342.9 151.3C342.8 151 342.4 151.1 342.5 151.4C342.8 154.3 343.1 157.2 343.4 160.1C343.7 163 344 165.9 344.1 168.8C344.1 169.7 344.1 171.2 343 171.4C341.6 171.7 340.9 169.8 340.5 168.8C339.6 166.2 339.1 163.5 338.7 160.9C338.2 157.8 338 154.7 337.7 151.7C337.7 151.6 337.5 151.6 337.5 151.7C337.5 157.8 337.6 164.2 339.8 170C340.2 171.1 341 172.3 342.3 172.4C342.3 172.4 342.3 172.4 342.4 172.4V172.5C342.4 172.7 342.5 172.8 342.5 173C342.5 173.1 342.6 173.3 342.6 173.4C342.7 173.7 342.7 174 342.8 174.3C342.9 174.6 343.2 174.5 343.2 174.2C343.3 174.2 343.3 174.1 343.3 174C343.3 173.4 343.1 172.8 342.9 172.3C343.6 172.2 344.2 171.7 344.5 171C345 169.8 344.8 168.5 344.7 167.4Z" fill="#263238"/>
<path d="M340.3 172.8C345 174.7 349.5 177.2 353.8 179.8C354 179.9 353.8 180.2 353.7 180.1C349.2 177.9 344.5 175.8 340.1 173.3C339.7 173.1 339.9 172.7 340.3 172.8Z" fill="#263238"/>
<path d="M339.8 111.3C342.6 113.5 345.3 115.1 348 116.4C343.6 108.9 344.2 91.9999 344.8 94.3999C347.4 105.9 354.6 118.5 357.4 119.2C364.8 120.2 371.5 118.2 377.1 115C371.4 106.5 371.6 89.3999 372 90.3999C376.2 101.6 384.9 108.1 386.4 108.1C392 102.8 394.9 97.4999 394.1 96.8999C388.3 92.9999 383.4 82.8999 379 72.1999C374.6 61.6999 372.4 51.5999 366.2 42.1999C360.6 33.5999 349.3 31.9999 342.9 36.3999C326.2 47.9999 336.2 108.6 339.8 111.3Z" fill="#263238"/>
<path d="M357.2 37C361.8 38.1 365.7 42.3 368.1 46.3C371.3 51.5 373.5 57.4 376.1 63C381.4 73.9 388 83.9 396.3 92.7C396.5 92.9 396.2 93.2 396 93C387 86.2 380.8 76.5 375.8 66.5C373.2 61.4 371.2 56 368.7 50.9C367.4 48.1 365.8 45.3 363.8 42.9C361.8 40.6 359.5 39.2 356.9 37.9C356.5 37.5 356.7 36.8 357.2 37Z" fill="#263238"/>
<path d="M416.8 254.7L351.1 266.4L348.7 197.8L395.3 189.4L416.8 254.7Z" fill="#EBEBEB"/>
<path d="M395.3 189.4L399.9 257.7L416.8 254.7L395.3 189.4Z" fill="#4A56E2"/>
<path d="M361.7 200.5H359.3C359.3 200.4 359.3 193.8 359.3 187.1C359.4 179.8 365.5 175.2 371.3 174.9C375.7 174.7 381.1 177 382 184.2C382.9 192 383.1 195.7 383.1 195.8L380.7 195.9C380.7 195.9 380.5 192.1 379.6 184.4C379 178.8 375 177 371.5 177.2C366.7 177.5 361.8 181.2 361.7 187C361.7 193.8 361.7 200.4 361.7 200.5Z" fill="#263238"/>
<path d="M400.7 257C401.9 255.8 403.1 254.7 404.4 253.5C405.6 252.4 406.9 251.3 408.2 250.2L408.4 250.1L408.6 250.2C409.9 250.8 411.1 251.5 412.4 252.2C413.6 252.9 414.9 253.6 416.1 254.3C414.8 253.8 413.5 253.2 412.2 252.7C410.9 252.1 409.6 251.5 408.4 250.9H408.8C407.5 252 406.2 253.1 404.9 254.1C403.4 255 402.1 256 400.7 257Z" fill="white"/>
<path d="M408.4 250.5C407.3 246.3 406.4 242.1 405.4 237.8C404.4 233.6 403.5 229.3 402.6 225.1C401.7 220.8 400.8 216.6 400 212.3L398.7 205.9C398.3 203.8 397.9 201.6 397.5 199.5C398 201.6 398.5 203.7 399 205.8L400.5 212.1C401.5 216.3 402.4 220.6 403.3 224.8C404.2 229.1 405.1 233.3 405.9 237.6C406.8 242 407.7 246.2 408.4 250.5Z" fill="white"/>
<path d="M363.7 199.8C364.1 201.5 363 203.2 361.2 203.6C359.5 204 357.8 202.9 357.4 201.1C357 199.4 358.1 197.7 359.9 197.3C361.6 196.9 363.3 198 363.7 199.8Z" fill="#263238"/>
<path d="M384.8 195.2C385.2 196.9 384.1 198.6 382.3 199C380.6 199.4 378.9 198.3 378.5 196.5C378.1 194.8 379.2 193.1 381 192.7C382.7 192.4 384.5 193.5 384.8 195.2Z" fill="#263238"/>
<path d="M409.2 274.3H332.1L343.3 195.8H397.9L409.2 274.3Z" fill="#FFC727"/>
<path opacity="0.1" d="M397.9 195.8L389.4 274.3H409.2L397.9 195.8Z" fill="black"/>
<path d="M358.7 201.2L356.3 200.7C356.3 200.6 357.7 194 359.2 187.4C360.8 180.2 367.9 176.9 373.8 177.8C378.2 178.5 383.1 182 382.4 189.4C381.6 197.3 381 201 381 201.2L378.6 200.8C378.6 200.8 379.2 197 380 189.2C380.6 183.5 377 180.9 373.5 180.3C368.7 179.5 363 182.2 361.7 188C360.1 194.6 358.7 201.1 358.7 201.2Z" fill="#263238"/>
<path d="M390.4 273.7C392 272.6 393.6 271.5 395.3 270.5C396.9 269.5 398.6 268.5 400.3 267.5L400.5 267.4L400.7 267.6C402 268.6 403.3 269.6 404.6 270.6C405.9 271.6 407.1 272.6 408.4 273.7C407 272.9 405.6 272 404.3 271C402.9 270.1 401.6 269.1 400.3 268.2H400.7C399 269.2 397.3 270.1 395.6 271C393.9 272 392.2 272.9 390.4 273.7Z" fill="white"/>
<path d="M400.5 267.9C400.2 262.9 399.9 257.9 399.7 252.9C399.5 247.9 399.3 242.9 399.1 237.9C399 232.9 398.8 227.9 398.7 222.9L398.6 215.4C398.6 212.9 398.5 210.4 398.5 207.9C398.7 210.4 398.8 212.9 399 215.4L399.4 222.9C399.6 227.9 399.8 232.9 400 237.9C400.1 242.9 400.3 247.9 400.4 252.9C400.4 257.9 400.5 262.9 400.5 267.9Z" fill="white"/>
<path d="M357.5 204.3C359.323 204.3 360.8 202.822 360.8 201C360.8 199.177 359.323 197.7 357.5 197.7C355.677 197.7 354.2 199.177 354.2 201C354.2 202.822 355.677 204.3 357.5 204.3Z" fill="#263238"/>
<path d="M379.5 204.3C381.323 204.3 382.8 202.822 382.8 201C382.8 199.177 381.323 197.7 379.5 197.7C377.677 197.7 376.2 199.177 376.2 201C376.2 202.822 377.677 204.3 379.5 204.3Z" fill="#263238"/>
<path d="M297.6 53.0999L306.9 82C307.3 82.7999 306.9 83.5999 306 83.5999L290.9 84.5999C290.1 84.6999 289.1 83.9999 288.7 83.1999L279.4 54.2999C279 53.4999 279.4 52.7 280.3 52.7L295.4 51.7C296.2 51.7 297.2 52.2999 297.6 53.0999Z" fill="#A6A6A6"/>
<path d="M295.8 53.1998L305.1 82.0998C305.5 82.8998 305.1 83.6998 304.2 83.6998L289.1 84.6998C288.3 84.7998 287.3 84.0998 286.9 83.2998L277.6 54.3998C277.2 53.5998 277.6 52.7998 278.5 52.7998L293.6 51.7998C294.4 51.6998 295.4 52.3998 295.8 53.1998Z" fill="#DBDBDB"/>
<path d="M291.7 54.7999C291.8 55.4999 292.4 55.9999 293.1 55.9999C293.8 55.8999 294.3 55.2999 294.3 54.5999C294.2 53.8999 293.6 53.3999 292.9 53.3999C292.2 53.4999 291.7 54.0999 291.7 54.7999Z" fill="#455A64"/>
<path d="M349.3 94.4999C342.1 113.4 324.5 138.5 316.6 139.1C312.8 139.4 306.1 140.8 300.8 136.8C289.3 128.1 278.9 110.6 276.3 100.3C275.4 96.6999 292.8 87.2999 295.7 90.0999C302.4 96.6999 310.7 110 311.8 109.8C315.9 109.2 330.8 94.7999 341.3 84.5999C353.8 72.4999 352.1 86.8999 349.3 94.4999Z" fill="#F7A9A0"/>
<path d="M274.4 81.3C275.8 73.7 277.3 71.9 275 64.8C273.5 60.2 275.8 57.2 279.4 60.8C285.3 66.6 285.6 76.8 284.7 80.4L274.4 81.3Z" fill="#F7A9A0"/>
<path d="M277.4 103.5C277.4 103.5 273.3 93.2999 273.9 84.9999C274.3 79.2999 276.7 66.8999 292.1 59.2999C295.8 57.4999 302.2 57.4999 297.3 62.5999C293.8 66.1999 290.5 67.4999 288.9 69.8999C288.9 69.8999 297.1 70.8999 298.8 74.6999C299.5 76.3999 301.4 80.9999 302.4 84.7999C302.4 84.7999 301.6 85.1999 300.6 85.5999C300.6 85.5999 301.8 89.1999 299.5 94.5999L277.4 103.5Z" fill="#F7A9A0"/>
<path d="M275.2 79.5999C277.4 77.4999 282 73.0999 287 70.7999C292.6 68.2999 304.1 64.8999 305.9 69.0999C307.2 72.0999 303 73.7999 303 73.7999C303 73.7999 308 73.3999 308.6 76.3999C309.2 79.0999 305.8 80.1999 305.8 80.1999C305.8 80.1999 308.9 80.4999 308.9 83.1999C308.9 86.4999 302.4 85.3999 299.6 88.6999C299 89.5999 275.2 79.5999 275.2 79.5999Z" fill="#F7A9A0"/>
<path d="M288.7 77.2C291 75.5 297.3 73.2 302.9 73.7C303 73.7 303.1 73.8 303 73.8C296.7 74.5 291.1 76.3 288.7 77.2C288.7 77.3 288.7 77.2 288.7 77.2Z" fill="#263238"/>
<path d="M291.4 82.7998C293.6 81.5998 300.2 79.3998 305.8 80.1998C305.9 80.1998 306 80.2998 305.9 80.2998C299.3 80.6998 293.9 82.0998 291.4 82.7998Z" fill="#263238"/>
<path d="M301.7 96.4999L280.8 120.7C280.8 120.7 298.7 138.2 304.5 139.6C310.3 141 314.7 140.1 318.8 139C322.9 137.8 342.9 114.6 349.5 95.6999C356.1 76.6999 349 75.7999 337.8 87.2999C326.6 98.7999 312.7 110.1 312 109.3C311.3 108.4 301.7 96.4999 301.7 96.4999Z" fill="#FFC727"/>
<path opacity="0.1" d="M301.7 96.4999L280.8 120.7C280.8 120.7 298.7 138.2 304.5 139.6C310.3 141 314.7 140.1 318.8 139C322.9 137.8 342.9 114.6 349.5 95.6999C356.1 76.6999 349 75.7999 337.8 87.2999C326.6 98.7999 312.7 110.1 312 109.3C311.3 108.4 301.7 96.4999 301.7 96.4999Z" fill="black"/>
<path d="M305.5 103.2C304.6 104 297.7 111.8 296.1 113.6C294.6 115.3 288.6 122.6 287.1 124.4C287 124.5 287.1 124.6 287.2 124.5C288 123.6 288.9 122.8 289.7 121.9C290.5 121 295.2 115.7 296.7 114C298.2 112.2 305 104.2 305.6 103.3C305.7 103.2 305.6 103.1 305.5 103.2Z" fill="#263238"/>
<path d="M330.2 127.7L326.3 161.3C326.3 161.3 380.8 160.5 394.3 159.1C394.3 159.1 381.4 96.9 366.4 81.5C358.9 73.8 350.4 74.7 345.1 80.3C343.8 81.7 328 104 326.5 112.3C325.2 119.8 330.2 127.7 330.2 127.7Z" fill="#FFC727"/>
<path d="M328 122.3C327.4 120.4 327 118.4 327 116.4C327 112.3 328.2 108.3 330 104.7C331 102.6 332.2 100.6 333.2 98.5C333.2 98.4 333.1 98.4 333.1 98.5C332.1 99.9 331.3 101.4 330.5 102.8C330.5 102.7 330.5 102.7 330.6 102.6C330.8 101.8 331.1 101 331.4 100.2C331.4 100.1 331.3 100.1 331.3 100.1C331 100.9 330.7 101.6 330.4 102.4C330.2 102.9 330.1 103.4 330 103.9C329 105.7 328.2 107.6 327.5 109.6C326.2 113.5 326 117.7 327.2 121.7C327.5 122.7 328 123.7 328.4 124.7C328.9 125.8 329.6 126.8 330.2 127.8C330.2 127.9 330.4 127.8 330.3 127.7C329.3 126.1 328.6 124.2 328 122.3Z" fill="#263238"/>
<path d="M357.5 80.5998C357.1 81.5998 350.7 87.4998 346 86.3998C344.4 85.9998 346.1 77.4998 346.1 77.4998V76.7998L345.8 67.5998L357.5 62.8998L359.2 62.2998C359.2 62.2998 359.1 64.7998 359 67.9998C359 68.0998 359 68.2998 359 68.3998C359 68.5998 359 68.6998 359 68.8998C359 69.3998 359 69.8998 358.9 70.2998C358.9 70.6998 358.9 70.9998 358.8 71.3998C358.8 71.7998 358.7 72.1998 358.7 72.4998C358.4 76.3998 357.7 80.1998 357.5 80.5998Z" fill="#F7A9A0"/>
<path d="M358.9 67.8999C355 74.4999 348.8 76.2999 346.1 76.7999L345.8 67.5999L357.5 62.8999L359.2 62.2999C359.1 62.1999 359.1 64.7999 358.9 67.8999Z" fill="#263238"/>
<path d="M334.9 53.3C332.7 69.4 342.1 72.5 345.5 73C348.6 73.4001 359.4 74.5 363.3 58.7001C367.2 42.9001 360.4 36.8001 353.2 35.4001C346.1 34.1001 337.1 37.2 334.9 53.3Z" fill="#F7A9A0"/>
<path d="M339.2 50.0001C339.6 50.0001 339.9 50.0001 340.3 49.9001C340.7 49.9001 341.1 49.9001 341.4 49.6001C341.6 49.5001 341.6 49.1001 341.5 48.9001C341.2 48.4001 340.7 48.4001 340.1 48.4001C339.5 48.4001 339.1 48.6001 338.7 49.0001C338.4 49.3001 338.7 50.0001 339.2 50.0001Z" fill="#263238"/>
<path d="M349.8 51.6002C349.4 51.5002 349.1 51.4002 348.7 51.2002C348.3 51.0002 348 51.0002 347.7 50.6002C347.6 50.4002 347.6 50.1002 347.8 49.9002C348.2 49.5002 348.8 49.6002 349.2 49.8002C349.7 50.0002 350.1 50.2002 350.4 50.7002C350.8 51.1002 350.3 51.7002 349.8 51.6002Z" fill="#263238"/>
<path d="M347.1 55.3L347.2 55.4001C347 56.5001 346.9 57.8 347.9 58.3V58.4001C346.6 58.0001 346.7 56.3 347.1 55.3Z" fill="#263238"/>
<path d="M348.3 54.4001C350.1 54.6001 349.6 58.1001 348 58.0001C346.3 57.8001 346.8 54.2001 348.3 54.4001Z" fill="#263238"/>
<path d="M348.9 54.6C349.2 54.8 349.4 55.2 349.8 55.3C350.2 55.4 350.6 55.1 350.9 54.7H351C350.9 55.4 350.6 56 349.8 56.1C349.1 56.1 348.7 55.5 348.6 54.7C348.7 54.7 348.8 54.5 348.9 54.6Z" fill="#263238"/>
<path d="M340.8 54.3C340.8 54.3 340.7 54.3 340.8 54.3C340.6 55.5 340.3 56.7 339.3 57V57.1C340.5 57 340.9 55.4 340.8 54.3Z" fill="#263238"/>
<path d="M339.9 53.0002C338.1 52.7002 337.6 56.2002 339.2 56.5002C340.9 56.8002 341.4 53.3002 339.9 53.0002Z" fill="#263238"/>
<path d="M339.2 53.2002C338.9 53.3002 338.6 53.6002 338.2 53.6002C337.8 53.6002 337.6 53.1002 337.4 52.7002H337.3C337.2 53.4002 337.3 54.1002 337.9 54.3002C338.5 54.5002 339 54.0002 339.3 53.4002C339.4 53.3002 339.3 53.1002 339.2 53.2002Z" fill="#263238"/>
<path d="M345.7 64.1003C345.4 64.3003 345.1 64.7003 344.7 64.7003C344.3 64.7003 343.9 64.5003 343.5 64.3003C343.5 64.3003 343.4 64.3003 343.4 64.4003C343.7 64.8003 344.2 65.2003 344.8 65.1003C345.3 65.1003 345.6 64.6003 345.7 64.2003C345.8 64.1003 345.7 64.0003 345.7 64.1003Z" fill="#263238"/>
<path d="M341.6 59.5001C341.6 59.5001 341.2 61.1001 341 61.9001C341 62.0001 341.2 62.0001 341.4 62.1001C342.7 62.5001 344.2 62.2001 345.1 61.2001C345.2 61.1001 345.1 61.0001 345 61.1001C343.9 61.7001 342.7 61.8001 341.5 61.6001C341.5 61.4001 342.4 58.9001 342.2 58.8001C341.8 58.7001 340.9 58.9001 340.4 59.0001C341.2 55.6001 342.6 52.4001 343.4 49.0001C343.4 48.9001 343.3 48.8001 343.2 48.9001C341.5 52.2001 340.5 56.0001 339.5 59.5001C339.6 60.0001 341.3 59.6001 341.6 59.5001Z" fill="#263238"/>
<path d="M361.9 58.8C357.9 58.5 357.2 46.2 357.2 44.7C357.2 45.7 357.1 50.7 356.7 50.9C356.6 50.9 356.2 50.8 355.5 50.6C355.5 50 355.5 49.4 355.4 48.8C355.4 48.5 355.3 49.4 355.1 50.5C354.9 50.4 354.6 50.3 354.4 50.3C354.5 49.2 354.5 47.9 354.2 46.5C354.1 46 353.9 48.2 353.4 50C350.7 49.2 346.8 48 343.1 47.8C342.1 47.7 341.3 47.7 340.5 47.7C340.6 46.2 340.8 44.6 340.7 45C340.3 46 340.1 46.9 340 47.7C339.6 47.7 339.2 47.7 338.9 47.7C338.9 45.6 340 42.3 339.6 42.8C338.2 44.7 337.6 46.8 337.4 47.9C336 48.1 335.6 48.4 335.5 48C335.5 47.3 336.5 41.5 341.2 37.4C346.3 32.9 356.3 32.1 361.6 39.5C361.6 39.5 366.1 42.7 366.6 47.5C367 52.4 364.2 59 361.9 58.8Z" fill="#263238"/>
<path d="M360.6 59.6C360.6 59.6 364.4 54.7 366.6 56.1C368.8 57.5 365.8 64.7 363.1 65.5C360.4 66.4 359.5 63.8 359.5 63.8L360.6 59.6Z" fill="#F7A9A0"/>
<path d="M365.7 58.2C363.8 58.9 362.7 60.6 361.9 62.4C362.5 61.7 363.3 61.3999 364.2 62.0999C364.2 62.0999 364.2 62.2 364.1 62.2C363.3 62 362.8 62.1 362.2 62.7C361.8 63.1 361.5 63.6999 361.2 64.1999C361.1 64.3999 360.8 64.2999 360.9 64.0999C361 61.5999 363.1 58.3 365.7 58.2Z" fill="#263238"/>
<path d="M369.3 81.4999C388 96.7999 403.1 120.2 403.9 126.1C404.8 132.6 402.5 156.3 396.3 168.3C394.7 171.5 370.5 157 372.1 153.6C375.2 146.9 379.7 128.7 379.1 125.1C378.5 121.7 369 101.5 362.4 90.8999C356.5 81.0999 360.6 74.3999 369.3 81.4999Z" fill="#F7A9A0"/>
<path d="M353.6 182.4C355.2 184.9 358.2 184.1 358.2 184.1C358.2 184.1 358.2 186.5 359.7 188.1C361.5 190 365.2 188 365.2 188C365.2 188 365.7 190.4 367.5 192C369.4 193.6 373.4 192.2 373.4 192.2C373.4 192.2 375.1 194.2 377.6 194.4C382 194.8 386 189.4 388.6 186.1C391.2 182.7 395.4 170.7 396.4 168.5L374.9 151.7C374.9 151.7 359 163.5 356.5 167.9C354.5 171.5 351.8 179.6 353.6 182.4Z" fill="#F7A9A0"/>
<path d="M357.9 183.6C359.2 179.1 361.7 175.3 364 171.3C364.1 171.2 364.2 171.3 364.1 171.4C361.8 175.3 360.2 179.7 358.1 183.7C358 183.8 357.9 183.7 357.9 183.6Z" fill="#263238"/>
<path d="M365 187.6C365.3 186.6 366 185.7 366.5 184.8C367.1 183.9 367.7 182.9 368.4 182C369.7 180.2 371 178.3 372.4 176.6C372.5 176.5 372.6 176.6 372.5 176.7C371.2 178.5 370 180.4 368.8 182.3C368.2 183.2 367.6 184.2 367 185.2C366.5 186.1 366 187.1 365.2 187.8C365.1 187.9 364.9 187.8 365 187.6Z" fill="#263238"/>
<path d="M373.5 192C373.7 191.1 374.5 190.3 375 189.6C375.6 188.8 376.2 187.9 376.8 187.1C378 185.4 379.2 183.8 380.3 182C380.4 181.9 380.5 182 380.4 182.1C379.3 183.8 378.2 185.6 377 187.3C376.4 188.2 375.9 189 375.3 189.8C374.8 190.6 374.3 191.5 373.5 192Z" fill="#263238"/>
<path d="M360.3 88.8999C363.9 99.0999 378.5 123.3 378.4 125.6C378.3 127.9 371.2 152.2 371.2 152.2L400.1 169.7C400.1 169.7 406.5 136.6 404.1 125.1C402.3 116.3 381.9 90.5999 372 82.6999C362.1 74.8999 355.7 75.8999 360.3 88.8999Z" fill="#FFC727"/>
<path opacity="0.1" d="M360.3 88.8999C363.9 99.0999 378.5 123.3 378.4 125.6C378.3 127.9 371.2 152.2 371.2 152.2L400.1 169.7C400.1 169.7 406.5 136.6 404.1 125.1C402.3 116.3 381.9 90.5999 372 82.6999C362.1 74.8999 355.7 75.8999 360.3 88.8999Z" fill="black"/>
<path d="M378.5 124.2C378.2 122.5 377.2 120.9 376.4 119.4C374.6 116 372.8 112.6 370.8 109.3C369.7 107.5 365.4 100.4 364.2 98.0999C364.1 97.8999 363.8 98.0999 363.9 98.2999C364.6 99.6999 366.6 103.3 368.1 105.9C367.9 105.6 367.7 105.4 367.4 105.1C367 104.6 366.5 104.1 366.1 103.7C365.6 103.2 365 102.8 364.6 102.2C364.5 102.1 364.4 102.2 364.5 102.3C365.3 103.4 366.2 104.3 367.1 105.3C367.5 105.8 368 106.3 368.4 106.8C368.7 107.1 369 107.5 369.3 107.8C369.4 107.9 369.4 108 369.5 108.1C371.4 111.4 373.1 114.7 374.9 118C375.8 119.6 376.8 121.2 377.4 122.9C377.7 123.7 377.9 124.5 377.9 125.4C377.8 126.4 377.5 127.4 377.3 128.3C376.3 131.9 375.4 135.5 374.4 139.2C373.9 141.3 373.3 143.4 372.8 145.5C372.3 147.6 371.7 149.7 371.4 151.8C371.4 151.9 371.6 152.1 371.7 151.9C372.4 150.1 372.9 148.2 373.4 146.4C373.9 144.5 374.5 142.6 375 140.8C376 137 377 133.2 378 129.3C378.2 127.7 378.8 126 378.5 124.2Z" fill="#263238"/>
<path d="M399.8 162.2C392 156.7 383.8 151.6 375.4 146.9C375.3 146.9 375.2 147 375.3 147C383.1 152.5 391.2 157.7 399.6 162.3C399.8 162.5 399.9 162.3 399.8 162.2Z" fill="#263238"/>
<path d="M97.7 309.2H141.8C147.6 309.2 152.3 304.5 152.3 298.7V216.1C152.3 213.1 154.4 205.5 163.5 205.5H108.1C102.3 205.5 97.6 210.2 97.6 216V309.2H97.7Z" fill="#FFC727"/>
<path opacity="0.1" d="M97.7 309.2H141.8C147.6 309.2 152.3 304.5 152.3 298.7V216.1C152.3 213.1 154.4 205.5 163.5 205.5H108.1C102.3 205.5 97.6 210.2 97.6 216V309.2H97.7Z" fill="black"/>
<g opacity="0.1">
<path opacity="0.1" d="M145.3 216.1H105.7V217.9H145.3V216.1Z" fill="black"/>
<path opacity="0.1" d="M145.3 221.2H105.7V223H145.3V221.2Z" fill="black"/>
<path opacity="0.1" d="M145.3 226.3H105.7V228.1H145.3V226.3Z" fill="black"/>
<path opacity="0.1" d="M145.3 231.4H105.7V233.2H145.3V231.4Z" fill="black"/>
<path opacity="0.1" d="M145.3 236.5H105.7V238.3H145.3V236.5Z" fill="black"/>
<path opacity="0.1" d="M145.3 241.6H105.7V243.4H145.3V241.6Z" fill="black"/>
<path opacity="0.1" d="M145.3 246.7H105.7V248.5H145.3V246.7Z" fill="black"/>
<path opacity="0.1" d="M145.3 251.8H105.7V253.6H145.3V251.8Z" fill="black"/>
<path opacity="0.1" d="M145.3 257H105.7V258.8H145.3V257Z" fill="black"/>
<path opacity="0.1" d="M145.3 262.1H105.7V263.9H145.3V262.1Z" fill="black"/>
<path opacity="0.1" d="M145.3 267.2H105.7V269H145.3V267.2Z" fill="black"/>
<path opacity="0.1" d="M145.3 272.3H105.7V274.1H145.3V272.3Z" fill="black"/>
<path opacity="0.1" d="M145.3 277.4H105.7V279.2H145.3V277.4Z" fill="black"/>
<path opacity="0.1" d="M145.3 282.5H105.7V284.3H145.3V282.5Z" fill="black"/>
<path opacity="0.1" d="M145.3 287.6H105.7V289.4H145.3V287.6Z" fill="black"/>
<path opacity="0.1" d="M145.3 292.7H105.7V294.5H145.3V292.7Z" fill="black"/>
</g>
<path d="M55.1 274.3V374H88.5V374.1C88.5 379.9 93.1 384.6 98.9 384.7H99.3C99.7 384.7 100 384.7 100.4 384.6L102.4 384.2C102.9 384 103.4 383.8 103.8 383.6C104 383.5 104.3 383.4 104.5 383.2C104.6 383.1 104.7 383.1 104.8 383C105.1 382.8 105.4 382.6 105.7 382.4L105.8 382.3C106 382.1 106.2 382 106.4 381.8C106.5 381.7 106.6 381.6 106.7 381.5C107.9 380.3 108.8 378.8 109.3 377.2V377.1C109.4 376.8 109.4 376.6 109.5 376.3C109.6 376 109.6 375.6 109.7 375.3C109.7 375.1 109.7 375 109.7 374.8C109.7 374.7 109.7 374.7 109.7 374.6C109.7 374.4 109.7 374.2 109.7 374V274.2C109.7 271.2 111.8 263.6 120.9 263.6H65.6C59.8 263.8 55.1 268.5 55.1 274.3Z" fill="#FFC727"/>
<g opacity="0.1">
<path opacity="0.1" d="M102 270.4H62.4V272.2H102V270.4Z" fill="black"/>
<path opacity="0.1" d="M105.7 265.7H66.1V267.5H105.7V265.7Z" fill="black"/>
<path opacity="0.1" d="M102 275.5H62.4V277.3H102V275.5Z" fill="black"/>
<path opacity="0.1" d="M102 280.6H62.4V282.4H102V280.6Z" fill="black"/>
<path opacity="0.1" d="M102 285.8H62.4V287.6H102V285.8Z" fill="black"/>
<path opacity="0.1" d="M102 290.9H62.4V292.7H102V290.9Z" fill="black"/>
<path opacity="0.1" d="M102 296H62.4V297.8H102V296Z" fill="black"/>
<path opacity="0.1" d="M102 301.1H62.4V302.9H102V301.1Z" fill="black"/>
<path opacity="0.1" d="M102 306.2H62.4V308H102V306.2Z" fill="black"/>
<path opacity="0.1" d="M102 311.3H62.4V313.1H102V311.3Z" fill="black"/>
<path opacity="0.1" d="M102 316.4H62.4V318.2H102V316.4Z" fill="black"/>
<path opacity="0.1" d="M102 321.5H62.4V323.3H102V321.5Z" fill="black"/>
<path opacity="0.1" d="M102 326.7H62.4V328.5H102V326.7Z" fill="black"/>
<path opacity="0.1" d="M102 331.8H62.4V333.6H102V331.8Z" fill="black"/>
<path opacity="0.1" d="M102 336.9H62.4V338.7H102V336.9Z" fill="black"/>
<path opacity="0.1" d="M102 342H62.4V343.8H102V342Z" fill="black"/>
<path opacity="0.1" d="M102 347.1H62.4V348.9H102V347.1Z" fill="black"/>
<path opacity="0.1" d="M102 352.2H62.4V354H102V352.2Z" fill="black"/>
<path opacity="0.1" d="M102 357.3H62.4V359.1H102V357.3Z" fill="black"/>
<path opacity="0.1" d="M102 364.7H82.2V368.9H102V364.7Z" fill="black"/>
</g>
<path d="M141.5 309.2C141.6 309.2 141.7 309.2 141.8 309.2C142.2 309.2 142.6 309.2 143 309.1C142.6 309.1 142.3 309.2 141.9 309.2H141.5Z" fill="#FFC727"/>
<path d="M163 205.5C157.1 205.5 152.4 210.3 152.4 216.1V236.1H173.6V216.1C173.6 210.3 168.8 205.5 163 205.5Z" fill="#FFC727"/>
<path opacity="0.2" d="M163 205.5C157.1 205.5 152.4 210.3 152.4 216.1V236.1H173.6V216.1C173.6 210.3 168.8 205.5 163 205.5Z" fill="black"/>
<path d="M109.7 274.4V309.3H130.9H141.3C135.6 309.2 130.9 304.5 130.9 298.7V274.4C130.9 268.5 126.1 263.8 120.3 263.8C117.4 263.8 114.7 265 112.8 266.9C110.9 268.8 109.7 271.4 109.7 274.4Z" fill="#FFC727"/>
<path opacity="0.2" d="M109.7 274.4V309.3H130.9H141.3C135.6 309.2 130.9 304.5 130.9 298.7V274.4C130.9 268.5 126.1 263.8 120.3 263.8C117.4 263.8 114.7 265 112.8 266.9C110.9 268.8 109.7 271.4 109.7 274.4Z" fill="black"/>
<path d="M39.6 374V374.1C39.6 379.9 44.2 384.6 50 384.7H98.9C93.2 384.6 88.5 379.9 88.5 374.1V374H39.6Z" fill="#FFC727"/>
<path opacity="0.2" d="M39.6 374V374.1C39.6 379.9 44.2 384.6 50 384.7H98.9C93.2 384.6 88.5 379.9 88.5 374.1V374H39.6Z" fill="black"/>
</g>
<defs>
<clipPath id="clip0_3_1011">
<rect width="452.1" height="412.6" fill="white"/>
</clipPath>
</defs>
</svg>
